{
.appVersion = "3151";
.formatVersion = 3;
customParameters = (
{
name = vendorID;
value = "1BOU";
},
{
name = panose;
value = (
0,
0,
9,
0,
0,
0,
0,
0,
0,
0
);
},
{
name = unicodeRanges;
value = (
0,
1,
2,
3,
5,
13,
31,
33,
35,
38,
45,
60,
63,
67
);
},
{
name = codePageRanges;
value = (
"1252",
"1256"
);
},
{
name = fsType;
value = (
);
},
{
name = glyphOrder;
value = (
.notdef,
uni000D,
space,
exclam,
quotedbl,
numbersign,
dollar,
percent,
ampersand,
quotesingle,
parenleft,
parenright,
asterisk,
plus,
comma,
hyphen,
period,
slash,
zero,
one,
two,
three,
four,
five,
six,
seven,
eight,
nine,
colon,
semicolon,
less,
equal,
greater,
question,
at,
A,
B,
C,
D,
E,
F,
G,
H,
I,
J,
K,
L,
M,
N,
O,
P,
Q,
R,
S,
T,
U,
V,
W,
X,
Y,
Z,
bracketleft,
backslash,
bracketright,
asciicircum,
underscore,
grave,
a,
b,
c,
d,
e,
f,
g,
h,
i,
j,
k,
l,
m,
n,
o,
p,
q,
r,
s,
t,
u,
v,
w,
x,
y,
z,
braceleft,
bar,
braceright,
asciitilde,
exclamdown,
cent,
sterling,
yen,
brokenbar,
section,
dieresis,
copyright,
ordfeminine,
guillemotleft,
uni00AD,
registered,
macron,
degree,
plusminus,
twosuperior,
threesuperior,
acute,
paragraph,
periodcentered,
cedilla,
onesuperior,
ordmasculine,
guillemotright,
onequarter,
onehalf,
threequarters,
questiondown,
Agrave,
Aacute,
Acircumflex,
Atilde,
Adieresis,
Aring,
AE,
Ccedilla,
Egrave,
Eacute,
Ecircumflex,
Edieresis,
Igrave,
Iacute,
Icircumflex,
Idieresis,
Eth,
Ntilde,
Ograve,
Oacute,
Ocircumflex,
Otilde,
Odieresis,
multiply,
Oslash,
Ugrave,
Uacute,
Ucircumflex,
Udieresis,
Yacute,
Thorn,
germandbls,
agrave,
aacute,
acircumflex,
atilde,
adieresis,
aring,
ae,
ccedilla,
egrave,
eacute,
ecircumflex,
edieresis,
igrave,
iacute,
icircumflex,
idieresis,
eth,
ntilde,
ograve,
oacute,
ocircumflex,
otilde,
odieresis,
divide,
oslash,
ugrave,
uacute,
ucircumflex,
udieresis,
yacute,
thorn,
ydieresis,
dotlessi,
Lslash,
lslash,
OE,
oe,
Scaron,
scaron,
Ydieresis,
Zcaron,
zcaron,
florin,
circumflex,
caron,
breve,
dotaccent,
ring,
ogonek,
tilde,
hungarumlaut,
uni03BC,
uni060C,

glyphs = (
{
glyphname = .notdef;
layers = (
{
layerId = m01;
shapes = (
{
closed = 1;
nodes = (
(110,-220,l),
(502,-220,l),
(373,511,l),
(-19,511,l)
);
},
{
closed = 1;
nodes = (
(81,-254,l),
(-60,545,l),
(401,545,l),
(542,-254,l)
);
},
{
closed = 1;
nodes = (
(266,41,o),
(266,44,qs),
(266,46,l),
(261,76,ls),
(259,87,o),
(259,93,qs),
(259,105,o),
(269,116,qs),
(321,168,o),
(353,216,o),
(353,243,qs),
(353,290,o),
(323,330,qs),
(280,387,o),
(191,387,qs),
(151,387,o),
(74,355,o),
(74,338,qs),
(74,333,o),
(77,328,qs),
(83,315,ls),
(86,308,o),
(90,308,qs),
(94,308,o),
(99,312,qs),
(144,348,o),
(198,348,qs),
(248,348,o),
(312,288,o),
(312,242,qs),
(312,201,o),
(266,161,qs),
(222,123,o),
(222,92,qs),
(222,86,o),
(223,80,qs),
(229,46,ls),
(230,41,o),
(234,41,qs),
(263,41,ls)
);
},
{
closed = 1;
nodes = (
(230,-28,o),
(230,-40,qs),
(230,-55,o),
(253,-79,o),
(269,-79,qs),
(296,-79,o),
(296,-51,qs),
(296,-36,o),
(272,-12,o),
(257,-12,qs),
(246,-12,o)
);
}
);
userData = {
assembly = "PUSHB[ ]	/* 7 values pushed */
44 41 2 7 5 1 76 
MPPEM[ ]	/* MeasurePixelPerEm */
PUSHB[ ]	/* 1 value pushed */
9 
LT[ ]	/* LessThan */
IF[ ]	/* If */
NPUSHB[ ]	/* 64 values pushed */
0 6 1 4 1 6 114 0 4 5 1 4 5 126 0 5 7 1 5 7 126 0 9 8 0 8 9 0 128 0 2 10 1 1 6 2 1 103 11 1 7 12 1 8 9 7 8 105 0 0 3 3 0 87 0 0 0 3 96 0 3 0 3 80 
ELSE[ ]	/* Else */
NPUSHB[ ]	/* 65 values pushed */
0 6 1 4 1 6 4 128 0 4 5 1 4 5 126 0 5 7 1 5 7 126 0 9 8 0 8 9 0 128 0 2 10 1 1 6 2 1 103 11 1 7 12 1 8 9 7 8 105 0 0 3 3 0 87 0 0 0 3 96 0 3 0 3 80 
EIF[ ]	/* EndIf */
NPUSHB[ ]	/* 34 values pushed */
49 48 8 8 0 0 54 52 48 58 49 58 8 47 8 47 33 31 25 23 21 19 7 6 5 4 0 3 0 3 17 13 6 23 
CALL[ ]	/* CallFunction */";
};
width = 524;
}
);
note = ".notdef";
},
{
glyphname = exclam;
layers = (
{
layerId = m01;
shapes = (
{
closed = 1;
nodes = (
(69,135,o),
(70,141,qs),
(137,503,ls),
(139,512,o),
(139,519,qs),
(139,556,o),
(106,556,qs),
(101,556,ls),
(96,556,o),
(95,549,qs),
(26,141,ls),
(26,140,o),
(26,138,qs),
(26,135,o),
(30,135,qs),
(65,135,ls)
);
},
{
closed = 1;
nodes = (
(-13,39,o),
(-13,19,qs),
(-13,5,o),
(9,-16,o),
(24,-16,qs),
(43,-16,o),
(71,14,o),
(71,34,qs),
(71,48,o),
(49,69,o),
(34,69,qs),
(15,69,o)
);
}
);
userData = {
assembly = "NPUSHB[ ]	/* 44 values pushed */
4 1 1 0 2 0 1 2 128 0 0 0 39 77 5 1 2 2 3 97 0 3 3 46 3 78 17 16 0 0 23 21 16 27 17 27 0 15 0 14 54 6 9 23 
CALL[ ]	/* CallFunction */";
};
width = 141;
}
);
note = exclam;
unicode = 33;
},
{
glyphname = quotedbl;
layers = (
{
layerId = m01;
shapes = (
{
closed = 1;
nodes = (
(96,382,o),
(97,388,qs),
(126,503,ls),
(129,516,o),
(129,526,qs),
(129,556,o),
(94,556,qs),
(87,556,ls),
(82,556,o),
(81,549,qs),
(65,388,ls),
(65,386,o),
(65,385,qs),
(65,382,o),
(69,382,qs),
(91,382,ls)
);
},
{
closed = 1;
nodes = (
(195,382,o),
(196,388,qs),
(224,503,ls),
(228,517,o),
(228,527,qs),
(228,556,o),
(193,556,qs),
(186,556,ls),
(180,556,o),
(180,549,q),
(164,388,l),
(164,386,ls),
(164,382,o),
(168,382,qs),
(190,382,ls)
);
}
);
userData = {
assembly = "NPUSHB[ ]	/* 39 values pushed */
20 1 1 0 1 76 5 3 4 3 1 1 0 97 2 1 0 0 39 1 78 16 16 0 0 16 30 16 29 24 21 0 15 0 14 54 6 9 23 
CALL[ ]	/* CallFunction */";
};
width = 218;
}
);
note = quotedbl;
unicode = 34;
},
{
glyphname = numbersign;
layers = (
{
layerId = m01;
shapes = (
{
closed = 1;
nodes = (
(46,4,o),
(46,3,qs),
(47,0,o),
(51,0,qs),
(92,0,ls),
(96,0,o),
(97,6,qs),
(136,159,l),
(293,159,l),
(255,6,l),
(255,4,o),
(255,3,qs),
(256,0,o),
(259,0,qs),
(301,0,ls),
(305,0,o),
(306,6,qs),
(345,159,l),
(420,159,ls),
(425,159,o),
(427,165,qs),
(435,198,l),
(435,200,o),
(435,201,qs),
(434,204,o),
(430,204,qs),
(357,204,l),
(395,352,l),
(468,352,ls),
(473,352,o),
(475,358,qs),
(483,391,l),
(483,393,ls),
(483,397,o),
(478,397,qs),
(406,397,l),
(435,509,ls),
(438,524,o),
(437,534,qs),
(433,556,o),
(407,556,qs),
(398,556,ls),
(395,556,o),
(393,551,q),
(393,550,l),
(393,549,l),
(354,397,l),
(197,397,l),
(226,509,ls),
(230,524,o),
(228,534,qs),
(224,556,o),
(198,556,qs),
(189,556,ls),
(186,556,o),
(184,549,qs),
(145,397,l),
(71,397,ls),
(65,397,o),
(64,391,qs),
(56,358,l),
(56,356,o),
(56,355,qs),
(57,352,o),
(61,352,qs),
(133,352,l),
(96,204,l),
(22,204,ls),
(17,204,o),
(15,198,qs),
(7,165,l),
(7,163,o),
(7,162,qs),
(8,159,o),
(12,159,qs),
(84,159,l),
(46,6,l)
);
},
{
closed = 1;
nodes = (
(342,352,l),
(305,204,l),
(148,204,l),
(186,352,l)
);
}
);
userData = {
assembly = "NPUSHB[ ]	/* 75 values pushed */
43 13 2 2 3 52 3 2 0 1 2 76 7 5 2 3 15 8 2 2 1 3 2 104 14 9 2 1 12 10 2 0 11 1 0 103 6 1 4 4 39 77 13 1 11 11 40 11 78 80 79 78 77 72 70 68 67 62 60 58 56 50 49 37 20 52 20 50 38 17 38 16 16 9 31 
CALL[ ]	/* CallFunction */";
};
width = 529;
}
);
note = numbersign;
unicode = 35;
},
{
glyphname = dollar;
layers = (
{
layerId = m01;
shapes = (
{
closed = 1;
nodes = (
(311,618,ls),
(311,622,o),
(307,622,qs),
(276,622,ls),
(271,622,o),
(270,616,qs),
(261,566,l),
(188,562,o),
(139,527,qs),
(76,482,o),
(73,402,q),
(75,353,o),
(109,323,qs),
(139,297,o),
(208,268,q),
(167,36,l),
(72,44,o),
(31,117,qs),
(26,127,o),
(19,127,qs),
(3,127,o),
(3,99,q),
(7,53,o),
(58,21,qs),
(105,-8,o),
(159,-11,q),
(151,-59,l),
(150,-60,o),
(150,-61,qs),
(150,-65,o),
(155,-65,qs),
(186,-65,ls),
(191,-65,o),
(192,-59,qs),
(200,-10,l),
(295,-2,o),
(341,35,qs),
(390,74,o),
(393,165,q),
(391,215,o),
(352,249,qs),
(323,275,o),
(255,303,q),
(294,519,l),
(358,512,o),
(412,471,qs),
(413,470,o),
(414,470,q),
(420,465,o),
(423,465,qs),
(429,465,o),
(432,473,qs),
(439,490,ls),
(441,497,o),
(441,502,qs),
(440,516,o),
(412,532,qs),
(362,561,o),
(302,565,q),
(311,616,l)
);
},
{
closed = 1;
nodes = (
(340,153,qs),
(338,103,o),
(269,42,o),
(209,37,q),
(247,252,l),
(339,211,o)
);
},
{
closed = 1;
nodes = (
(126,380,o),
(125,409,qs),
(126,453,o),
(198,515,o),
(253,519,q),
(217,318,l),
(166,341,o)
);
}
);
userData = {
assembly = "NPUSHB[ ]	/* 79 values pushed */
58 1 0 6 67 15 4 3 1 0 44 16 2 4 1 61 43 37 3 3 4 30 1 2 3 5 76 0 6 0 6 133 0 1 0 4 0 1 4 128 0 4 3 0 4 3 126 0 2 3 2 134 5 1 0 0 39 77 0 3 3 46 3 78 56 54 52 51 40 38 34 33 28 26 39 16 7 9 24 
CALL[ ]	/* CallFunction */";
};
width = 446;
}
);
note = dollar;
unicode = 36;
},
{
glyphname = percent;
layers = (
{
layerId = m01;
shapes = (
{
closed = 1;
nodes = (
(271,278,qs),
(320,342,o),
(320,445,qs),
(320,501,o),
(263,567,o),
(214,567,qs),
(151,567,o),
(107,510,qs),
(56,445,o),
(56,343,qs),
(56,287,o),
(113,223,o),
(164,223,qs),
(228,223,o)
);
},
{
closed = 1;
nodes = (
(100,335,qs),
(100,379,o),
(124,470,o),
(142,494,qs),
(169,528,o),
(213,528,qs),
(277,528,o),
(277,452,qs),
(277,408,o),
(253,319,o),
(235,294,qs),
(210,261,o),
(165,261,qs),
(100,261,o)
);
},
{
closed = 1;
nodes = (
(187,0,o),
(191,6,qs),
(550,503,ls),
(567,526,o),
(567,540,qs),
(567,556,o),
(548,556,qs),
(542,556,ls),
(538,556,o),
(536,552,q),
(535,551,ls),
(534,550,o),
(534,549,q),
(139,6,ls),
(137,3,o),
(137,2,qs),
(137,0,o),
(140,0,qs),
(182,0,ls)
);
},
{
closed = 1;
nodes = (
(619,47,qs),
(668,110,o),
(668,214,qs),
(668,270,o),
(611,335,o),
(561,335,qs),
(498,335,o),
(454,278,qs),
(404,213,o),
(404,110,qs),
(404,55,o),
(461,-9,o),
(511,-9,qs),
(575,-9,o)
);
},
{
closed = 1;
nodes = (
(447,105,qs),
(447,192,o),
(509,297,o),
(561,297,qs),
(625,297,o),
(625,220,qs),
(625,133,o),
(564,29,o),
(513,29,qs),
(447,29,o)
);
}
);
userData = {
assembly = "MPPEM[ ]	/* MeasurePixelPerEm */
PUSHB[ ]	/* 1 value pushed */
36 
LT[ ]	/* LessThan */
IF[ ]	/* If */
NPUSHB[ ]	/* 52 values pushed */
0 7 0 9 2 7 9 106 11 1 2 10 1 0 8 2 0 105 0 4 4 39 77 0 3 3 1 97 0 1 1 39 77 12 1 5 5 40 77 14 1 8 8 6 97 13 1 6 6 49 6 78 
ELSE[ ]	/* Else */
NPUSHB[ ]	/* 50 values pushed */
0 1 0 3 7 1 3 105 0 7 0 9 2 7 9 106 11 1 2 10 1 0 8 2 0 105 0 4 4 39 77 12 1 5 5 40 77 14 1 8 8 6 97 13 1 6 6 49 6 78 
EIF[ ]	/* EndIf */
NPUSHB[ ]	/* 43 values pushed */
62 61 48 47 28 28 15 14 1 0 67 65 61 70 62 70 55 53 47 60 48 60 28 46 28 45 40 37 22 20 14 27 15 27 8 6 0 13 1 13 15 9 22 
CALL[ ]	/* CallFunction */";
};
width = 719;
}
);
note = percent;
unicode = 37;
},
{
glyphname = ampersand;
layers = (
{
layerId = m01;
shapes = (
{
closed = 1;
nodes = (
(345,361,qs),
(397,406,o),
(399,468,qs),
(399,510,o),
(331,567,o),
(279,567,qs),
(215,567,o),
(173,533,qs),
(125,494,o),
(125,429,qs),
(125,379,o),
(176,309,q),
(88,264,o),
(20,183,o),
(20,123,qs),
(20,72,o),
(53,36,qs),
(91,-6,o),
(154,-6,qs),
(252,-4,o),
(332,86,q),
(383,9,ls),
(389,0,o),
(402,0,qs),
(441,0,ls),
(446,0,o),
(446,4,qs),
(446,6,o),
(445,8,qs),
(364,127,l),
(485,283,l),
(486,285,o),
(486,287,qs),
(486,290,o),
(482,290,qs),
(451,290,ls),
(441,290,o),
(433,280,qs),
(341,159,l),
(243,298,l),
(308,329,o)
);
},
{
closed = 1;
nodes = (
(261,72,o),
(202,40,o),
(164,40,qs),
(70,40,o),
(70,125,qs),
(72,180,o),
(111,216,qs),
(142,245,o),
(199,275,q),
(309,117,l)
);
},
{
closed = 1;
nodes = (
(176,435,qs),
(176,472,o),
(234,522,o),
(278,522,qs),
(310,522,o),
(349,490,o),
(349,463,qs),
(349,395,o),
(223,331,q),
(176,393,o)
);
}
);
userData = {
assembly = "NPUSHB[ ]	/* 13 values pushed */
28 1 0 5 50 19 10 1 4 4 0 2 76 
MPPEM[ ]	/* MeasurePixelPerEm */
PUSHB[ ]	/* 1 value pushed */
36 
LT[ ]	/* LessThan */
IF[ ]	/* If */
NPUSHB[ ]	/* 33 values pushed */
0 5 5 3 97 0 3 3 39 77 0 0 0 1 97 2 1 1 1 40 77 0 4 4 1 97 2 1 1 1 40 1 78 
ELSE[ ]	/* Else */
NPUSHB[ ]	/* 29 values pushed */
0 3 0 5 0 3 5 105 0 0 0 1 97 0 1 1 40 77 0 4 4 2 97 0 2 2 49 2 78 
EIF[ ]	/* EndIf */
NPUSHB[ ]	/* 9 values pushed */
39 43 43 35 57 35 6 9 28 
CALL[ ]	/* CallFunction */";
};
width = 518;
}
);
note = ampersand;
unicode = 38;
},
{
glyphname = quotesingle;
layers = (
{
layerId = m01;
shapes = (
{
closed = 1;
nodes = (
(96,382,o),
(97,388,qs),
(126,503,ls),
(129,516,o),
(129,526,qs),
(129,556,o),
(94,556,qs),
(87,556,ls),
(82,556,o),
(81,549,qs),
(65,388,ls),
(65,386,o),
(65,385,qs),
(65,382,o),
(69,382,qs),
(91,382,ls)
);
}
);
userData = {
assembly = "NPUSHB[ ]	/* 22 values pushed */
2 1 1 1 0 97 0 0 0 39 1 78 0 0 0 15 0 14 54 3 9 23 
CALL[ ]	/* CallFunction */";
};
width = 118;
}
);
note = quotesingle;
unicode = 39;
},
{
glyphname = parenleft;
layers = (
{
layerId = m01;
shapes = (
{
closed = 1;
nodes = (
(127,-90,qs),
(142,-110,o),
(180,-145,o),
(188,-145,qs),
(196,-145,o),
(196,-116,qs),
(196,-101,o),
(179,-81,qs),
(102,14,o),
(102,147,qs),
(102,232,o),
(146,417,o),
(182,484,qs),
(228,568,o),
(306,634,qs),
(340,664,o),
(340,694,qs),
(340,698,o),
(336,698,qs),
(334,698,o),
(331,697,qs),
(240,659,o),
(167,549,qs),
(114,470,o),
(52,260,o),
(52,162,qs),
(52,13,o)
);
}
);
userData = {
assembly = "NPUSHB[ ]	/* 9 values pushed */
0 0 0 118 23 21 1 9 22 
CALL[ ]	/* CallFunction */";
};
width = 314;
}
);
note = parenleft;
unicode = 40;
},
{
glyphname = parenright;
layers = (
{
layerId = m01;
shapes = (
{
closed = 1;
nodes = (
(193,643,qs),
(179,662,o),
(139,698,o),
(132,698,qs),
(124,698,o),
(124,670,qs),
(124,654,o),
(140,634,qs),
(218,538,o),
(218,406,qs),
(218,321,o),
(174,137,o),
(138,69,qs),
(93,-13,o),
(14,-81,qs),
(-20,-111,o),
(-20,-141,qs),
(-20,-145,o),
(-16,-145,qs),
(-14,-145,o),
(-11,-144,qs),
(77,-109,o),
(153,4,qs),
(205,83,o),
(268,293,o),
(268,392,qs),
(268,544,o)
);
}
);
userData = {
assembly = "NPUSHB[ ]	/* 9 values pushed */
0 0 0 118 23 21 1 9 22 
CALL[ ]	/* CallFunction */";
};
width = 314;
}
);
note = parenright;
unicode = 41;
},
{
glyphname = asterisk;
layers = (
{
layerId = m01;
shapes = (
{
closed = 1;
nodes = (
(79,309,o),
(79,308,qs),
(79,307,o),
(82,305,qs),
(120,280,l),
(122,278,o),
(123,278,qs),
(125,278,o),
(127,281,qs),
(192,368,l),
(231,281,ls),
(232,278,o),
(233,278,qs),
(234,278,o),
(238,280,qs),
(278,303,ls),
(282,305,o),
(282,307,qs),
(282,308,o),
(281,310,qs),
(232,388,l),
(330,412,l),
(335,414,o),
(335,419,qs),
(335,420,o),
(335,421,qs),
(328,466,ls),
(328,469,o),
(324,469,qs),
(323,469,o),
(322,469,q),
(225,432,l),
(249,533,l),
(250,535,l),
(250,538,o),
(244,538,qs),
(193,538,ls),
(188,538,o),
(187,533,qs),
(177,432,l),
(93,469,l),
(92,469,ls),
(88,469,o),
(87,466,q),
(64,423,ls),
(63,421,o),
(63,418,qs),
(63,415,o),
(66,414,qs),
(156,388,l),
(81,312,l)
);
}
);
userData = {
assembly = "NPUSHB[ ]	/* 15 values pushed */
43 40 37 30 29 24 19 18 16 10 8 3 12 0 73 
MPPEM[ ]	/* MeasurePixelPerEm */
PUSHB[ ]	/* 1 value pushed */
23 
LT[ ]	/* LessThan */
IF[ ]	/* If */
PUSHB[ ]	/* 6 values pushed */
0 0 0 39 0 78 
ELSE[ ]	/* Else */
PUSHB[ ]	/* 4 values pushed */
0 0 0 118 
EIF[ ]	/* EndIf */
PUSHB[ ]	/* 4 values pushed */
29 1 9 23 
CALL[ ]	/* CallFunction */";
};
width = 341;
}
);
note = asterisk;
unicode = 42;
},
{
glyphname = plus;
layers = (
{
layerId = m01;
shapes = (
{
closed = 1;
nodes = (
(170,101,o),
(175,101,qs),
(211,101,ls),
(217,101,o),
(216,107,q),
(216,249,l),
(340,249,ls),
(345,249,o),
(345,255,qs),
(345,289,ls),
(345,295,o),
(340,295,qs),
(216,295,l),
(216,397,ls),
(216,443,o),
(175,443,qs),
(170,443,o),
(170,437,qs),
(170,295,l),
(47,295,ls),
(42,295,o),
(42,289,qs),
(42,255,ls),
(42,249,o),
(47,249,qs),
(170,249,l),
(170,107,ls)
);
}
);
userData = {
assembly = "NPUSHB[ ]	/* 53 values pushed */
8 1 1 2 17 16 4 3 4 0 1 26 21 2 5 0 3 76 0 2 1 5 2 89 3 1 1 4 1 0 5 1 0 103 0 2 2 5 97 0 5 2 5 81 34 21 18 19 21 16 6 9 28 
CALL[ ]	/* CallFunction */";
};
width = 384;
}
);
note = plus;
unicode = 43;
},
{
glyphname = comma;
layers = (
{
layerId = m01;
shapes = (
{
closed = 1;
nodes = (
(56,-61,qs),
(49,-73,o),
(49,-81,qs),
(49,-87,o),
(59,-102,o),
(63,-102,qs),
(64,-102,o),
(65,-101,qs),
(95,-62,o),
(113,-21,o),
(113,6,qs),
(113,34,o),
(85,68,o),
(62,68,qs),
(48,68,o),
(28,48,o),
(28,33,qs),
(28,-7,o),
(71,-16,q),
(69,-35,o)
);
}
);
userData = {
assembly = "PUSHB[ ]	/* 8 values pushed */
0 0 0 118 36 1 9 23 
CALL[ ]	/* CallFunction */";
};
width = 137;
}
);
note = comma;
unicode = 44;
},
{
glyphname = hyphen;
layers = (
{
layerId = m01;
shapes = (
{
closed = 1;
nodes = (
(250,180,o),
(251,186,qs),
(257,221,ls),
(257,222,o),
(257,223,qs),
(257,227,o),
(253,227,qs),
(39,227,ls),
(34,227,o),
(33,221,qs),
(27,186,ls),
(27,185,o),
(27,184,qs),
(27,180,o),
(31,180,qs),
(245,180,ls)
);
}
);
userData = {
assembly = "NPUSHB[ ]	/* 34 values pushed */
10 2 2 1 0 1 76 0 0 1 1 0 87 0 0 0 1 95 2 1 1 0 1 79 0 0 0 15 0 14 38 3 9 23 
CALL[ ]	/* CallFunction */";
};
width = 305;
}
);
note = hyphen;
unicode = 45;
},
{
glyphname = period;
layers = (
{
layerId = m01;
shapes = (
{
closed = 1;
nodes = (
(-15,39,o),
(-15,19,qs),
(-15,5,o),
(7,-16,o),
(22,-16,qs),
(41,-16,o),
(69,14,o),
(69,34,qs),
(69,48,o),
(47,69,o),
(32,69,qs),
(13,69,o)
);
}
);
userData = {
assembly = "NPUSHB[ ]	/* 23 values pushed */
2 1 0 0 1 97 0 1 1 46 1 78 1 0 7 5 0 11 1 11 3 9 22 
CALL[ ]	/* CallFunction */";
};
width = 137;
}
);
note = period;
unicode = 46;
},
{
glyphname = slash;
layers = (
{
layerId = m01;
shapes = (
{
closed = 1;
nodes = (
(5,0,o),
(9,6,qs),
(307,503,ls),
(318,523,o),
(318,536,qs),
(318,556,o),
(297,556,qs),
(291,556,ls),
(286,556,o),
(282,549,qs),
(-43,6,l),
(-45,2,l),
(-45,0,o),
(-42,0,qs),
(0,0,ls)
);
}
);
userData = {
assembly = "NPUSHB[ ]	/* 22 values pushed */
0 0 0 39 77 2 1 1 1 40 1 78 0 0 0 14 0 13 53 3 9 23 
CALL[ ]	/* CallFunction */";
};
width = 271;
}
);
note = slash;
unicode = 47;
},
{
glyphname = zero;
layers = (
{
layerId = m01;
shapes = (
{
closed = 1;
nodes = (
(372,74,qs),
(411,127,o),
(456,290,o),
(456,375,qs),
(456,567,o),
(297,567,qs),
(181,567,o),
(117,456,qs),
(85,402,o),
(48,250,o),
(48,177,qs),
(48,-10,o),
(207,-10,qs),
(311,-10,o)
);
},
{
closed = 1;
nodes = (
(98,172,qs),
(98,236,o),
(131,385,o),
(155,428,qs),
(205,519,o),
(295,519,qs),
(406,519,o),
(406,384,qs),
(406,319,o),
(374,171,o),
(350,128,qs),
(300,37,o),
(209,37,qs),
(98,37,o)
);
}
);
userData = {
assembly = "MPPEM[ ]	/* MeasurePixelPerEm */
PUSHB[ ]	/* 1 value pushed */
36 
LT[ ]	/* LessThan */
IF[ ]	/* If */
NPUSHB[ ]	/* 23 values pushed */
0 3 3 1 97 0 1 1 39 77 5 1 2 2 0 97 4 1 0 0 46 0 78 
ELSE[ ]	/* Else */
NPUSHB[ ]	/* 21 values pushed */
0 1 0 3 2 1 3 105 5 1 2 2 0 97 4 1 0 0 46 0 78 
EIF[ ]	/* EndIf */
NPUSHB[ ]	/* 19 values pushed */
15 14 1 0 22 20 14 27 15 27 8 6 0 13 1 13 6 9 22 
CALL[ ]	/* CallFunction */";
};
width = 498;
}
);
note = zero;
unicode = 48;
},
{
glyphname = one;
layers = (
{
layerId = m01;
shapes = (
{
closed = 1;
nodes = (
(3,47,o),
(1,41,q),
(-5,6,ls),
(-5,5,o),
(-5,4,qs),
(-5,0,o),
(-1,0,qs),
(259,0,ls),
(267,0,o),
(268,7,qs),
(270,18,ls),
(271,22,o),
(271,26,qs),
(271,47,o),
(245,47,qs),
(164,47,l),
(245,508,l),
(247,515,o),
(247,524,qs),
(247,556,o),
(218,556,qs),
(210,556,ls),
(189,556,o),
(162,547,qs),
(95,524,ls),
(88,522,o),
(86,513,qs),
(79,474,l),
(79,473,ls),
(80,470,o),
(82,470,qs),
(83,470,o),
(84,471,q),
(195,509,l),
(113,47,l),
(7,47,ls)
);
}
);
userData = {
assembly = "NPUSHB[ ]	/* 42 values pushed */
6 1 2 1 0 30 22 2 2 1 2 76 0 0 0 39 77 4 3 2 1 1 2 95 0 2 2 40 2 78 0 0 0 35 0 34 37 36 60 5 9 25 
CALL[ ]	/* CallFunction */";
};
width = 340;
}
);
note = one;
unicode = 49;
},
{
glyphname = two;
layers = (
{
layerId = m01;
shapes = (
{
closed = 1;
nodes = (
(130,149,o),
(219,202,qs),
(314,260,o),
(344,288,qs),
(408,349,o),
(408,441,qs),
(408,495,o),
(372,528,qs),
(332,567,o),
(259,567,qs),
(200,567,o),
(90,519,o),
(90,494,qs),
(90,491,o),
(90,489,qs),
(93,474,ls),
(94,466,o),
(98,466,qs),
(103,466,o),
(110,470,qs),
(184,519,o),
(254,519,qs),
(357,519,o),
(356,435,qs),
(356,382,o),
(284,297,o),
(194,245,qs),
(80,179,o),
(39,115,qs),
(23,91,o),
(-4,20,o),
(-4,3,qs),
(-4,0,o),
(0,0,qs),
(327,0,ls),
(335,0,o),
(336,7,qs),
(338,18,ls),
(339,22,o),
(339,26,qs),
(339,47,o),
(313,47,qs),
(56,47,l),
(73,95,o)
);
}
);
userData = {
assembly = "NPUSHB[ ]	/* 11 values pushed */
28 1 3 2 11 3 2 1 0 2 76 
MPPEM[ ]	/* MeasurePixelPerEm */
PUSHB[ ]	/* 1 value pushed */
36 
LT[ ]	/* LessThan */
IF[ ]	/* If */
NPUSHB[ ]	/* 29 values pushed */
0 3 2 0 2 3 0 128 0 2 2 4 97 0 4 4 39 77 0 0 0 1 95 0 1 1 40 1 78 
ELSE[ ]	/* Else */
NPUSHB[ ]	/* 27 values pushed */
0 3 2 0 2 3 0 128 0 4 0 2 3 4 2 105 0 0 0 1 95 0 1 1 40 1 78 
EIF[ ]	/* EndIf */
PUSHB[ ]	/* 8 values pushed */
38 34 43 37 32 5 9 27 
CALL[ ]	/* CallFunction */";
};
width = 436;
}
);
note = two;
unicode = 50;
},
{
glyphname = three;
layers = (
{
layerId = m01;
shapes = (
{
closed = 1;
nodes = (
(402,445,qs),
(402,498,o),
(366,530,qs),
(325,567,o),
(248,567,qs),
(190,567,o),
(81,519,o),
(81,494,qs),
(81,491,o),
(82,489,q),
(84,474,ls),
(85,466,o),
(89,466,qs),
(93,466,o),
(103,472,qs),
(181,519,o),
(245,519,qs),
(351,519,o),
(351,442,qs),
(351,388,o),
(318,354,qs),
(281,316,o),
(215,316,qs),
(126,316,ls),
(119,316,o),
(117,308,qs),
(116,298,ls),
(115,293,o),
(115,290,qs),
(115,270,o),
(141,270,qs),
(192,270,ls),
(253,270,o),
(319,221,o),
(319,176,qs),
(319,120,o),
(279,82,qs),
(233,37,o),
(160,37,qs),
(66,37,o),
(28,115,qs),
(23,125,o),
(17,125,qs),
(0,125,o),
(0,97,qs),
(0,54,o),
(35,26,qs),
(79,-10,o),
(162,-10,qs),
(251,-10,o),
(307,35,qs),
(370,85,o),
(370,173,qs),
(370,219,o),
(325,281,o),
(285,289,q),
(402,331,o)
);
}
);
userData = {
assembly = "NPUSHB[ ]	/* 10 values pushed */
46 1 6 5 27 1 3 4 2 76 
MPPEM[ ]	/* MeasurePixelPerEm */
PUSHB[ ]	/* 1 value pushed */
36 
LT[ ]	/* LessThan */
IF[ ]	/* If */
NPUSHB[ ]	/* 45 values pushed */
0 6 5 4 5 6 4 128 0 1 3 2 3 1 2 128 0 4 0 3 1 4 3 105 0 5 5 7 97 0 7 7 39 77 0 2 2 0 97 0 0 0 46 0 78 
ELSE[ ]	/* Else */
NPUSHB[ ]	/* 43 values pushed */
0 6 5 4 5 6 4 128 0 1 3 2 3 1 2 128 0 7 0 5 6 7 5 105 0 4 0 3 1 4 3 105 0 2 2 0 97 0 0 0 46 0 78 
EIF[ ]	/* EndIf */
NPUSHB[ ]	/* 11 values pushed */
38 34 36 53 53 35 20 38 8 9 30 
CALL[ ]	/* CallFunction */";
};
width = 434;
}
);
note = three;
unicode = 51;
},
{
glyphname = four;
layers = (
{
layerId = m01;
shapes = (
{
closed = 1;
nodes = (
(235,5,o),
(235,4,qs),
(235,0,o),
(239,0,qs),
(280,0,ls),
(285,0,o),
(286,6,qs),
(310,139,l),
(376,139,ls),
(384,139,o),
(385,146,qs),
(387,157,ls),
(388,161,o),
(388,165,qs),
(388,186,o),
(362,186,qs),
(318,186,l),
(377,518,ls),
(378,524,o),
(378,530,qs),
(378,556,o),
(352,556,qs),
(337,556,ls),
(322,556,o),
(308,539,qs),
(18,202,ls),
(6,187,o),
(3,171,qs),
(-2,145,ls),
(-2,144,o),
(-2,143,qs),
(-2,139,o),
(2,139,qs),
(259,139,l),
(235,6,ls)
);
},
{
closed = 1;
nodes = (
(267,186,l),
(60,186,l),
(321,493,l)
);
}
);
userData = {
assembly = "NPUSHB[ ]	/* 41 values pushed */
37 14 2 2 1 20 1 0 2 2 76 5 1 2 3 1 0 4 2 0 104 0 1 1 39 77 0 4 4 40 4 78 21 34 37 36 57 16 6 9 28 
CALL[ ]	/* CallFunction */";
};
width = 433;
}
);
note = four;
unicode = 52;
},
{
glyphname = five;
layers = (
{
layerId = m01;
shapes = (
{
closed = 1;
nodes = (
(402,508,o),
(403,516,qs),
(405,527,ls),
(406,531,o),
(406,535,qs),
(406,556,o),
(380,556,qs),
(118,556,ls),
(113,556,o),
(112,549,qs),
(64,276,ls),
(64,275,o),
(64,274,qs),
(64,273,ls),
(64,269,o),
(68,269,qs),
(69,269,o),
(73,270,qs),
(145,298,o),
(219,298,qs),
(327,298,o),
(327,204,qs),
(327,136,o),
(286,90,qs),
(238,37,o),
(161,37,qs),
(71,37,o),
(33,115,qs),
(28,125,o),
(23,125,qs),
(5,125,o),
(5,98,qs),
(5,55,o),
(41,25,qs),
(85,-10,o),
(162,-10,qs),
(250,-10,o),
(310,44,qs),
(379,106,o),
(379,207,qs),
(379,266,o),
(344,302,qs),
(303,344,o),
(228,344,qs),
(184,344,o),
(123,329,q),
(155,508,l),
(393,508,ls)
);
}
);
userData = {
assembly = "NPUSHB[ ]	/* 14 values pushed */
42 1 6 5 1 1 4 0 36 1 2 4 3 76 
MPPEM[ ]	/* MeasurePixelPerEm */
PUSHB[ ]	/* 1 value pushed */
25 
LT[ ]	/* LessThan */
IF[ ]	/* If */
NPUSHB[ ]	/* 40 values pushed */
0 2 4 3 4 2 3 128 7 1 6 6 5 95 0 5 5 39 77 0 4 4 0 97 0 0 0 42 77 0 3 3 1 97 0 1 1 46 1 78 
ELSE[ ]	/* Else */
NPUSHB[ ]	/* 38 values pushed */
0 2 4 3 4 2 3 128 0 0 0 4 2 0 4 105 7 1 6 6 5 95 0 5 5 39 77 0 3 3 1 97 0 1 1 46 1 78 
EIF[ ]	/* EndIf */
NPUSHB[ ]	/* 15 values pushed */
0 0 0 47 0 46 58 36 35 20 38 34 8 9 28 
CALL[ ]	/* CallFunction */";
};
width = 439;
}
);
note = five;
unicode = 53;
},
{
glyphname = six;
layers = (
{
layerId = m01;
shapes = (
{
closed = 1;
nodes = (
(325,523,o),
(325,545,qs),
(325,567,o),
(306,567,qs),
(299,567,o),
(292,558,qs),
(122,340,ls),
(68,272,o),
(27,184,o),
(27,138,qs),
(27,72,o),
(67,33,qs),
(110,-10,o),
(186,-10,qs),
(272,-10,o),
(329,42,qs),
(395,102,o),
(395,202,qs),
(395,266,o),
(358,305,qs),
(318,348,o),
(250,348,qs),
(212,348,o),
(172,328,q),
(304,497,ls)
);
},
{
closed = 1;
nodes = (
(78,90,o),
(78,138,qs),
(78,202,o),
(118,248,qs),
(164,301,o),
(236,301,qs),
(287,301,o),
(344,247,o),
(344,199,qs),
(344,135,o),
(305,89,qs),
(259,37,o),
(187,37,qs),
(135,37,o)
);
}
);
userData = {
assembly = "MPPEM[ ]	/* MeasurePixelPerEm */
PUSHB[ ]	/* 1 value pushed */
34 
LT[ ]	/* LessThan */
IF[ ]	/* If */
NPUSHB[ ]	/* 27 values pushed */
0 2 2 39 77 0 4 4 0 97 0 0 0 42 77 5 1 3 3 1 97 0 1 1 46 1 78 
ELSE[ ]	/* Else */
MPPEM[ ]	/* MeasurePixelPerEm */
PUSHB[ ]	/* 1 value pushed */
36 
LT[ ]	/* LessThan */
IF[ ]	/* If */
NPUSHB[ ]	/* 25 values pushed */
0 0 0 4 3 0 4 105 0 2 2 39 77 5 1 3 3 1 97 0 1 1 46 1 78 
ELSE[ ]	/* Else */
NPUSHB[ ]	/* 25 values pushed */
0 2 0 2 133 0 0 0 4 3 0 4 105 5 1 3 3 1 97 0 1 1 46 1 78 
EIF[ ]	/* EndIf */
EIF[ ]	/* EndIf */
NPUSHB[ ]	/* 14 values pushed */
26 25 33 31 25 38 26 38 40 38 33 6 9 25 
CALL[ ]	/* CallFunction */";
};
width = 449;
}
);
note = six;
unicode = 54;
},
{
glyphname = seven;
layers = (
{
layerId = m01;
shapes = (
{
closed = 1;
nodes = (
(44,6,o),
(47,5,q),
(50,3,l),
(50,0,o),
(53,0,qs),
(92,0,ls),
(103,0,o),
(110,11,qs),
(409,478,ls),
(423,499,o),
(426,518,qs),
(428,527,ls),
(429,530,o),
(429,535,qs),
(428,556,o),
(403,556,qs),
(87,556,ls),
(82,556,o),
(81,549,qs),
(75,514,ls),
(75,513,o),
(75,512,qs),
(75,508,o),
(79,508,qs),
(374,508,l),
(45,6,l)
);
}
);
userData = {
assembly = "NPUSHB[ ]	/* 29 values pushed */
11 3 2 0 1 1 76 0 0 0 1 95 0 1 1 39 77 0 2 2 40 2 78 40 54 16 3 9 25 
CALL[ ]	/* CallFunction */";
};
width = 427;
}
);
note = seven;
unicode = 55;
},
{
glyphname = eight;
layers = (
{
layerId = m01;
shapes = (
{
closed = 1;
nodes = (
(19,128,qs),
(19,64,o),
(59,28,qs),
(102,-11,o),
(181,-11,qs),
(265,-11,o),
(322,34,qs),
(387,87,o),
(387,173,qs),
(387,258,o),
(300,295,q),
(416,341,o),
(416,442,qs),
(416,491,o),
(381,526,qs),
(340,567,o),
(273,567,qs),
(198,567,o),
(146,526,qs),
(86,480,o),
(86,404,qs),
(86,333,o),
(157,299,q),
(19,250,o)
);
},
{
closed = 1;
nodes = (
(366,476,o),
(366,438,qs),
(366,392,o),
(332,358,qs),
(292,319,o),
(232,319,qs),
(188,319,o),
(134,364,o),
(134,400,qs),
(134,447,o),
(167,480,qs),
(205,519,o),
(265,519,qs),
(312,519,o)
);
},
{
closed = 1;
nodes = (
(337,220,o),
(337,175,qs),
(337,119,o),
(300,81,qs),
(257,36,o),
(187,36,qs),
(132,36,o),
(70,85,o),
(70,128,qs),
(70,184,o),
(110,225,qs),
(156,274,o),
(225,274,qs),
(276,274,o)
);
}
);
userData = {
assembly = "PUSHB[ ]	/* 6 values pushed */
12 1 4 3 1 76 
MPPEM[ ]	/* MeasurePixelPerEm */
PUSHB[ ]	/* 1 value pushed */
36 
LT[ ]	/* LessThan */
IF[ ]	/* If */
NPUSHB[ ]	/* 31 values pushed */
0 3 7 1 4 5 3 4 105 6 1 2 2 0 97 0 0 0 39 77 0 5 5 1 97 0 1 1 46 1 78 
ELSE[ ]	/* Else */
NPUSHB[ ]	/* 29 values pushed */
0 0 6 1 2 3 0 2 105 0 3 7 1 4 5 3 4 105 0 5 5 1 97 0 1 1 46 1 78 
EIF[ ]	/* EndIf */
NPUSHB[ ]	/* 21 values pushed */
39 38 25 24 46 44 38 51 39 51 32 30 24 37 25 37 42 37 8 9 24 
CALL[ ]	/* CallFunction */";
};
width = 446;
}
);
note = eight;
unicode = 56;
},
{
glyphname = nine;
layers = (
{
layerId = m01;
shapes = (
{
closed = 1;
nodes = (
(129,33,o),
(129,12,qs),
(129,-10,o),
(148,-10,qs),
(156,-10,o),
(163,-1,qs),
(333,217,ls),
(386,285,o),
(427,373,o),
(427,418,qs),
(427,567,o),
(268,567,qs),
(183,567,o),
(125,515,qs),
(59,455,o),
(59,355,qs),
(59,298,o),
(96,257,qs),
(139,209,o),
(204,209,qs),
(242,209,o),
(282,229,q),
(150,60,ls)
);
},
{
closed = 1;
nodes = (
(377,467,o),
(377,419,qs),
(377,355,o),
(337,309,qs),
(290,256,o),
(219,256,qs),
(168,256,o),
(110,310,o),
(110,358,qs),
(110,422,o),
(150,467,qs),
(195,519,o),
(267,519,qs),
(319,519,o)
);
}
);
userData = {
assembly = "MPPEM[ ]	/* MeasurePixelPerEm */
PUSHB[ ]	/* 1 value pushed */
36 
LT[ ]	/* LessThan */
IF[ ]	/* If */
NPUSHB[ ]	/* 25 values pushed */
0 4 0 0 2 4 0 105 5 1 3 3 1 97 0 1 1 39 77 0 2 2 46 2 78 
ELSE[ ]	/* Else */
NPUSHB[ ]	/* 23 values pushed */
0 1 5 1 3 4 1 3 105 0 4 0 0 2 4 0 105 0 2 2 46 2 78 
EIF[ ]	/* EndIf */
NPUSHB[ ]	/* 14 values pushed */
24 23 31 29 23 36 24 36 38 38 33 6 9 25 
CALL[ ]	/* CallFunction */";
};
width = 449;
}
);
note = nine;
unicode = 57;
},
{
glyphname = colon;
layers = (
{
layerId = m01;
shapes = (
{
closed = 1;
nodes = (
(34,259,o),
(34,240,qs),
(34,225,o),
(55,204,o),
(70,204,qs),
(89,204,o),
(117,234,o),
(117,254,qs),
(117,268,o),
(96,289,o),
(81,289,qs),
(62,289,o)
);
},
{
closed = 1;
nodes = (
(-5,39,o),
(-5,19,qs),
(-5,5,o),
(17,-16,o),
(32,-16,qs),
(51,-16,o),
(79,14,o),
(79,34,qs),
(79,48,o),
(57,69,o),
(42,69,qs),
(23,69,o)
);
}
);
userData = {
assembly = "NPUSHB[ ]	/* 40 values pushed */
4 1 0 0 1 2 0 1 105 5 1 2 2 3 97 0 3 3 46 3 78 13 12 1 0 19 17 12 23 13 23 7 5 0 11 1 11 6 9 22 
CALL[ ]	/* CallFunction */";
};
width = 157;
}
);
note = colon;
unicode = 58;
},
{
glyphname = semicolon;
layers = (
{
layerId = m01;
shapes = (
{
closed = 1;
nodes = (
(-4,-61,qs),
(-19,-77,o),
(-19,-88,qs),
(-19,-92,o),
(-13,-102,o),
(-11,-102,qs),
(-10,-102,o),
(-9,-101,qs),
(28,-77,o),
(82,-2,o),
(82,27,qs),
(82,44,o),
(61,68,o),
(46,68,qs),
(25,68,o),
(-1,43,o),
(-1,23,qs),
(-1,-9,o),
(27,-16,q),
(18,-36,o)
);
},
{
closed = 1;
nodes = (
(42,259,o),
(42,240,qs),
(42,225,o),
(63,204,o),
(78,204,qs),
(98,204,o),
(125,234,o),
(125,254,qs),
(125,268,o),
(104,289,o),
(89,289,qs),
(70,289,o)
);
}
);
userData = {
assembly = "NPUSHB[ ]	/* 39 values pushed */
11 1 0 73 0 0 2 0 134 3 1 1 2 2 1 89 3 1 1 1 2 97 0 2 1 2 81 21 20 27 25 20 31 21 31 36 4 9 23 
CALL[ ]	/* CallFunction */";
};
width = 157;
}
);
note = semicolon;
unicode = 59;
},
{
glyphname = less;
layers = (
{
layerId = m01;
shapes = (
{
closed = 1;
nodes = (
(414,387,o),
(414,398,qs),
(415,433,ls),
(415,441,o),
(408,438,qs),
(60,295,l),
(55,292,o),
(55,287,qs),
(55,254,ls),
(55,248,o),
(60,246,qs),
(408,102,ls),
(415,99,o),
(414,108,qs),
(414,115,ls),
(414,154,o),
(378,169,qs),
(124,272,l),
(401,381,ls)
);
}
);
userData = {
assembly = "PUSHB[ ]	/* 4 values pushed */
14 5 1 50 
CALL[ ]	/* CallFunction */";
};
width = 449;
}
);
note = less;
unicode = 60;
},
{
glyphname = equal;
layers = (
{
layerId = m01;
shapes = (
{
closed = 1;
nodes = (
(343,333,o),
(343,339,qs),
(343,344,ls),
(343,379,o),
(304,379,qs),
(45,379,ls),
(40,379,o),
(40,374,qs),
(40,339,ls),
(40,333,o),
(45,333,qs),
(338,333,ls)
);
},
{
closed = 1;
nodes = (
(343,159,o),
(343,165,qs),
(343,170,ls),
(343,206,o),
(304,206,qs),
(45,206,ls),
(40,206,o),
(40,200,qs),
(40,165,ls),
(40,159,o),
(45,159,qs),
(338,159,ls)
);
}
);
userData = {
assembly = "NPUSHB[ ]	/* 12 values pushed */
3 2 2 1 0 15 14 2 3 2 2 76 
MPPEM[ ]	/* MeasurePixelPerEm */
PUSHB[ ]	/* 1 value pushed */
10 
LT[ ]	/* LessThan */
IF[ ]	/* If */
NPUSHB[ ]	/* 20 values pushed */
0 2 5 1 3 2 3 99 4 1 1 1 0 95 0 0 0 42 1 78 
ELSE[ ]	/* Else */
MPPEM[ ]	/* MeasurePixelPerEm */
PUSHB[ ]	/* 1 value pushed */
12 
LT[ ]	/* LessThan */
IF[ ]	/* If */
NPUSHB[ ]	/* 26 values pushed */
0 0 4 1 1 2 0 1 103 0 2 3 3 2 87 0 2 2 3 95 5 1 3 2 3 79 
ELSE[ ]	/* Else */
MPPEM[ ]	/* MeasurePixelPerEm */
PUSHB[ ]	/* 1 value pushed */
21 
LT[ ]	/* LessThan */
IF[ ]	/* If */
NPUSHB[ ]	/* 20 values pushed */
0 2 5 1 3 2 3 99 4 1 1 1 0 95 0 0 0 42 1 78 
ELSE[ ]	/* Else */
NPUSHB[ ]	/* 26 values pushed */
0 0 4 1 1 2 0 1 103 0 2 3 3 2 87 0 2 2 3 95 5 1 3 2 3 79 
EIF[ ]	/* EndIf */
EIF[ ]	/* EndIf */
EIF[ ]	/* EndIf */
NPUSHB[ ]	/* 18 values pushed */
12 12 0 0 12 23 12 22 19 17 0 11 0 10 37 6 9 23 
CALL[ ]	/* CallFunction */";
};
width = 384;
}
);
note = equal;
unicode = 61;
},
{
glyphname = greater;
layers = (
{
layerId = m01;
shapes = (
{
closed = 1;
nodes = (
(36,154,o),
(36,115,qs),
(36,108,ls),
(36,99,o),
(43,102,qs),
(391,246,l),
(396,249,o),
(396,254,qs),
(396,287,ls),
(396,292,o),
(391,295,q),
(43,438,ls),
(36,441,o),
(36,433,qs),
(36,398,ls),
(36,387,o),
(50,381,qs),
(326,272,l),
(72,169,ls)
);
}
);
userData = {
assembly = "PUSHB[ ]	/* 4 values pushed */
14 5 1 50 
CALL[ ]	/* CallFunction */";
};
width = 449;
}
);
note = greater;
unicode = 62;
},
{
glyphname = question;
layers = (
{
layerId = m01;
shapes = (
{
closed = 1;
nodes = (
(175,135,o),
(176,141,qs),
(183,179,ls),
(187,204,o),
(202,221,o),
(239,246,qs),
(320,300,o),
(381,382,o),
(381,437,qs),
(381,492,o),
(345,527,qs),
(304,567,o),
(229,567,qs),
(170,567,o),
(64,522,o),
(64,497,qs),
(64,496,o),
(64,493,qs),
(66,477,ls),
(68,469,o),
(72,469,qs),
(77,469,o),
(84,473,qs),
(155,518,o),
(225,518,qs),
(328,518,o),
(328,433,qs),
(328,392,o),
(283,328,o),
(224,287,qs),
(146,233,o),
(137,183,qs),
(130,141,l),
(130,139,ls),
(130,135,o),
(134,135,qs),
(170,135,ls)
);
},
{
closed = 1;
nodes = (
(90,39,o),
(90,19,qs),
(90,5,o),
(112,-16,o),
(127,-16,qs),
(146,-16,o),
(174,14,o),
(174,33,qs),
(174,48,o),
(153,69,o),
(138,69,qs),
(119,69,o)
);
}
);
userData = {
assembly = "PUSHB[ ]	/* 6 values pushed */
18 1 1 0 1 76 
MPPEM[ ]	/* MeasurePixelPerEm */
PUSHB[ ]	/* 1 value pushed */
36 
LT[ ]	/* LessThan */
IF[ ]	/* If */
NPUSHB[ ]	/* 38 values pushed */
0 1 0 3 0 1 3 128 6 1 3 4 0 3 4 126 0 0 0 2 97 0 2 2 39 77 7 1 4 4 5 97 0 5 5 46 5 78 
ELSE[ ]	/* Else */
NPUSHB[ ]	/* 36 values pushed */
0 1 0 3 0 1 3 128 6 1 3 4 0 3 4 126 0 2 0 0 1 2 0 105 7 1 4 4 5 97 0 5 5 46 5 78 
EIF[ ]	/* EndIf */
NPUSHB[ ]	/* 20 values pushed */
38 37 0 0 44 42 37 48 38 48 0 36 0 35 38 34 42 8 9 25 
CALL[ ]	/* CallFunction */";
};
width = 388;
}
);
note = question;
unicode = 63;
},
{
glyphname = at;
layers = (
{
layerId = m01;
shapes = (
{
closed = 1;
nodes = (
(462,98,qs),
(462,72,o),
(502,38,o),
(532,38,qs),
(608,38,o),
(665,115,qs),
(730,203,o),
(730,332,qs),
(730,431,o),
(664,494,qs),
(587,568,o),
(446,568,qs),
(287,568,o),
(169,461,qs),
(34,337,o),
(34,154,qs),
(34,37,o),
(104,-38,qs),
(184,-124,o),
(325,-124,qs),
(416,-124,o),
(580,-56,o),
(580,-18,qs),
(580,-9,o),
(574,-9,qs),
(569,-9,o),
(560,-15,qs),
(468,-78,o),
(339,-78,qs),
(228,-78,o),
(162,-24,qs),
(86,37,o),
(86,154,qs),
(86,296,o),
(179,401,qs),
(287,523,o),
(448,523,qs),
(547,523,o),
(608,478,qs),
(678,426,o),
(678,330,qs),
(678,239,o),
(642,166,qs),
(600,83,o),
(542,83,qs),
(513,83,o),
(513,110,qs),
(513,122,o),
(525,162,qs),
(588,399,l),
(588,400,ls),
(588,404,o),
(584,404,qs),
(575,404,ls),
(539,404,o),
(524,354,q),
(484,413,o),
(408,413,qs),
(323,413,o),
(260,351,qs),
(188,280,o),
(188,176,qs),
(188,111,o),
(255,37,o),
(315,37,qs),
(409,37,o),
(463,106,q),
(462,101,o)
);
},
{
closed = 1;
nodes = (
(238,174,qs),
(238,247,o),
(280,302,qs),
(330,366,o),
(404,366,qs),
(450,366,o),
(501,319,o),
(501,277,qs),
(501,203,o),
(457,148,qs),
(405,85,o),
(328,85,qs),
(238,85,o)
);
}
);
userData = {
assembly = "PUSHB[ ]	/* 8 values pushed */
66 11 0 3 3 11 1 76 
MPPEM[ ]	/* MeasurePixelPerEm */
PUSHB[ ]	/* 1 value pushed */
34 
LT[ ]	/* LessThan */
IF[ ]	/* If */
NPUSHB[ ]	/* 53 values pushed */
0 2 1 11 1 2 11 128 0 6 0 5 0 6 5 128 0 1 0 11 3 1 11 105 12 10 2 3 9 1 0 6 3 0 106 0 5 0 7 5 7 101 0 4 4 8 97 0 8 8 39 4 78 
ELSE[ ]	/* Else */
NPUSHB[ ]	/* 59 values pushed */
0 2 1 11 1 2 11 128 0 6 0 5 0 6 5 128 0 8 0 4 1 8 4 105 0 1 0 11 3 1 11 105 12 10 2 3 9 1 0 6 3 0 106 0 5 7 7 5 89 0 5 5 7 97 0 7 5 7 81 
EIF[ ]	/* EndIf */
NPUSHB[ ]	/* 22 values pushed */
69 68 76 74 68 80 69 80 64 62 38 35 34 38 38 39 34 37 33 13 9 31 
CALL[ ]	/* CallFunction */";
};
width = 771;
}
);
note = at;
unicode = 64;
},
{
glyphname = A;
kernLeft = A;
kernRight = A;
layers = (
{
layerId = m01;
shapes = (
{
closed = 1;
nodes = (
(388,12,ls),
(390,0,o),
(401,0,qs),
(436,0,ls),
(441,0,o),
(441,5,qs),
(441,6,o),
(441,7,qs),
(332,521,ls),
(325,556,o),
(288,556,qs),
(283,556,ls),
(277,556,o),
(274,549,q),
(-34,7,ls),
(-35,5,o),
(-35,3,qs),
(-35,0,o),
(-30,0,qs),
(10,0,ls),
(21,0,o),
(27,12,qs),
(112,169,l),
(356,169,l)
);
},
{
closed = 1;
nodes = (
(346,216,l),
(139,216,l),
(291,493,l)
);
}
);
userData = {
assembly = "NPUSHB[ ]	/* 45 values pushed */
26 1 4 1 15 1 0 3 2 76 0 4 5 1 3 0 4 3 104 0 1 1 39 77 2 1 0 0 40 0 78 0 0 25 24 0 23 0 23 53 54 34 6 9 25 
CALL[ ]	/* CallFunction */";
};
width = 498;
}
);
note = A;
unicode = 65;
},
{
glyphname = B;
layers = (
{
layerId = m01;
shapes = (
{
closed = 1;
nodes = (
(454,377,o),
(454,435,qs),
(454,485,o),
(420,517,qs),
(380,554,o),
(310,554,qs),
(129,556,ls),
(124,556,o),
(123,549,qs),
(27,6,ls),
(27,5,o),
(27,4,qs),
(27,0,o),
(31,0,qs),
(235,0,ls),
(322,0,o),
(374,39,qs),
(434,84,o),
(434,169,qs),
(434,271,o),
(355,293,q),
(408,310,o)
);
},
{
closed = 1;
nodes = (
(281,271,ls),
(383,271,o),
(383,179,qs),
(383,47,o),
(233,47,qs),
(84,47,l),
(124,271,l)
);
},
{
closed = 1;
nodes = (
(310,508,ls),
(354,508,o),
(404,468,o),
(404,432,qs),
(404,379,o),
(343,317,o),
(291,317,qs),
(132,317,l),
(166,508,l)
);
}
);
userData = {
assembly = "NPUSHB[ ]	/* 38 values pushed */
0 4 0 3 2 4 3 103 0 5 5 1 95 0 1 1 39 77 0 2 2 0 95 0 0 0 40 0 78 36 33 34 38 54 37 6 9 28 
CALL[ ]	/* CallFunction */";
};
width = 486;
}
);
note = B;
unicode = 66;
},
{
glyphname = C;
kernLeft = C;
kernRight = C;
layers = (
{
layerId = m01;
shapes = (
{
closed = 1;
nodes = (
(520,496,o),
(520,502,qs),
(520,523,o),
(472,543,qs),
(417,567,o),
(357,567,qs),
(231,567,o),
(148,479,qs),
(53,378,o),
(53,208,qs),
(53,-11,o),
(258,-11,qs),
(355,-11,o),
(419,44,qs),
(462,81,o),
(462,113,qs),
(463,125,o),
(452,125,qs),
(446,125,o),
(440,118,qs),
(367,36,o),
(266,36,qs),
(192,36,o),
(150,74,qs),
(103,118,o),
(103,206,qs),
(103,337,o),
(164,422,qs),
(234,519,o),
(354,519,qs),
(427,519,o),
(477,481,qs),
(499,464,o),
(502,464,qs),
(507,464,o),
(511,473,qs),
(517,489,ls)
);
}
);
userData = {
assembly = "NPUSHB[ ]	/* 10 values pushed */
34 1 0 1 20 1 2 3 2 76 
MPPEM[ ]	/* MeasurePixelPerEm */
PUSHB[ ]	/* 1 value pushed */
36 
LT[ ]	/* LessThan */
IF[ ]	/* If */
NPUSHB[ ]	/* 36 values pushed */
0 0 1 3 1 0 3 128 0 3 2 1 3 2 126 0 1 1 5 97 0 5 5 39 77 0 2 2 4 97 0 4 4 46 4 78 
ELSE[ ]	/* Else */
NPUSHB[ ]	/* 34 values pushed */
0 0 1 3 1 0 3 128 0 3 2 1 3 2 126 0 5 0 1 0 5 1 105 0 2 2 4 97 0 4 4 46 4 78 
EIF[ ]	/* EndIf */
NPUSHB[ ]	/* 9 values pushed */
36 36 34 38 34 33 6 9 28 
CALL[ ]	/* CallFunction */";
};
width = 513;
}
);
note = C;
unicode = 67;
},
{
glyphname = D;
layers = (
{
layerId = m01;
shapes = (
{
closed = 1;
nodes = (
(371,0,o),
(448,119,qs),
(505,209,o),
(505,336,qs),
(505,441,o),
(457,494,qs),
(401,556,o),
(274,556,qs),
(129,556,ls),
(124,556,o),
(123,549,qs),
(27,6,ls),
(27,5,o),
(27,4,qs),
(27,0,o),
(31,0,qs),
(186,0,ls)
);
},
{
closed = 1;
nodes = (
(264,508,ls),
(455,508,o),
(455,343,qs),
(455,215,o),
(404,142,qs),
(338,47,o),
(194,47,qs),
(84,47,l),
(166,508,l)
);
}
);
userData = {
assembly = "NPUSHB[ ]	/* 36 values pushed */
0 3 3 0 95 0 0 0 39 77 0 2 2 1 95 4 1 1 1 40 1 78 0 0 25 23 19 17 0 16 0 15 54 5 9 23 
CALL[ ]	/* CallFunction */";
};
width = 553;
}
);
note = D;
unicode = 68;
},
{
glyphname = E;
kernRight = E;
layers = (
{
layerId = m01;
shapes = (
{
closed = 1;
nodes = (
(334,251,ls),
(341,251,o),
(343,257,q),
(345,269,ls),
(346,274,o),
(346,277,qs),
(346,298,o),
(320,298,qs),
(129,298,l),
(166,509,l),
(397,509,ls),
(405,509,o),
(406,516,qs),
(408,527,ls),
(409,531,o),
(409,535,qs),
(409,556,o),
(383,556,qs),
(129,556,ls),
(124,556,o),
(123,549,qs),
(27,6,ls),
(27,5,o),
(27,4,qs),
(27,3,ls),
(27,0,o),
(31,0,qs),
(317,0,ls),
(325,0,o),
(326,7,qs),
(328,18,ls),
(329,22,o),
(329,26,qs),
(329,47,o),
(303,47,qs),
(85,47,l),
(121,251,l)
);
}
);
userData = {
assembly = "NPUSHB[ ]	/* 52 values pushed */
20 1 3 2 30 1 5 4 3 1 1 0 3 76 0 4 0 5 0 4 5 103 0 3 3 2 95 0 2 2 39 77 0 0 0 1 95 0 1 1 40 1 78 37 33 37 55 37 32 6 9 28 
CALL[ ]	/* CallFunction */";
};
width = 404;
}
);
note = E;
unicode = 69;
},
{
glyphname = F;
layers = (
{
layerId = m01;
shapes = (
{
closed = 1;
nodes = (
(341,251,o),
(343,258,qs),
(345,270,ls),
(345,273,o),
(345,277,qs),
(345,298,o),
(320,298,qs),
(129,298,l),
(166,508,l),
(397,508,ls),
(405,508,o),
(406,516,qs),
(408,527,ls),
(409,531,o),
(409,535,qs),
(409,556,o),
(383,556,qs),
(129,556,ls),
(124,556,o),
(123,549,qs),
(27,6,ls),
(27,5,o),
(27,4,qs),
(27,0,o),
(31,0,qs),
(71,0,ls),
(76,0,o),
(77,6,qs),
(120,251,l),
(333,251,ls)
);
}
);
userData = {
assembly = "NPUSHB[ ]	/* 48 values pushed */
14 1 2 1 26 1 4 3 2 76 0 3 5 1 4 0 3 4 103 0 2 2 1 95 0 1 1 39 77 0 0 0 40 0 78 0 0 0 29 0 28 33 37 54 34 6 9 26 
CALL[ ]	/* CallFunction */";
};
width = 389;
}
);
note = F;
unicode = 70;
},
{
glyphname = G;
layers = (
{
layerId = m01;
shapes = (
{
closed = 1;
nodes = (
(266,36,qs),
(192,36,o),
(150,74,qs),
(102,118,o),
(102,206,qs),
(102,343,o),
(164,426,qs),
(232,519,o),
(355,519,qs),
(439,519,o),
(500,471,q),
(507,464,o),
(511,464,qs),
(517,464,o),
(520,473,qs),
(527,489,ls),
(530,496,o),
(530,502,qs),
(530,521,o),
(480,542,qs),
(420,567,o),
(357,567,qs),
(232,567,o),
(149,480,qs),
(53,380,o),
(53,213,qs),
(53,-11,o),
(256,-11,qs),
(381,-11,o),
(463,63,qs),
(476,75,o),
(479,97,qs),
(511,278,l),
(512,279,o),
(512,280,qs),
(512,284,o),
(507,284,qs),
(309,284,ls),
(301,284,o),
(299,277,q),
(298,267,ls),
(297,263,o),
(297,259,qs),
(297,238,o),
(323,238,qs),
(454,238,l),
(429,96,l),
(353,36,o)
);
}
);
userData = {
assembly = "NPUSHB[ ]	/* 10 values pushed */
29 1 4 5 4 1 0 1 2 76 
MPPEM[ ]	/* MeasurePixelPerEm */
PUSHB[ ]	/* 1 value pushed */
36 
LT[ ]	/* LessThan */
IF[ ]	/* If */
NPUSHB[ ]	/* 37 values pushed */
0 4 5 1 5 4 1 128 0 1 0 0 6 1 0 103 0 5 5 3 97 0 3 3 39 77 0 6 6 2 97 0 2 2 46 2 78 
ELSE[ ]	/* Else */
NPUSHB[ ]	/* 35 values pushed */
0 4 5 1 5 4 1 128 0 3 0 5 4 3 5 105 0 1 0 0 6 1 0 103 0 6 6 2 97 0 2 2 46 2 78 
EIF[ ]	/* EndIf */
NPUSHB[ ]	/* 10 values pushed */
38 34 39 36 40 37 33 7 9 29 
CALL[ ]	/* CallFunction */";
};
width = 564;
}
);
note = G;
unicode = 71;
},
{
glyphname = H;
layers = (
{
layerId = m01;
shapes = (
{
closed = 1;
nodes = (
(354,6,ls),
(354,5,o),
(354,4,qs),
(354,0,o),
(358,0,qs),
(398,0,ls),
(403,0,o),
(404,6,qs),
(491,503,l),
(493,510,o),
(493,517,qs),
(493,556,o),
(460,556,qs),
(456,556,ls),
(451,556,o),
(450,549,qs),
(405,298,l),
(129,298,l),
(165,503,ls),
(166,509,o),
(166,517,qs),
(166,556,o),
(134,556,qs),
(129,556,ls),
(124,556,o),
(123,549,qs),
(27,6,ls),
(27,5,o),
(27,4,qs),
(27,0,o),
(31,0,qs),
(71,0,ls),
(76,0,o),
(77,6,qs),
(121,252,l),
(397,252,l)
);
}
);
userData = {
assembly = "NPUSHB[ ]	/* 36 values pushed */
0 2 6 1 5 0 2 5 104 3 1 1 1 39 77 4 1 0 0 40 0 78 0 0 0 35 0 35 37 50 20 54 34 7 9 27 
CALL[ ]	/* CallFunction */";
};
width = 522;
}
);
note = H;
unicode = 72;
},
{
glyphname = I;
kernRight = I;
layers = (
{
layerId = m01;
shapes = (
{
closed = 1;
nodes = (
(77,0,o),
(78,6,qs),
(166,504,ls),
(167,511,o),
(167,517,qs),
(167,556,o),
(134,556,qs),
(129,556,ls),
(124,556,o),
(123,549,qs),
(27,6,ls),
(27,5,o),
(27,4,qs),
(27,3,ls),
(27,0,o),
(31,0,qs),
(72,0,ls)
);
}
);
userData = {
assembly = "NPUSHB[ ]	/* 28 values pushed */
11 1 1 0 1 76 0 0 0 39 77 2 1 1 1 40 1 78 0 0 0 16 0 15 55 3 9 23 
CALL[ ]	/* CallFunction */";
};
width = 196;
}
);
note = I;
unicode = 73;
},
{
glyphname = J;
layers = (
{
layerId = m01;
shapes = (
{
closed = 1;
nodes = (
(253,510,o),
(253,517,qs),
(253,556,o),
(220,556,qs),
(216,556,ls),
(211,556,o),
(210,549,qs),
(130,96,ls),
(125,69,o),
(85,35,o),
(57,35,qs),
(35,35,o),
(-2,61,o),
(-9,81,qs),
(-11,87,o),
(-15,87,qs),
(-27,87,o),
(-27,64,qs),
(-27,32,o),
(21,-10,o),
(57,-10,qs),
(161,-10,o),
(182,108,qs),
(252,503,ls)
);
}
);
userData = {
assembly = "NPUSHB[ ]	/* 31 values pushed */
0 1 3 2 3 1 2 128 0 3 3 39 77 0 2 2 0 97 0 0 0 46 0 78 52 36 19 33 4 9 26 
CALL[ ]	/* CallFunction */";
};
width = 280;
}
);
note = J;
unicode = 74;
},
{
glyphname = K;
layers = (
{
layerId = m01;
shapes = (
{
closed = 1;
nodes = (
(489,550,o),
(489,552,qs),
(489,556,o),
(486,556,qs),
(442,556,ls),
(432,556,o),
(423,547,qs),
(120,248,l),
(165,503,ls),
(166,509,o),
(166,517,qs),
(166,556,o),
(134,556,qs),
(129,556,ls),
(124,556,o),
(123,549,qs),
(27,6,ls),
(27,5,o),
(27,4,qs),
(27,0,o),
(31,0,qs),
(71,0,ls),
(76,0,o),
(77,6,qs),
(107,178,l),
(228,295,l),
(355,10,ls),
(359,0,o),
(370,0,qs),
(406,0,ls),
(413,0,o),
(413,6,qs),
(413,7,o),
(413,8,q),
(265,331,l),
(488,548,l)
);
}
);
userData = {
assembly = "NPUSHB[ ]	/* 28 values pushed */
27 9 1 3 0 2 1 76 3 1 2 2 39 77 1 1 0 0 40 0 78 38 54 37 52 4 9 26 
CALL[ ]	/* CallFunction */";
};
width = 473;
}
);
note = K;
unicode = 75;
},
{
glyphname = L;
layers = (
{
layerId = m01;
shapes = (
{
closed = 1;
nodes = (
(166,509,o),
(166,517,qs),
(166,556,o),
(134,556,qs),
(129,556,ls),
(124,556,o),
(123,549,qs),
(27,6,ls),
(27,5,o),
(27,4,qs),
(27,0,o),
(31,0,qs),
(286,0,ls),
(294,0,o),
(295,7,qs),
(297,18,ls),
(298,22,o),
(298,26,qs),
(298,47,o),
(272,47,qs),
(84,47,l),
(165,503,ls)
);
}
);
userData = {
assembly = "NPUSHB[ ]	/* 28 values pushed */
3 1 1 0 1 76 0 2 2 39 77 0 0 0 1 95 0 1 1 40 1 78 54 37 32 3 9 25 
CALL[ ]	/* CallFunction */";
};
width = 362;
}
);
note = L;
unicode = 76;
},
{
glyphname = M;
layers = (
{
layerId = m01;
shapes = (
{
closed = 1;
nodes = (
(184,539,o),
(166,556,o),
(144,556,qs),
(139,556,ls),
(133,556,o),
(132,549,qs),
(7,6,ls),
(7,5,o),
(7,4,qs),
(7,0,o),
(11,0,qs),
(51,0,ls),
(56,0,o),
(57,6,qs),
(155,427,l),
(229,7,ls),
(230,0,o),
(234,0,qs),
(269,0,ls),
(276,0,o),
(280,7,qs),
(508,434,l),
(455,6,ls),
(455,5,o),
(455,4,qs),
(455,3,ls),
(455,0,o),
(459,0,qs),
(500,0,ls),
(505,0,o),
(506,6,qs),
(566,508,l),
(567,510,o),
(566,515,qs),
(566,517,ls),
(566,556,o),
(527,556,qs),
(524,556,ls),
(519,556,o),
(516,549,qs),
(263,65,l),
(188,516,ls)
);
}
);
userData = {
assembly = "NPUSHB[ ]	/* 30 values pushed */
26 19 6 3 1 0 1 76 4 1 0 0 39 77 3 2 2 1 1 40 1 78 54 37 40 38 50 5 9 27 
CALL[ ]	/* CallFunction */";
};
width = 604;
}
);
note = M;
unicode = 77;
},
{
glyphname = N;
kernRight = N;
layers = (
{
layerId = m01;
shapes = (
{
closed = 1;
nodes = (
(172,541,o),
(155,556,o),
(134,556,qs),
(129,556,ls),
(124,556,o),
(123,549,qs),
(27,6,ls),
(27,5,o),
(27,3,qs),
(27,0,o),
(31,0,qs),
(72,0,ls),
(77,0,o),
(78,6,qs),
(157,454,l),
(344,13,ls),
(349,0,o),
(364,0,qs),
(398,0,ls),
(403,0,o),
(404,6,qs),
(492,504,ls),
(493,510,o),
(493,518,qs),
(493,556,o),
(461,556,qs),
(456,556,ls),
(451,556,o),
(450,549,qs),
(367,80,l),
(183,515,ls)
);
}
);
userData = {
assembly = "NPUSHB[ ]	/* 26 values pushed */
15 1 1 0 1 76 3 1 0 0 39 77 2 1 1 1 40 1 78 54 36 53 50 4 9 26 
CALL[ ]	/* CallFunction */";
};
width = 522;
}
);
note = N;
unicode = 78;
},
{
glyphname = O;
kernLeft = O;
kernRight = O;
layers = (
{
layerId = m01;
shapes = (
{
closed = 1;
nodes = (
(471,90,qs),
(550,192,o),
(550,351,qs),
(549,442,o),
(500,500,qs),
(444,567,o),
(342,567,qs),
(213,567,o),
(133,465,qs),
(52,361,o),
(52,204,qs),
(53,113,o),
(102,56,qs),
(160,-10,o),
(263,-10,qs),
(394,-10,o)
);
},
{
closed = 1;
nodes = (
(107,116,o),
(103,190,qs),
(98,306,o),
(147,398,qs),
(211,520,o),
(338,520,qs),
(400,520,o),
(441,490,qs),
(499,447,o),
(499,354,qs),
(500,237,o),
(454,153,qs),
(392,38,o),
(267,37,qs),
(192,37,o)
);
}
);
userData = {
assembly = "MPPEM[ ]	/* MeasurePixelPerEm */
PUSHB[ ]	/* 1 value pushed */
36 
LT[ ]	/* LessThan */
IF[ ]	/* If */
NPUSHB[ ]	/* 23 values pushed */
0 3 3 1 97 0 1 1 39 77 5 1 2 2 0 97 4 1 0 0 46 0 78 
ELSE[ ]	/* Else */
NPUSHB[ ]	/* 21 values pushed */
0 1 0 3 2 1 3 105 5 1 2 2 0 97 4 1 0 0 46 0 78 
EIF[ ]	/* EndIf */
NPUSHB[ ]	/* 19 values pushed */
17 16 1 0 25 23 16 30 17 30 9 7 0 15 1 15 6 9 22 
CALL[ ]	/* CallFunction */";
};
width = 597;
}
);
note = O;
unicode = 79;
},
{
glyphname = P;
layers = (
{
layerId = m01;
shapes = (
{
closed = 1;
nodes = (
(345,215,o),
(403,260,qs),
(473,313,o),
(473,408,qs),
(473,469,o),
(437,508,qs),
(393,556,o),
(314,556,qs),
(129,556,ls),
(124,556,o),
(123,549,qs),
(27,6,ls),
(27,5,o),
(27,4,qs),
(27,0,o),
(31,0,qs),
(71,0,ls),
(76,0,o),
(77,6,qs),
(114,215,l),
(260,215,ls)
);
},
{
closed = 1;
nodes = (
(314,508,ls),
(363,508,o),
(421,454,o),
(421,407,qs),
(421,345,o),
(383,306,qs),
(340,262,o),
(266,262,qs),
(122,262,l),
(166,508,l)
);
}
);
userData = {
assembly = "NPUSHB[ ]	/* 40 values pushed */
0 3 5 1 2 0 3 2 103 0 4 4 1 95 0 1 1 39 77 0 0 0 40 0 78 0 0 30 28 23 21 0 20 0 19 54 34 6 9 24 
CALL[ ]	/* CallFunction */";
};
width = 484;
}
);
note = P;
unicode = 80;
},
{
glyphname = Q;
layers = (
{
layerId = m01;
shapes = (
{
closed = 1;
nodes = (
(245,-106,o),
(341,-106,qs),
(399,-106,o),
(487,-51,o),
(487,-13,qs),
(487,-5,o),
(478,-5,qs),
(472,-5,o),
(453,-21,qs),
(406,-61,o),
(357,-61,qs),
(298,-60,o),
(283,-9,q),
(372,-4,o),
(437,54,qs),
(505,114,o),
(533,219,qs),
(547,271,o),
(550,351,qs),
(549,442,o),
(500,500,qs),
(444,567,o),
(342,567,qs),
(213,567,o),
(133,465,qs),
(52,361,o),
(52,204,qs),
(55,117,o),
(96,64,qs),
(143,2,o),
(227,-8,q),
(227,-9,ls)
);
},
{
closed = 1;
nodes = (
(107,116,o),
(103,190,qs),
(98,306,o),
(147,398,qs),
(211,520,o),
(338,520,qs),
(400,520,o),
(441,490,qs),
(499,447,o),
(499,354,qs),
(500,237,o),
(454,153,qs),
(392,38,o),
(267,37,qs),
(192,37,o)
);
}
);
userData = {
assembly = "MPPEM[ ]	/* MeasurePixelPerEm */
PUSHB[ ]	/* 1 value pushed */
36 
LT[ ]	/* LessThan */
IF[ ]	/* If */
NPUSHB[ ]	/* 37 values pushed */
0 3 5 1 5 3 1 128 0 2 0 4 2 4 101 0 6 6 0 97 0 0 0 39 77 7 1 5 5 1 97 0 1 1 49 1 78 
ELSE[ ]	/* Else */
NPUSHB[ ]	/* 35 values pushed */
0 3 5 1 5 3 1 128 0 0 0 6 5 0 6 105 0 2 0 4 2 4 101 7 1 5 5 1 97 0 1 1 49 1 78 
EIF[ ]	/* EndIf */
NPUSHB[ ]	/* 16 values pushed */
33 32 41 39 32 46 33 46 35 34 33 24 39 8 9 27 
CALL[ ]	/* CallFunction */";
};
width = 597;
}
);
note = Q;
unicode = 81;
},
{
glyphname = R;
layers = (
{
layerId = m01;
shapes = (
{
closed = 1;
nodes = (
(354,10,ls),
(358,0,o),
(370,0,qs),
(405,0,ls),
(411,0,o),
(411,5,qs),
(411,6,o),
(410,7,q),
(323,222,l),
(474,263,o),
(474,410,qs),
(474,470,o),
(439,509,qs),
(397,556,o),
(314,556,qs),
(129,556,ls),
(124,556,o),
(123,549,qs),
(27,6,ls),
(27,5,o),
(27,4,qs),
(27,0,o),
(31,0,qs),
(71,0,ls),
(76,0,o),
(77,6,qs),
(114,215,l),
(271,215,l)
);
},
{
closed = 1;
nodes = (
(316,508,ls),
(365,508,o),
(423,455,o),
(423,409,qs),
(423,345,o),
(385,306,qs),
(343,262,o),
(266,262,qs),
(122,262,l),
(166,508,l)
);
}
);
userData = {
assembly = "NPUSHB[ ]	/* 48 values pushed */
18 1 3 4 1 76 0 4 6 1 3 0 4 3 103 0 5 5 1 95 0 1 1 39 77 2 1 0 0 40 0 78 0 0 37 35 30 28 0 27 0 27 57 54 34 7 9 25 
CALL[ ]	/* CallFunction */";
};
width = 496;
}
);
note = R;
unicode = 82;
},
{
glyphname = S;
kernLeft = S;
kernRight = S;
layers = (
{
layerId = m01;
shapes = (
{
closed = 1;
nodes = (
(407,470,q),
(413,465,o),
(416,465,qs),
(422,465,o),
(425,473,qs),
(432,490,ls),
(434,497,o),
(434,502,qs),
(434,520,o),
(388,541,qs),
(330,567,o),
(271,567,qs),
(185,567,o),
(129,525,qs),
(66,478,o),
(66,402,qs),
(67,356,o),
(131,295,o),
(214,263,qs),
(278,237,o),
(333,187,o),
(333,153,qs),
(333,104,o),
(297,72,qs),
(254,36,o),
(178,36,qs),
(65,36,o),
(24,117,qs),
(19,127,o),
(12,127,qs),
(-4,127,o),
(-4,99,qs),
(-4,57,o),
(47,24,qs),
(106,-15,o),
(174,-11,qs),
(278,-6,o),
(328,30,qs),
(386,71,o),
(386,165,qs),
(386,210,o),
(318,276,o),
(241,306,qs),
(172,332,o),
(118,377,o),
(118,409,qs),
(118,453,o),
(154,484,qs),
(196,520,o),
(261,520,qs),
(342,520,o),
(405,471,qs),
(406,470,o)
);
}
);
userData = {
assembly = "PUSHB[ ]	/* 6 values pushed */
44 1 5 0 1 76 
MPPEM[ ]	/* MeasurePixelPerEm */
PUSHB[ ]	/* 1 value pushed */
36 
LT[ ]	/* LessThan */
IF[ ]	/* If */
NPUSHB[ ]	/* 36 values pushed */
0 5 0 2 0 5 2 128 0 2 3 0 2 3 126 0 0 0 4 97 0 4 4 39 77 0 3 3 1 97 0 1 1 46 1 78 
ELSE[ ]	/* Else */
NPUSHB[ ]	/* 34 values pushed */
0 5 0 2 0 5 2 128 0 2 3 0 2 3 126 0 4 0 0 5 4 0 105 0 3 3 1 97 0 1 1 46 1 78 
EIF[ ]	/* EndIf */
NPUSHB[ ]	/* 9 values pushed */
39 44 34 36 44 33 6 9 28 
CALL[ ]	/* CallFunction */";
};
width = 437;
}
);
note = S;
unicode = 83;
},
{
glyphname = T;
layers = (
{
layerId = m01;
shapes = (
{
closed = 1;
nodes = (
(129,5,o),
(129,4,qs),
(129,0,o),
(133,0,qs),
(173,0,ls),
(178,0,o),
(179,6,qs),
(268,508,l),
(419,508,ls),
(427,508,o),
(428,516,qs),
(430,527,ls),
(431,530,o),
(431,535,qs),
(431,556,o),
(405,556,qs),
(73,556,ls),
(68,556,o),
(67,549,qs),
(61,514,ls),
(61,513,o),
(61,512,qs),
(61,508,o),
(65,508,qs),
(218,508,l),
(129,6,ls)
);
}
);
userData = {
assembly = "NPUSHB[ ]	/* 31 values pushed */
11 3 2 0 1 1 76 2 1 0 0 1 95 0 1 1 39 77 0 3 3 40 3 78 34 37 54 16 4 9 26 
CALL[ ]	/* CallFunction */";
};
width = 401;
}
);
note = T;
unicode = 84;
},
{
glyphname = U;
kernLeft = U;
kernRight = U;
layers = (
{
layerId = m01;
shapes = (
{
closed = 1;
nodes = (
(491,510,o),
(491,517,qs),
(491,556,o),
(458,556,qs),
(454,556,ls),
(450,556,o),
(448,549,q),
(387,202,ls),
(358,37,o),
(222,37,qs),
(104,37,o),
(104,145,qs),
(104,173,o),
(109,201,qs),
(162,504,ls),
(163,511,o),
(163,517,qs),
(163,556,o),
(130,556,qs),
(125,556,ls),
(120,556,o),
(119,549,qs),
(59,208,ls),
(54,177,o),
(53,149,qs),
(52,78,o),
(90,36,qs),
(132,-10,o),
(214,-10,qs),
(399,-10,o),
(433,184,qs),
(490,504,ls)
);
}
);
userData = {
assembly = "NPUSHB[ ]	/* 30 values pushed */
14 1 2 1 1 76 3 1 1 1 39 77 0 2 2 0 97 0 0 0 46 0 78 51 39 55 33 4 9 26 
CALL[ ]	/* CallFunction */";
};
width = 516;
}
);
note = U;
unicode = 85;
},
{
glyphname = V;
layers = (
{
layerId = m01;
shapes = (
{
closed = 1;
nodes = (
(119,556,o),
(91,556,qs),
(75,556,ls),
(68,556,o),
(68,550,qs),
(68,548,l),
(160,6,ls),
(161,0,o),
(166,0,qs),
(206,0,ls),
(211,0,o),
(216,6,q),
(497,548,l),
(498,551,o),
(498,552,qs),
(499,556,o),
(494,556,qs),
(456,556,ls),
(445,556,o),
(439,543,qs),
(196,59,l),
(124,524,ls)
);
}
);
userData = {
assembly = "NPUSHB[ ]	/* 24 values pushed */
15 1 1 0 1 76 2 1 0 0 39 77 0 1 1 40 1 78 53 38 34 3 9 25 
CALL[ ]	/* CallFunction */";
};
width = 462;
}
);
note = V;
unicode = 86;
},
{
glyphname = W;
layers = (
{
layerId = m01;
shapes = (
{
closed = 1;
nodes = (
(129,556,o),
(99,556,qs),
(86,556,ls),
(80,556,o),
(80,549,qs),
(80,548,l),
(131,6,ls),
(132,0,o),
(138,0,qs),
(180,0,ls),
(186,0,o),
(189,6,qs),
(408,478,l),
(469,6,ls),
(470,0,o),
(475,0,qs),
(512,0,ls),
(518,0,o),
(521,6,qs),
(765,548,l),
(765,550,o),
(766,552,q),
(766,556,o),
(762,556,qs),
(727,556,ls),
(715,556,o),
(709,543,qs),
(502,70,l),
(444,524,ls),
(441,556,o),
(416,556,qs),
(407,556,ls),
(396,556,o),
(390,543,qs),
(173,70,l),
(132,524,ls)
);
}
);
userData = {
assembly = "NPUSHB[ ]	/* 30 values pushed */
29 22 7 3 2 0 1 76 4 1 2 0 0 39 77 3 1 2 2 40 2 78 53 37 38 36 50 5 9 27 
CALL[ ]	/* CallFunction */";
};
width = 742;
}
);
note = W;
unicode = 87;
},
{
glyphname = X;
layers = (
{
layerId = m01;
shapes = (
{
closed = 1;
nodes = (
(137,556,o),
(111,556,qs),
(95,556,ls),
(89,556,o),
(88,551,qs),
(88,549,o),
(89,548,q),
(211,295,l),
(-29,7,ls),
(-31,5,o),
(-31,3,qs),
(-31,0,o),
(-27,0,qs),
(13,0,ls),
(23,0,o),
(33,12,qs),
(231,253,l),
(348,12,ls),
(354,0,o),
(364,0,qs),
(399,0,ls),
(405,0,o),
(405,4,qs),
(405,6,o),
(405,7,q),
(269,285,l),
(482,548,ls),
(484,551,o),
(484,553,qs),
(484,556,o),
(479,556,qs),
(440,556,ls),
(429,556,o),
(420,543,q),
(248,328,l),
(152,526,ls)
);
}
);
userData = {
assembly = "NPUSHB[ ]	/* 30 values pushed */
28 27 18 10 9 5 1 0 1 76 3 1 0 0 39 77 2 1 1 1 40 1 78 57 36 57 34 4 9 26 
CALL[ ]	/* CallFunction */";
};
width = 459;
}
);
note = X;
unicode = 88;
},
{
glyphname = Y;
kernLeft = Y;
kernRight = Y;
layers = (
{
layerId = m01;
shapes = (
{
closed = 1;
nodes = (
(142,5,o),
(142,3,qs),
(142,0,o),
(146,0,qs),
(186,0,ls),
(191,0,o),
(192,6,qs),
(229,219,l),
(467,547,l),
(469,549,o),
(469,552,qs),
(469,556,o),
(462,556,qs),
(426,556,ls),
(415,556,o),
(407,543,q),
(212,274,l),
(123,513,ls),
(107,556,o),
(74,556,qs),
(62,556,ls),
(57,556,o),
(56,551,qs),
(56,550,o),
(57,548,qs),
(180,219,l),
(142,6,ls)
);
}
);
userData = {
assembly = "NPUSHB[ ]	/* 25 values pushed */
9 1 2 2 0 1 76 1 1 0 0 39 77 0 2 2 40 2 78 38 52 52 3 9 25 
CALL[ ]	/* CallFunction */";
};
width = 422;
}
);
note = Y;
unicode = 89;
},
{
glyphname = Z;
kernLeft = Z;
kernRight = Z;
layers = (
{
layerId = m01;
shapes = (
{
closed = 1;
nodes = (
(446,488,o),
(449,504,qs),
(450,514,ls),
(451,519,o),
(451,523,qs),
(451,556,o),
(409,556,qs),
(103,556,ls),
(98,556,o),
(97,549,qs),
(91,515,l),
(91,514,l),
(90,513,o),
(90,512,qs),
(90,509,o),
(95,509,qs),
(399,509,l),
(14,64,ls),
(1,49,o),
(-3,30,qs),
(-7,6,ls),
(-7,5,o),
(-7,4,qs),
(-7,0,o),
(-3,0,qs),
(353,0,ls),
(361,0,o),
(362,7,qs),
(364,18,l),
(364,22,o),
(364,26,qs),
(364,47,o),
(339,47,qs),
(60,47,l),
(429,468,ls)
);
}
);
userData = {
assembly = "NPUSHB[ ]	/* 39 values pushed */
29 20 2 2 3 5 1 1 0 2 76 0 2 2 3 95 0 3 3 39 77 0 0 0 1 95 0 1 1 40 1 78 55 24 37 32 4 9 26 
CALL[ ]	/* CallFunction */";
};
width = 448;
}
);
note = Z;
unicode = 90;
},
{
glyphname = bracketleft;
layers = (
{
layerId = m01;
shapes = (
{
closed = 1;
nodes = (
(167,-130,o),
(167,-128,qs),
(167,-101,o),
(133,-101,qs),
(76,-101,ls),
(57,-101,o),
(57,-82,qs),
(57,-80,o),
(58,-77,q),
(182,628,ls),
(186,652,o),
(209,652,qs),
(266,652,ls),
(305,652,o),
(311,686,q),
(311,689,ls),
(311,690,o),
(311,691,qs),
(311,696,o),
(305,696,qs),
(204,696,ls),
(178,696,o),
(141,665,o),
(136,639,qs),
(8,-88,ls),
(7,-94,o),
(7,-99,qs),
(7,-119,o),
(34,-144,o),
(56,-144,qs),
(156,-144,ls),
(164,-144,o),
(165,-137,qs),
(166,-134,ls)
);
}
);
userData = {
assembly = "NPUSHB[ ]	/* 46 values pushed */
15 1 2 1 24 6 2 3 2 31 1 0 3 3 76 0 1 0 2 3 1 2 103 0 3 0 0 3 87 0 3 3 0 95 0 0 3 0 79 53 54 39 49 4 9 26 
CALL[ ]	/* CallFunction */";
};
width = 289;
}
);
note = bracketleft;
unicode = 91;
},
{
glyphname = backslash;
layers = (
{
layerId = m01;
shapes = (
{
closed = 1;
nodes = (
(236,0,o),
(236,2,qs),
(236,3,o),
(235,6,qs),
(111,513,ls),
(100,556,o),
(61,556,qs),
(56,556,ls),
(51,556,o),
(51,551,qs),
(51,549,o),
(51,548,qs),
(184,6,ls),
(186,0,o),
(191,0,qs),
(232,0,ls)
);
}
);
userData = {
assembly = "NPUSHB[ ]	/* 28 values pushed */
3 1 1 0 1 76 0 0 0 39 77 2 1 1 1 40 1 78 0 0 0 15 0 14 54 3 9 23 
CALL[ ]	/* CallFunction */";
};
width = 283;
}
);
note = backslash;
unicode = 92;
},
{
glyphname = bracketright;
layers = (
{
layerId = m01;
shapes = (
{
closed = 1;
nodes = (
(286,646,o),
(286,651,qs),
(286,671,o),
(259,696,o),
(237,696,qs),
(137,696,ls),
(129,696,o),
(128,689,qs),
(127,686,l),
(127,683,o),
(127,680,qs),
(127,652,o),
(160,652,qs),
(217,652,ls),
(236,652,o),
(236,634,qs),
(236,631,o),
(236,628,q),
(111,-77,ls),
(107,-101,o),
(84,-101,qs),
(28,-101,ls),
(-11,-101,o),
(-17,-134,qs),
(-18,-137,l),
(-18,-139,o),
(-18,-140,qs),
(-18,-144,o),
(-11,-144,qs),
(89,-144,ls),
(143,-144,o),
(157,-88,q),
(285,639,ls)
);
}
);
userData = {
assembly = "NPUSHB[ ]	/* 46 values pushed */
21 1 2 3 30 14 2 1 2 7 1 0 1 3 76 0 3 0 2 1 3 2 103 0 1 0 0 1 89 0 1 1 0 95 0 0 1 0 79 53 53 53 49 4 9 26 
CALL[ ]	/* CallFunction */";
};
width = 289;
}
);
note = bracketright;
unicode = 93;
},
{
glyphname = asciicircum;
layers = (
{
layerId = m01;
shapes = (
{
closed = 1;
nodes = (
(329,274,o),
(340,274,qs),
(374,274,ls),
(380,274,o),
(378,279,qs),
(251,517,ls),
(230,556,o),
(193,556,qs),
(183,556,o),
(177,546,qs),
(35,279,ls),
(32,274,o),
(39,274,qs),
(73,274,ls),
(84,274,o),
(89,283,qs),
(207,503,l),
(324,283,ls)
);
}
);
userData = {
assembly = "PUSHB[ ]	/* 2 values pushed */
6 100 
WCVTP[ ]	/* WriteCVTInPixels */
NPUSHB[ ]	/* 16 values pushed */
0 1 0 1 133 2 1 0 0 118 51 35 50 3 9 25 
CALL[ ]	/* CallFunction */
PUSHB[ ]	/* 2 values pushed */
6 0 
WCVTP[ ]	/* WriteCVTInPixels */";
};
width = 403;
}
);
note = asciicircum;
unicode = 94;
},
{
glyphname = underscore;
layers = (
{
layerId = m01;
shapes = (
{
closed = 1;
nodes = (
(339,-178,o),
(340,-172,qs),
(346,-139,ls),
(346,-138,o),
(346,-137,qs),
(346,-133,o),
(342,-133,qs),
(-74,-133,ls),
(-79,-133,o),
(-80,-139,qs),
(-86,-172,l),
(-86,-173,l),
(-86,-174,ls),
(-86,-178,o),
(-82,-178,qs),
(334,-178,ls)
);
}
);
userData = {
assembly = "PUSHB[ ]	/* 2 values pushed */
6 100 
WCVTP[ ]	/* WriteCVTInPixels */
NPUSHB[ ]	/* 34 values pushed */
10 2 2 1 0 1 76 0 0 1 1 0 87 0 0 0 1 95 2 1 1 0 1 79 0 0 0 15 0 14 38 3 9 23 
CALL[ ]	/* CallFunction */
PUSHB[ ]	/* 2 values pushed */
6 0 
WCVTP[ ]	/* WriteCVTInPixels */";
};
width = 409;
}
);
note = underscore;
unicode = 95;
},
{
glyphname = grave;
layers = (
{
layerId = m01;
shapes = (
{
closed = 1;
nodes = (
(101,502,o),
(91,502,qs),
(46,502,ls),
(41,502,o),
(41,498,qs),
(41,497,o),
(42,496,qs),
(104,440,ls),
(114,431,o),
(126,431,qs),
(159,431,ls),
(163,431,o),
(163,435,q),
(162,436,l),
(109,493,ls)
);
}
);
userData = {
assembly = "PUSHB[ ]	/* 2 values pushed */
6 100 
WCVTP[ ]	/* WriteCVTInPixels */
NPUSHB[ ]	/* 14 values pushed */
0 1 0 1 133 0 0 0 118 53 35 2 9 24 
CALL[ ]	/* CallFunction */
PUSHB[ ]	/* 2 values pushed */
6 0 
WCVTP[ ]	/* WriteCVTInPixels */";
};
width = 139;
}
);
note = grave;
unicode = 96;
},
{
glyphname = a;
kernLeft = a;
kernRight = a;
layers = (
{
layerId = m01;
shapes = (
{
closed = 1;
nodes = (
(298,5,o),
(298,4,qs),
(298,0,o),
(302,0,qs),
(343,0,ls),
(348,0,o),
(349,6,qs),
(410,354,l),
(411,356,o),
(410,357,q),
(410,360,o),
(406,360,qs),
(401,360,ls),
(362,360,o),
(351,304,q),
(307,367,o),
(221,367,qs),
(138,367,o),
(85,315,qs),
(25,255,o),
(25,154,qs),
(25,76,o),
(100,-9,o),
(168,-9,qs),
(254,-9,o),
(307,57,q),
(298,6,ls)
);
},
{
closed = 1;
nodes = (
(76,99,o),
(76,150,qs),
(76,220,o),
(110,265,qs),
(150,320,o),
(222,320,qs),
(273,320,o),
(332,265,o),
(332,217,qs),
(332,144,o),
(294,94,qs),
(250,38,o),
(175,38,qs),
(130,38,o)
);
}
);
userData = {
assembly = "NPUSHB[ ]	/* 10 values pushed */
11 1 4 5 24 1 3 4 2 76 
MPPEM[ ]	/* MeasurePixelPerEm */
PUSHB[ ]	/* 1 value pushed */
27 
LT[ ]	/* LessThan */
IF[ ]	/* If */
NPUSHB[ ]	/* 28 values pushed */
0 5 5 1 97 2 1 1 1 48 77 0 3 3 40 77 6 1 4 4 0 97 0 0 0 49 0 78 
ELSE[ ]	/* Else */
NPUSHB[ ]	/* 32 values pushed */
0 2 2 42 77 0 5 5 1 97 0 1 1 48 77 0 3 3 40 77 6 1 4 4 0 97 0 0 0 49 0 78 
EIF[ ]	/* EndIf */
NPUSHB[ ]	/* 15 values pushed */
28 27 35 33 27 40 28 40 37 50 37 33 7 9 26 
CALL[ ]	/* CallFunction */";
};
width = 454;
}
);
note = a;
unicode = 97;
},
{
glyphname = b;
layers = (
{
layerId = m01;
shapes = (
{
closed = 1;
nodes = (
(192,-9,qs),
(274,-9,o),
(332,48,qs),
(399,113,o),
(399,217,qs),
(399,279,o),
(365,320,qs),
(327,367,o),
(258,367,qs),
(170,367,o),
(116,302,q),
(152,503,ls),
(153,510,o),
(153,517,qs),
(153,556,o),
(121,556,qs),
(116,556,ls),
(111,556,o),
(110,549,qs),
(14,6,ls),
(14,5,o),
(14,4,qs),
(14,0,o),
(18,0,qs),
(58,0,ls),
(63,0,o),
(64,6,qs),
(73,56,l),
(111,-9,o)
);
},
{
closed = 1;
nodes = (
(91,92,o),
(91,141,qs),
(91,213,o),
(130,262,qs),
(174,320,o),
(246,320,qs),
(294,320,o),
(347,264,o),
(347,213,qs),
(347,145,o),
(309,96,qs),
(264,38,o),
(196,38,qs),
(147,38,o)
);
}
);
userData = {
assembly = "NPUSHB[ ]	/* 53 values pushed */
17 1 4 5 1 76 0 1 1 39 77 0 5 5 2 97 0 2 2 48 77 0 0 0 40 77 6 1 4 4 3 97 0 3 3 49 3 78 30 29 37 35 29 42 30 42 38 37 54 34 7 9 26 
CALL[ ]	/* CallFunction */";
};
width = 454;
}
);
note = b;
unicode = 98;
},
{
glyphname = c;
kernLeft = c;
kernRight = c;
layers = (
{
layerId = m01;
shapes = (
{
closed = 1;
nodes = (
(323,292,qs),
(327,292,o),
(329,298,qs),
(336,313,ls),
(339,320,o),
(339,326,qs),
(339,343,o),
(276,367,o),
(232,367,qs),
(134,367,o),
(79,307,qs),
(24,246,o),
(24,137,qs),
(24,78,o),
(58,39,qs),
(99,-10,o),
(174,-10,qs),
(225,-10,o),
(306,44,o),
(306,79,qs),
(306,89,o),
(299,89,qs),
(294,89,o),
(287,82,qs),
(243,37,o),
(182,37,qs),
(133,37,o),
(76,93,o),
(76,141,qs),
(76,213,o),
(108,260,qs),
(148,320,o),
(230,320,qs),
(276,320,o),
(317,294,q),
(318,294,l),
(321,292,o)
);
}
);
userData = {
assembly = "NPUSHB[ ]	/* 43 values pushed */
30 1 0 4 1 76 0 2 0 1 0 2 1 128 0 0 0 4 97 0 4 4 48 77 0 1 1 3 97 0 3 3 46 3 78 38 35 34 37 34 5 9 27 
CALL[ ]	/* CallFunction */";
};
width = 362;
}
);
note = c;
unicode = 99;
},
{
glyphname = d;
layers = (
{
layerId = m01;
shapes = (
{
closed = 1;
nodes = (
(224,367,qs),
(142,367,o),
(88,314,qs),
(25,253,o),
(25,151,qs),
(25,89,o),
(62,44,qs),
(106,-9,o),
(175,-9,qs),
(259,-9,o),
(307,51,q),
(300,6,l),
(299,4,o),
(299,3,qs),
(299,0,o),
(303,0,qs),
(343,0,ls),
(348,0,o),
(349,6,qs),
(437,503,ls),
(438,510,o),
(438,517,qs),
(438,556,o),
(405,556,qs),
(401,556,ls),
(396,556,o),
(395,549,qs),
(351,299,l),
(308,367,o)
);
},
{
closed = 1;
nodes = (
(75,101,o),
(75,150,qs),
(76,219,o),
(112,266,qs),
(154,320,o),
(222,320,qs),
(273,320,o),
(332,264,o),
(332,217,qs),
(332,143,o),
(297,95,qs),
(255,38,o),
(182,38,qs),
(136,38,o)
);
}
);
userData = {
assembly = "NPUSHB[ ]	/* 57 values pushed */
17 1 4 5 14 1 1 4 2 76 0 0 0 39 77 0 5 5 3 97 0 3 3 48 77 0 1 1 40 77 6 1 4 4 2 97 0 2 2 49 2 78 30 29 37 35 29 42 30 42 38 38 37 50 7 9 26 
CALL[ ]	/* CallFunction */";
};
width = 454;
}
);
note = d;
unicode = 100;
},
{
glyphname = e;
kernLeft = e;
kernRight = e;
layers = (
{
layerId = m01;
shapes = (
{
closed = 1;
nodes = (
(345,160,o),
(349,176,qs),
(357,206,o),
(357,241,qs),
(357,292,o),
(325,326,qs),
(286,367,o),
(222,367,qs),
(135,367,o),
(83,310,qs),
(25,246,o),
(25,134,qs),
(25,77,o),
(61,38,qs),
(104,-9,o),
(174,-9,qs),
(242,-9,o),
(328,42,o),
(328,83,qs),
(328,92,o),
(322,92,qs),
(317,92,o),
(310,85,qs),
(263,37,o),
(186,37,qs),
(138,37,o),
(79,88,o),
(75,134,qs),
(74,145,o),
(76,160,q),
(332,160,ls)
);
},
{
closed = 1;
nodes = (
(217,321,qs),
(259,321,o),
(307,277,o),
(307,238,qs),
(307,227,o),
(303,203,q),
(84,203,l),
(117,321,o)
);
}
);
userData = {
assembly = "NPUSHB[ ]	/* 55 values pushed */
0 1 4 0 4 1 0 128 0 5 7 1 4 1 5 4 103 0 6 6 3 97 0 3 3 48 77 0 0 0 2 97 0 2 2 49 2 78 0 0 38 36 32 31 0 30 0 29 38 35 34 36 8 9 26 
CALL[ ]	/* CallFunction */";
};
width = 406;
}
);
note = e;
unicode = 101;
},
{
glyphname = f;
kernLeft = f;
layers = (
{
layerId = m01;
shapes = (
{
closed = 1;
nodes = (
(39,5,o),
(39,4,qs),
(39,0,o),
(43,0,qs),
(83,0,ls),
(87,0,o),
(88,6,qs),
(143,315,l),
(232,315,ls),
(237,315,o),
(238,321,qs),
(244,354,ls),
(244,355,o),
(244,356,qs),
(244,360,o),
(240,360,qs),
(151,360,l),
(169,461,ls),
(178,516,o),
(220,516,qs),
(233,516,o),
(265,500,o),
(271,489,qs),
(274,485,o),
(277,485,qs),
(287,485,o),
(287,501,qs),
(287,528,o),
(251,560,o),
(220,562,qs),
(181,563,o),
(128,511,o),
(120,464,qs),
(101,360,l),
(38,360,ls),
(33,360,o),
(32,354,qs),
(26,321,ls),
(26,320,o),
(26,319,qs),
(26,315,o),
(30,315,qs),
(93,315,l),
(39,6,ls)
);
}
);
userData = {
assembly = "NPUSHB[ ]	/* 54 values pushed */
29 3 2 0 1 1 76 0 3 4 1 4 3 1 128 0 4 4 2 97 0 2 2 39 77 6 1 0 0 1 95 5 1 1 1 42 77 0 7 7 40 7 78 34 38 18 36 19 35 38 16 8 9 30 
CALL[ ]	/* CallFunction */";
};
width = 268;
}
);
note = f;
unicode = 102;
},
{
glyphname = g;
layers = (
{
layerId = m01;
shapes = (
{
closed = 1;
nodes = (
(277,-121,o),
(143,-121,qs),
(103,-121,o),
(34,-94,o),
(21,-73,qs),
(18,-67,o),
(14,-67,qs),
(2,-67,o),
(3,-87,qs),
(4,-127,o),
(77,-171,o),
(140,-171,qs),
(318,-171,o),
(349,7,qs),
(410,354,l),
(410,355,l),
(411,356,o),
(411,357,qs),
(411,359,o),
(406,359,qs),
(401,359,ls),
(363,359,o),
(352,305,q),
(309,367,o),
(230,367,qs),
(148,367,o),
(91,311,qs),
(25,247,o),
(25,145,qs),
(25,82,o),
(57,41,qs),
(96,-9,o),
(168,-9,qs),
(255,-9,o),
(309,57,q),
(300,7,ls)
);
},
{
closed = 1;
nodes = (
(75,97,o),
(76,150,qs),
(76,218,o),
(115,266,qs),
(160,320,o),
(229,320,qs),
(278,320,o),
(332,266,o),
(332,217,qs),
(332,145,o),
(291,95,qs),
(246,38,o),
(176,38,qs),
(129,38,o)
);
}
);
userData = {
assembly = "PUSHB[ ]	/* 6 values pushed */
12 1 6 7 1 76 
MPPEM[ ]	/* MeasurePixelPerEm */
PUSHB[ ]	/* 1 value pushed */
23 
LT[ ]	/* LessThan */
IF[ ]	/* If */
NPUSHB[ ]	/* 41 values pushed */
0 4 0 5 0 4 5 128 0 7 7 1 97 2 1 1 1 48 77 8 1 6 6 0 97 0 0 0 49 77 0 5 5 3 97 0 3 3 44 3 78 
ELSE[ ]	/* Else */
NPUSHB[ ]	/* 45 values pushed */
0 4 0 5 0 4 5 128 0 2 2 42 77 0 7 7 1 97 0 1 1 48 77 8 1 6 6 0 97 0 0 0 49 77 0 5 5 3 97 0 3 3 44 3 78 
EIF[ ]	/* EndIf */
NPUSHB[ ]	/* 17 values pushed */
37 36 44 42 36 49 37 49 36 19 38 50 38 33 9 9 28 
CALL[ ]	/* CallFunction */";
};
width = 454;
}
);
note = g;
unicode = 103;
},
{
glyphname = h;
layers = (
{
layerId = m01;
shapes = (
{
closed = 1;
nodes = (
(153,510,o),
(153,517,qs),
(153,556,o),
(121,556,qs),
(116,556,ls),
(111,556,o),
(110,549,qs),
(14,6,ls),
(14,5,o),
(14,4,qs),
(14,0,o),
(18,0,qs),
(58,0,ls),
(63,0,o),
(64,6,qs),
(97,193,ls),
(120,320,o),
(233,320,qs),
(322,320,o),
(322,234,qs),
(322,217,o),
(319,200,qs),
(285,6,ls),
(285,5,o),
(285,4,qs),
(285,0,o),
(289,0,qs),
(329,0,ls),
(334,0,o),
(335,6,qs),
(372,215,ls),
(375,232,o),
(374,247,q),
(375,301,o),
(306,367,o),
(250,367,qs),
(164,367,o),
(117,307,q),
(152,503,ls)
);
}
);
userData = {
assembly = "NPUSHB[ ]	/* 30 values pushed */
0 4 4 39 77 0 2 2 0 97 0 0 0 48 77 3 1 1 1 40 1 78 54 35 40 38 33 5 9 27 
CALL[ ]	/* CallFunction */";
};
width = 439;
}
);
note = h;
unicode = 104;
},
{
glyphname = i;
kernLeft = i;
kernRight = i;
layers = (
{
layerId = m01;
shapes = (
{
closed = 1;
nodes = (
(63,0,o),
(64,6,qs),
(118,308,ls),
(119,314,o),
(119,321,qs),
(119,360,o),
(85,360,qs),
(82,360,ls),
(77,360,o),
(76,354,qs),
(14,6,ls),
(14,5,o),
(14,4,qs),
(14,0,o),
(18,0,qs),
(58,0,ls)
);
},
{
closed = 1;
nodes = (
(104,426,o),
(116,426,qs),
(132,426,o),
(154,448,o),
(154,464,qs),
(154,475,o),
(137,492,o),
(124,492,qs),
(109,492,o),
(87,469,o),
(87,453,qs),
(87,442,o)
);
}
);
userData = {
assembly = "NPUSHB[ ]	/* 34 values pushed */
0 2 0 3 0 2 3 105 0 0 0 42 77 4 1 1 1 40 1 78 0 0 26 24 20 18 0 15 0 14 54 5 9 23 
CALL[ ]	/* CallFunction */";
};
width = 170;
}
);
note = i;
unicode = 105;
},
{
glyphname = j;
layers = (
{
layerId = m01;
shapes = (
{
closed = 1;
nodes = (
(-98,-92,q),
(-102,-90,o),
(-104,-90,qs),
(-113,-90,o),
(-113,-106,qs),
(-113,-135,o),
(-75,-171,o),
(-44,-171,qs),
(-1,-171,o),
(41,-125,o),
(51,-67,qs),
(117,308,ls),
(118,315,o),
(118,321,qs),
(118,359,o),
(86,359,qs),
(81,359,ls),
(76,359,o),
(75,354,qs),
(2,-61,ls),
(-9,-124,o),
(-50,-124,qs),
(-79,-124,o),
(-96,-93,q),
(-97,-92,o)
);
},
{
closed = 1;
nodes = (
(104,426,o),
(116,426,qs),
(131,426,o),
(153,449,o),
(153,464,qs),
(153,475,o),
(135,492,o),
(123,492,qs),
(108,492,o),
(86,469,o),
(86,453,qs),
(86,442,o)
);
}
);
userData = {
assembly = "NPUSHB[ ]	/* 47 values pushed */
10 1 3 1 1 76 0 3 1 0 1 3 0 128 0 4 0 5 1 4 5 105 0 1 1 42 77 0 0 0 2 97 0 2 2 44 2 78 36 38 19 38 36 33 6 9 28 
CALL[ ]	/* CallFunction */";
};
width = 170;
}
);
note = j;
unicode = 106;
},
{
glyphname = k;
layers = (
{
layerId = m01;
shapes = (
{
closed = 1;
nodes = (
(337,355,o),
(338,356,q),
(338,359,o),
(334,359,qs),
(285,359,ls),
(274,359,o),
(264,351,qs),
(100,207,l),
(152,503,ls),
(153,510,o),
(153,517,qs),
(153,556,o),
(121,556,qs),
(116,556,ls),
(111,556,o),
(110,549,qs),
(14,6,ls),
(14,5,o),
(14,4,qs),
(14,0,o),
(18,0,qs),
(58,0,ls),
(63,0,o),
(64,6,qs),
(89,148,l),
(150,198,l),
(235,10,ls),
(239,0,o),
(251,0,qs),
(289,0,ls),
(294,0,o),
(293,4,qs),
(293,6,l),
(188,230,l),
(336,354,ls)
);
}
);
userData = {
assembly = "NPUSHB[ ]	/* 31 values pushed */
26 8 2 0 3 1 76 0 2 2 39 77 0 3 3 42 77 1 1 0 0 40 0 78 38 54 37 51 4 9 26 
CALL[ ]	/* CallFunction */";
};
width = 354;
}
);
note = k;
unicode = 107;
},
{
glyphname = l;
kernRight = l;
layers = (
{
layerId = m01;
shapes = (
{
closed = 1;
nodes = (
(153,510,o),
(153,518,qs),
(153,556,o),
(121,556,qs),
(116,556,ls),
(111,556,o),
(110,549,qs),
(29,89,ls),
(26,73,o),
(26,59,qs),
(26,-9,o),
(93,-9,qs),
(130,-9,o),
(183,35,o),
(183,67,qs),
(183,77,o),
(176,77,qs),
(174,77,o),
(169,72,qs),
(143,49,o),
(128,41,o),
(111,41,qs),
(78,41,o),
(78,75,qs),
(78,80,o),
(79,92,q),
(152,504,ls)
);
}
);
userData = {
assembly = "NPUSHB[ ]	/* 31 values pushed */
0 1 3 0 3 1 0 128 0 3 3 39 77 0 0 0 2 97 0 2 2 49 2 78 53 35 35 35 4 9 26 
CALL[ ]	/* CallFunction */";
};
width = 220;
}
);
note = l;
unicode = 108;
},
{
glyphname = m;
layers = (
{
layerId = m01;
shapes = (
{
closed = 1;
nodes = (
(119,321,q),
(118,360,o),
(87,360,qs),
(82,360,ls),
(77,360,o),
(76,354,qs),
(14,6,ls),
(14,5,o),
(14,4,qs),
(14,0,o),
(18,0,qs),
(58,0,ls),
(63,0,o),
(64,6,qs),
(97,193,ls),
(120,320,o),
(230,320,qs),
(317,320,o),
(317,235,qs),
(317,217,o),
(313,200,qs),
(279,6,l),
(279,5,ls),
(279,4,o),
(279,3,qs),
(279,0,o),
(283,0,qs),
(323,0,ls),
(328,0,o),
(329,6,qs),
(362,193,ls),
(384,320,o),
(494,320,qs),
(581,320,o),
(581,235,qs),
(581,217,o),
(578,200,qs),
(544,6,l),
(543,5,o),
(543,4,qs),
(543,0,o),
(548,0,qs),
(588,0,ls),
(593,0,o),
(594,6,qs),
(631,215,ls),
(633,231,o),
(633,248,qs),
(633,302,o),
(565,367,o),
(507,367,qs),
(414,367,o),
(356,297,q),
(324,367,o),
(247,367,qs),
(164,367,o),
(117,307,q),
(118,315,o)
);
}
);
userData = {
assembly = "MPPEM[ ]	/* MeasurePixelPerEm */
PUSHB[ ]	/* 1 value pushed */
27 
LT[ ]	/* LessThan */
IF[ ]	/* If */
NPUSHB[ ]	/* 11 values pushed */
56 1 3 0 4 0 2 2 3 2 76 
ELSE[ ]	/* Else */
NPUSHB[ ]	/* 11 values pushed */
56 1 3 7 4 0 2 2 3 2 76 
EIF[ ]	/* EndIf */
MPPEM[ ]	/* MeasurePixelPerEm */
PUSHB[ ]	/* 1 value pushed */
27 
LT[ ]	/* LessThan */
IF[ ]	/* If */
NPUSHB[ ]	/* 21 values pushed */
5 1 3 3 0 97 7 1 2 0 0 48 77 6 4 2 2 2 40 2 78 
ELSE[ ]	/* Else */
NPUSHB[ ]	/* 25 values pushed */
0 7 7 42 77 5 1 3 3 0 97 1 1 0 0 48 77 6 4 2 2 2 40 2 78 
EIF[ ]	/* EndIf */
NPUSHB[ ]	/* 11 values pushed */
54 35 41 35 40 38 34 33 8 9 30 
CALL[ ]	/* CallFunction */";
};
width = 697;
}
);
note = m;
unicode = 109;
},
{
glyphname = n;
kernLeft = n;
kernRight = n;
layers = (
{
layerId = m01;
shapes = (
{
closed = 1;
nodes = (
(120,321,qs),
(120,360,o),
(87,360,qs),
(82,360,ls),
(77,360,o),
(76,354,qs),
(14,6,ls),
(14,5,o),
(14,4,qs),
(14,0,o),
(18,0,qs),
(58,0,ls),
(63,0,o),
(64,6,qs),
(97,193,ls),
(120,320,o),
(232,320,qs),
(322,320,o),
(322,234,qs),
(322,217,o),
(319,200,qs),
(285,6,ls),
(285,5,o),
(285,4,qs),
(285,0,o),
(289,0,qs),
(329,0,ls),
(334,0,o),
(335,6,qs),
(372,214,ls),
(375,231,o),
(375,247,qs),
(375,302,o),
(307,367,o),
(250,367,qs),
(166,367,o),
(119,307,q),
(120,316,o)
);
}
);
userData = {
assembly = "MPPEM[ ]	/* MeasurePixelPerEm */
PUSHB[ ]	/* 1 value pushed */
27 
LT[ ]	/* LessThan */
IF[ ]	/* If */
NPUSHB[ ]	/* 10 values pushed */
36 1 2 0 0 1 1 2 2 76 
ELSE[ ]	/* Else */
NPUSHB[ ]	/* 10 values pushed */
36 1 2 4 0 1 1 2 2 76 
EIF[ ]	/* EndIf */
MPPEM[ ]	/* MeasurePixelPerEm */
PUSHB[ ]	/* 1 value pushed */
27 
LT[ ]	/* LessThan */
IF[ ]	/* If */
NPUSHB[ ]	/* 18 values pushed */
0 2 2 0 97 4 1 0 0 48 77 3 1 1 1 40 1 78 
ELSE[ ]	/* Else */
NPUSHB[ ]	/* 22 values pushed */
0 4 4 42 77 0 2 2 0 97 0 0 0 48 77 3 1 1 1 40 1 78 
EIF[ ]	/* EndIf */
PUSHB[ ]	/* 8 values pushed */
54 35 40 38 33 5 9 27 
CALL[ ]	/* CallFunction */";
};
width = 439;
}
);
note = n;
unicode = 110;
},
{
glyphname = o;
kernLeft = o;
kernRight = o;
layers = (
{
layerId = m01;
shapes = (
{
closed = 1;
nodes = (
(328,46,qs),
(388,106,o),
(392,205,qs),
(394,270,o),
(354,315,qs),
(308,367,o),
(230,367,qs),
(144,367,o),
(89,307,qs),
(28,241,o),
(30,140,qs),
(31,79,o),
(71,38,qs),
(116,-9,o),
(189,-9,qs),
(274,-9,o)
);
},
{
closed = 1;
nodes = (
(83,92,o),
(81,138,qs),
(79,203,o),
(113,255,qs),
(155,320,o),
(228,320,qs),
(278,320,o),
(340,260,o),
(340,212,qs),
(341,146,o),
(307,98,qs),
(264,38,o),
(190,38,qs),
(143,38,o)
);
}
);
userData = {
assembly = "NPUSHB[ ]	/* 42 values pushed */
0 3 3 1 97 0 1 1 48 77 5 1 2 2 0 97 4 1 0 0 49 0 78 17 16 1 0 24 22 16 29 17 29 9 7 0 15 1 15 6 9 22 
CALL[ ]	/* CallFunction */";
};
width = 443;
}
);
note = o;
unicode = 111;
},
{
glyphname = p;
layers = (
{
layerId = m01;
shapes = (
{
closed = 1;
nodes = (
(198,-9,qs),
(279,-9,o),
(335,48,qs),
(399,113,o),
(399,217,qs),
(399,279,o),
(366,320,qs),
(327,367,o),
(258,367,qs),
(169,367,o),
(117,304,q),
(118,308,ls),
(119,315,o),
(119,322,qs),
(119,360,o),
(87,360,qs),
(82,360,ls),
(77,360,o),
(76,354,qs),
(-14,-154,ls),
(-14,-155,o),
(-14,-156,qs),
(-14,-160,o),
(-10,-160,qs),
(30,-160,ls),
(35,-160,o),
(36,-154,qs),
(74,58,l),
(113,-9,o)
);
},
{
closed = 1;
nodes = (
(92,94,o),
(92,142,qs),
(92,213,o),
(130,263,qs),
(175,320,o),
(246,320,qs),
(294,320,o),
(347,264,o),
(348,213,qs),
(347,146,o),
(309,96,qs),
(264,38,o),
(198,38,qs),
(149,38,o)
);
}
);
userData = {
assembly = "PUSHB[ ]	/* 6 values pushed */
16 1 4 5 1 76 
MPPEM[ ]	/* MeasurePixelPerEm */
PUSHB[ ]	/* 1 value pushed */
27 
LT[ ]	/* LessThan */
IF[ ]	/* If */
NPUSHB[ ]	/* 28 values pushed */
0 5 5 1 97 2 1 1 1 42 77 6 1 4 4 3 98 0 3 3 49 77 0 0 0 44 0 78 
ELSE[ ]	/* Else */
MPPEM[ ]	/* MeasurePixelPerEm */
PUSHB[ ]	/* 1 value pushed */
36 
LT[ ]	/* LessThan */
IF[ ]	/* If */
NPUSHB[ ]	/* 32 values pushed */
0 1 1 42 77 0 5 5 2 97 0 2 2 48 77 6 1 4 4 3 98 0 3 3 49 77 0 0 0 44 0 78 
ELSE[ ]	/* Else */
NPUSHB[ ]	/* 32 values pushed */
0 0 3 0 134 0 1 1 42 77 0 5 5 2 97 0 2 2 48 77 6 1 4 4 3 98 0 3 3 49 3 78 
EIF[ ]	/* EndIf */
EIF[ ]	/* EndIf */
NPUSHB[ ]	/* 15 values pushed */
30 29 37 35 29 42 30 42 38 37 54 34 7 9 26 
CALL[ ]	/* CallFunction */";
};
width = 454;
}
);
note = p;
unicode = 112;
},
{
glyphname = q;
layers = (
{
layerId = m01;
shapes = (
{
closed = 1;
nodes = (
(271,-155,ls),
(271,-156,o),
(271,-157,qs),
(271,-160,o),
(275,-160,qs),
(315,-160,ls),
(319,-160,o),
(321,-154,q),
(410,354,l),
(411,356,o),
(410,357,q),
(410,360,o),
(406,360,qs),
(401,360,ls),
(364,360,o),
(351,301,q),
(306,367,o),
(230,367,qs),
(147,367,o),
(89,308,qs),
(25,242,o),
(25,139,qs),
(25,77,o),
(61,37,qs),
(103,-9,o),
(172,-9,qs),
(258,-9,o),
(308,53,q),
(271,-154,l)
);
},
{
closed = 1;
nodes = (
(75,94,o),
(75,144,qs),
(75,212,o),
(115,262,qs),
(160,320,o),
(229,320,qs),
(278,320,o),
(332,266,o),
(332,217,qs),
(332,144,o),
(294,95,qs),
(249,38,o),
(176,38,qs),
(129,38,o)
);
}
);
userData = {
assembly = "PUSHB[ ]	/* 6 values pushed */
12 1 4 5 1 76 
MPPEM[ ]	/* MeasurePixelPerEm */
PUSHB[ ]	/* 1 value pushed */
27 
LT[ ]	/* LessThan */
IF[ ]	/* If */
NPUSHB[ ]	/* 28 values pushed */
0 5 5 1 97 2 1 1 1 48 77 6 1 4 4 0 97 0 0 0 49 77 0 3 3 44 3 78 
ELSE[ ]	/* Else */
MPPEM[ ]	/* MeasurePixelPerEm */
PUSHB[ ]	/* 1 value pushed */
36 
LT[ ]	/* LessThan */
IF[ ]	/* If */
NPUSHB[ ]	/* 32 values pushed */
0 2 2 42 77 0 5 5 1 97 0 1 1 48 77 6 1 4 4 0 97 0 0 0 49 77 0 3 3 44 3 78 
ELSE[ ]	/* Else */
NPUSHB[ ]	/* 32 values pushed */
0 3 0 3 134 0 2 2 42 77 0 5 5 1 97 0 1 1 48 77 6 1 4 4 0 97 0 0 0 49 0 78 
EIF[ ]	/* EndIf */
EIF[ ]	/* EndIf */
NPUSHB[ ]	/* 15 values pushed */
30 29 37 35 29 42 30 42 37 50 38 33 7 9 26 
CALL[ ]	/* CallFunction */";
};
width = 454;
}
);
note = q;
unicode = 113;
},
{
glyphname = r;
kernLeft = r;
layers = (
{
layerId = m01;
shapes = (
{
closed = 1;
nodes = (
(119,323,qs),
(119,360,o),
(87,360,qs),
(82,360,ls),
(77,360,o),
(76,354,qs),
(14,6,ls),
(14,5,o),
(14,4,qs),
(14,0,o),
(18,0,qs),
(58,0,ls),
(63,0,o),
(64,6,qs),
(97,192,ls),
(118,309,o),
(218,309,qs),
(238,309,ls),
(243,309,o),
(244,316,qs),
(251,354,ls),
(251,355,o),
(251,356,qs),
(251,357,ls),
(251,360,o),
(247,360,qs),
(237,360,ls),
(156,360,o),
(118,309,q),
(119,319,o)
);
}
);
userData = {
assembly = "NPUSHB[ ]	/* 36 values pushed */
28 5 2 1 0 1 76 0 1 1 1 75 0 1 1 0 97 3 1 0 0 42 77 0 2 2 40 2 78 54 35 55 33 4 9 26 
CALL[ ]	/* CallFunction */";
};
width = 267;
}
);
note = r;
unicode = 114;
},
{
glyphname = s;
kernLeft = s;
layers = (
{
layerId = m01;
shapes = (
{
closed = 1;
nodes = (
(279,321,o),
(279,326,qs),
(279,342,o),
(210,367,o),
(167,367,qs),
(104,367,o),
(32,307,o),
(32,256,qs),
(32,198,o),
(130,162,qs),
(204,134,o),
(204,101,qs),
(204,72,o),
(150,36,o),
(107,36,qs),
(35,36,o),
(12,82,qs),
(9,88,o),
(4,88,qs),
(-9,88,o),
(-9,66,qs),
(-9,30,o),
(56,-11,o),
(112,-11,qs),
(178,-11,o),
(255,54,o),
(255,110,qs),
(255,171,o),
(155,207,qs),
(83,233,o),
(83,265,qs),
(83,289,o),
(130,320,o),
(167,320,qs),
(222,320,o),
(257,293,qs),
(260,291,o),
(262,291,qs),
(265,291,o),
(268,297,qs),
(275,312,ls)
);
}
);
userData = {
assembly = "NPUSHB[ ]	/* 43 values pushed */
38 1 0 4 1 76 0 2 0 3 0 2 3 128 0 0 0 4 97 0 4 4 48 77 0 3 3 1 97 0 1 1 46 1 78 40 35 19 40 37 5 9 27 
CALL[ ]	/* CallFunction */";
};
width = 309;
}
);
note = s;
unicode = 115;
},
{
glyphname = t;
layers = (
{
layerId = m01;
shapes = (
{
closed = 1;
nodes = (
(46,4,o),
(46,2,qs),
(46,0,o),
(50,0,qs),
(90,0,ls),
(95,0,o),
(97,6,q),
(151,315,l),
(225,315,ls),
(230,315,o),
(231,321,qs),
(237,354,ls),
(237,355,o),
(237,357,qs),
(237,360,o),
(233,360,qs),
(159,360,l),
(173,439,ls),
(174,446,o),
(174,453,qs),
(174,491,o),
(141,491,qs),
(136,491,ls),
(132,491,o),
(131,484,qs),
(109,360,l),
(41,360,ls),
(36,360,o),
(35,354,qs),
(29,321,ls),
(29,319,o),
(29,318,qs),
(29,315,o),
(33,315,qs),
(101,315,l),
(47,6,l)
);
}
);
userData = {
assembly = "NPUSHB[ ]	/* 39 values pushed */
21 3 2 0 1 1 76 0 2 1 2 133 4 1 0 0 1 95 3 1 1 1 42 77 0 5 5 40 5 78 34 38 20 50 38 16 6 9 28 
CALL[ ]	/* CallFunction */";
};
width = 249;
}
);
note = t;
unicode = 116;
},
{
glyphname = u;
kernLeft = u;
kernRight = u;
layers = (
{
layerId = m01;
shapes = (
{
closed = 1;
nodes = (
(373,315,o),
(373,322,qs),
(373,360,o),
(340,360,qs),
(336,360,ls),
(331,360,o),
(330,354,qs),
(294,153,ls),
(274,36,o),
(171,36,qs),
(87,36,o),
(87,120,qs),
(87,137,o),
(91,156,qs),
(117,308,l),
(119,315,o),
(119,322,qs),
(119,360,o),
(85,360,qs),
(80,360,ls),
(76,360,o),
(75,354,qs),
(42,169,ls),
(38,144,o),
(38,121,qs),
(37,58,o),
(102,-10,o),
(163,-10,qs),
(242,-10,o),
(329,65,o),
(343,146,qs),
(372,308,ls)
);
}
);
userData = {
assembly = "NPUSHB[ ]	/* 24 values pushed */
3 1 1 1 42 77 0 2 2 0 98 0 0 0 46 0 78 51 39 54 34 4 9 26 
CALL[ ]	/* CallFunction */";
};
width = 423;
}
);
note = u;
unicode = 117;
},
{
glyphname = v;
layers = (
{
layerId = m01;
shapes = (
{
closed = 1;
nodes = (
(84,360,o),
(52,360,qs),
(40,360,ls),
(34,360,o),
(34,356,qs),
(34,355,l),
(34,354,l),
(95,5,ls),
(96,0,o),
(101,0,qs),
(136,0,ls),
(141,0,o),
(144,5,qs),
(327,354,ls),
(328,356,o),
(328,357,qs),
(328,360,o),
(324,360,qs),
(288,360,ls),
(276,360,o),
(270,350,qs),
(128,70,l),
(90,321,ls)
);
}
);
userData = {
assembly = "NPUSHB[ ]	/* 18 values pushed */
2 1 0 0 42 77 0 1 1 40 1 78 39 38 34 3 9 25 
CALL[ ]	/* CallFunction */";
};
width = 329;
}
);
note = v;
unicode = 118;
},
{
glyphname = w;
layers = (
{
layerId = m01;
shapes = (
{
closed = 1;
nodes = (
(91,360,o),
(56,360,qs),
(45,360,ls),
(40,360,o),
(40,356,qs),
(40,354,l),
(86,5,ls),
(87,0,o),
(93,0,qs),
(127,0,ls),
(132,0,o),
(135,5,qs),
(280,291,l),
(324,5,l),
(324,0,o),
(329,0,qs),
(363,0,ls),
(369,0,o),
(371,5,qs),
(543,354,ls),
(544,356,o),
(544,357,qs),
(544,360,o),
(540,360,qs),
(505,360,ls),
(492,360,o),
(487,350,qs),
(358,72,l),
(320,319,ls),
(313,360,o),
(283,360,qs),
(274,360,ls),
(266,360,o),
(263,353,qs),
(122,72,l),
(95,321,ls)
);
}
);
userData = {
assembly = "NPUSHB[ ]	/* 29 values pushed */
22 7 2 2 0 1 76 4 1 2 0 0 42 77 3 1 2 2 40 2 78 38 37 38 36 50 5 9 27 
CALL[ ]	/* CallFunction */";
};
width = 551;
}
);
note = w;
unicode = 119;
},
{
glyphname = x;
layers = (
{
layerId = m01;
shapes = (
{
closed = 1;
nodes = (
(97,360,o),
(67,360,qs),
(51,360,ls),
(46,360,o),
(46,357,qs),
(46,355,o),
(46,354,q),
(126,197,l),
(-32,6,l),
(-33,4,o),
(-33,2,qs),
(-33,0,o),
(-29,0,qs),
(12,0,ls),
(21,0,o),
(29,10,qs),
(147,156,l),
(221,10,ls),
(226,0,o),
(235,0,qs),
(270,0,ls),
(275,0,o),
(275,4,qs),
(275,5,o),
(275,6,q),
(181,190,l),
(314,354,ls),
(316,357,o),
(316,358,qs),
(316,360,o),
(313,360,qs),
(276,360,ls),
(263,360,o),
(255,349,qs),
(160,231,l),
(117,316,ls)
);
}
);
userData = {
assembly = "NPUSHB[ ]	/* 28 values pushed */
27 18 9 3 1 0 1 76 3 1 0 0 42 77 2 1 1 1 40 1 78 42 36 42 34 4 9 26 
CALL[ ]	/* CallFunction */";
};
width = 336;
}
);
note = x;
unicode = 120;
},
{
glyphname = y;
kernLeft = y;
kernRight = y;
layers = (
{
layerId = m01;
shapes = (
{
closed = 1;
nodes = (
(56,-62,qs),
(35,-95,o),
(23,-108,qs),
(8,-124,o),
(-16,-125,qs),
(-39,-125,o),
(-55,-104,qs),
(-64,-93,o),
(-68,-93,qs),
(-80,-93,o),
(-80,-115,qs),
(-80,-138,o),
(-44,-171,o),
(-17,-171,qs),
(23,-171,o),
(80,-112,o),
(129,-19,qs),
(326,354,l),
(327,355,o),
(327,357,qs),
(327,360,o),
(323,360,qs),
(286,360,ls),
(274,360,o),
(269,350,qs),
(124,63,l),
(88,320,ls),
(83,360,o),
(51,360,qs),
(38,360,ls),
(33,360,o),
(33,355,qs),
(33,354,l),
(91,-1,l),
(71,-37,o)
);
}
);
userData = {
assembly = "NPUSHB[ ]	/* 39 values pushed */
8 1 3 0 1 76 0 3 0 4 0 3 4 128 1 1 0 0 42 77 0 4 4 2 97 0 2 2 44 2 78 35 19 39 36 36 5 9 27 
CALL[ ]	/* CallFunction */";
};
width = 329;
}
);
note = y;
unicode = 121;
},
{
glyphname = z;
kernLeft = z;
kernRight = z;
layers = (
{
layerId = m01;
shapes = (
{
closed = 1;
nodes = (
(297,298,o),
(297,331,qs),
(297,360,o),
(257,360,qs),
(61,360,ls),
(56,360,o),
(54,354,q),
(49,321,l),
(48,320,o),
(49,318,q),
(49,315,o),
(53,315,qs),
(250,315,l),
(12,62,ls),
(-4,45,o),
(-6,36,qs),
(-11,6,l),
(-11,5,ls),
(-11,4,o),
(-11,3,qs),
(-11,0,o),
(-7,0,qs),
(233,0,ls),
(238,0,o),
(239,6,qs),
(245,39,ls),
(245,40,o),
(245,41,qs),
(245,45,o),
(241,45,qs),
(56,45,l),
(275,274,ls)
);
}
);
userData = {
assembly = "NPUSHB[ ]	/* 38 values pushed */
21 1 2 3 3 1 1 0 2 76 0 2 2 3 95 0 3 3 42 77 0 0 0 1 95 0 1 1 40 1 78 54 25 38 16 4 9 26 
CALL[ ]	/* CallFunction */";
};
width = 323;
}
);
note = z;
unicode = 122;
},
{
glyphname = braceleft;
layers = (
{
layerId = m01;
shapes = (
{
closed = 1;
nodes = (
(168,334,qs),
(219,628,ls),
(224,652,o),
(246,652,qs),
(303,652,ls),
(342,652,o),
(348,686,q),
(348,689,l),
(349,689,o),
(349,690,qs),
(349,691,ls),
(349,696,o),
(343,696,qs),
(235,696,ls),
(184,696,o),
(174,639,qs),
(121,337,ls),
(115,302,o),
(80,298,qs),
(66,296,o),
(65,288,qs),
(60,264,ls),
(60,263,o),
(60,262,qs),
(60,256,o),
(68,255,qs),
(100,251,o),
(100,225,qs),
(100,220,o),
(99,216,qs),
(46,-88,ls),
(45,-94,o),
(45,-99,qs),
(45,-144,o),
(93,-144,qs),
(194,-144,ls),
(202,-144,o),
(203,-137,qs),
(203,-134,l),
(204,-131,o),
(204,-128,qs),
(204,-101,o),
(170,-101,qs),
(114,-101,ls),
(95,-101,o),
(95,-82,qs),
(95,-79,o),
(95,-77,qs),
(147,218,ls),
(149,228,o),
(149,237,qs),
(149,259,o),
(133,276,q),
(160,293,o)
);
}
);
userData = {
assembly = "NPUSHB[ ]	/* 49 values pushed */
42 1 3 2 25 20 5 3 0 3 12 1 1 0 3 76 0 2 0 3 0 2 3 103 0 0 1 1 0 89 0 0 0 1 95 0 1 0 1 79 50 47 40 38 53 56 4 9 24 
CALL[ ]	/* CallFunction */";
};
width = 326;
}
);
note = braceleft;
unicode = 123;
},
{
glyphname = bar;
layers = (
{
layerId = m01;
shapes = (
{
closed = 1;
nodes = (
(101,-149,o),
(101,-143,qs),
(101,514,ls),
(101,537,o),
(78,567,o),
(60,567,qs),
(55,567,o),
(55,561,qs),
(55,-143,ls),
(55,-149,o),
(60,-149,qs),
(96,-149,ls)
);
}
);
userData = {
assembly = "PUSHB[ ]	/* 8 values pushed */
9 3 2 3 1 0 1 76 
MPPEM[ ]	/* MeasurePixelPerEm */
PUSHB[ ]	/* 1 value pushed */
36 
LT[ ]	/* LessThan */
IF[ ]	/* If */
NPUSHB[ ]	/* 12 values pushed */
2 1 1 0 1 134 0 0 0 39 0 78 
ELSE[ ]	/* Else */
NPUSHB[ ]	/* 10 values pushed */
0 0 1 0 133 2 1 1 1 118 
EIF[ ]	/* EndIf */
NPUSHB[ ]	/* 10 values pushed */
0 0 0 11 0 11 21 3 9 23 
CALL[ ]	/* CallFunction */";
};
width = 184;
}
);
note = bar;
unicode = 124;
},
{
glyphname = braceright;
layers = (
{
layerId = m01;
shapes = (
{
closed = 1;
nodes = (
(163,218,qs),
(111,-77,ls),
(107,-101,o),
(84,-101,qs),
(28,-101,ls),
(-11,-101,o),
(-17,-134,qs),
(-18,-137,l),
(-18,-139,o),
(-18,-140,qs),
(-18,-144,o),
(-12,-144,qs),
(95,-144,ls),
(146,-144,o),
(156,-88,qs),
(210,216,ls),
(216,250,o),
(256,255,qs),
(265,256,o),
(266,264,qs),
(271,288,l),
(271,290,o),
(271,291,qs),
(270,296,o),
(263,297,qs),
(230,301,o),
(230,327,qs),
(230,332,o),
(231,337,qs),
(285,639,ls),
(286,645,o),
(286,651,qs),
(286,671,o),
(259,696,o),
(237,696,qs),
(136,696,ls),
(129,696,o),
(128,689,qs),
(127,686,l),
(127,683,o),
(127,680,qs),
(127,652,o),
(160,652,qs),
(217,652,ls),
(236,652,o),
(236,634,qs),
(236,631,o),
(236,628,q),
(184,334,ls),
(182,325,o),
(182,316,qs),
(182,295,o),
(198,276,q),
(170,258,o)
);
}
);
userData = {
assembly = "NPUSHB[ ]	/* 49 values pushed */
12 1 0 1 26 21 5 3 3 0 43 1 2 3 3 76 0 1 0 0 3 1 0 103 0 3 2 2 3 89 0 3 3 2 95 0 2 3 2 79 50 47 41 39 53 56 4 9 24 
CALL[ ]	/* CallFunction */";
};
width = 326;
}
);
note = braceright;
unicode = 125;
},
{
glyphname = asciitilde;
layers = (
{
layerId = m01;
shapes = (
{
closed = 1;
nodes = (
(53,213,q),
(87,242,o),
(124,242,qs),
(144,242,o),
(177,231,qs),
(218,218,o),
(240,218,qs),
(279,218,o),
(309,242,qs),
(318,250,o),
(318,267,qs),
(318,291,ls),
(318,298,o),
(311,293,qs),
(290,275,o),
(263,265,o),
(240,265,qs),
(220,265,o),
(187,275,qs),
(147,288,o),
(124,288,qs),
(88,288,o),
(55,265,qs),
(46,259,o),
(46,240,qs),
(46,215,ls),
(46,205,o)
);
}
);
userData = {
assembly = "PUSHB[ ]	/* 2 values pushed */
6 100 
WCVTP[ ]	/* WriteCVTInPixels */
NPUSHB[ ]	/* 31 values pushed */
0 1 3 2 1 89 0 0 0 3 2 0 3 105 0 1 1 2 97 0 2 1 2 81 34 40 34 36 4 9 26 
CALL[ ]	/* CallFunction */
PUSHB[ ]	/* 2 values pushed */
6 0 
WCVTP[ ]	/* WriteCVTInPixels */";
};
width = 368;
}
);
note = asciitilde;
unicode = 126;
},
{
glyphname = exclamdown;
layers = (
{
layerId = m01;
shapes = (
{
closed = 1;
nodes = (
(125,317,o),
(125,337,qs),
(125,351,o),
(103,372,o),
(88,372,qs),
(69,372,o),
(41,342,o),
(41,322,qs),
(41,308,o),
(62,287,o),
(77,287,qs),
(96,287,o)
);
},
{
closed = 1;
nodes = (
(77,177,o),
(77,183,qs),
(77,222,o),
(46,222,qs),
(41,222,o),
(40,216,qs),
(-35,-193,ls),
(-35,-194,o),
(-35,-195,qs),
(-35,-199,o),
(-31,-199,qs),
(10,-199,ls),
(14,-199,o),
(15,-193,qs),
(76,170,ls)
);
}
);
userData = {
assembly = "NPUSHB[ ]	/* 45 values pushed */
24 1 2 3 1 76 0 3 0 2 0 3 2 128 0 2 2 132 4 1 0 0 1 97 0 1 1 48 0 78 1 0 23 21 15 13 7 5 0 11 1 11 5 9 22 
CALL[ ]	/* CallFunction */";
};
width = 143;
}
);
note = exclamdown;
unicode = 161;
},
{
glyphname = cent;
layers = (
{
layerId = m01;
shapes = (
{
closed = 1;
nodes = (
(259,422,o),
(259,423,qs),
(259,427,o),
(255,427,qs),
(218,427,ls),
(213,427,o),
(212,421,qs),
(202,365,l),
(127,358,o),
(82,313,qs),
(25,256,o),
(21,137,q),
(23,80,o),
(51,43,qs),
(82,3,o),
(137,-7,q),
(126,-65,ls),
(126,-66,o),
(126,-67,qs),
(126,-71,o),
(130,-71,qs),
(167,-71,ls),
(172,-71,o),
(173,-65,qs),
(183,-9,l),
(232,-6,o),
(301,44,o),
(303,79,qs),
(303,89,o),
(295,89,qs),
(291,89,o),
(284,82,qs),
(243,41,o),
(191,38,q),
(241,320,l),
(277,317,o),
(314,294,qs),
(318,292,o),
(320,292,qs),
(324,292,o),
(326,298,qs),
(333,313,ls),
(336,321,o),
(336,326,qs),
(333,360,o),
(249,366,q),
(259,421,ls)
);
},
{
closed = 1;
nodes = (
(73,141,qs),
(75,222,o),
(109,266,qs),
(140,307,o),
(194,317,q),
(145,41,l),
(75,61,o)
);
}
);
userData = {
assembly = "NPUSHB[ ]	/* 17 values pushed */
48 44 11 2 4 1 4 30 1 2 0 27 1 3 2 3 76 
MPPEM[ ]	/* MeasurePixelPerEm */
PUSHB[ ]	/* 1 value pushed */
10 
LT[ ]	/* LessThan */
IF[ ]	/* If */
NPUSHB[ ]	/* 26 values pushed */
0 4 1 4 133 0 1 0 1 133 0 3 2 3 134 0 0 0 2 98 0 2 2 46 2 78 
ELSE[ ]	/* Else */
NPUSHB[ ]	/* 26 values pushed */
0 4 1 4 133 0 1 0 1 133 0 3 2 3 134 0 0 0 2 98 0 2 2 49 2 78 
EIF[ ]	/* EndIf */
PUSHB[ ]	/* 8 values pushed */
47 34 19 34 28 5 9 27 
CALL[ ]	/* CallFunction */";
};
width = 359;
}
);
note = cent;
unicode = 162;
},
{
glyphname = sterling;
layers = (
{
layerId = m01;
shapes = (
{
closed = 1;
nodes = (
(213,178,o),
(213,209,qs),
(213,231,o),
(206,262,q),
(369,262,ls),
(377,262,o),
(378,269,qs),
(380,279,ls),
(381,283,o),
(381,287,qs),
(381,308,o),
(355,308,qs),
(190,308,l),
(171,360,o),
(171,390,qs),
(171,443,o),
(206,478,qs),
(246,519,o),
(314,519,qs),
(345,519,o),
(417,492,o),
(435,474,qs),
(442,468,o),
(447,468,qs),
(452,468,o),
(456,476,qs),
(464,492,ls),
(467,498,o),
(467,504,qs),
(467,524,o),
(421,544,qs),
(367,567,o),
(311,567,qs),
(229,567,o),
(178,524,qs),
(120,475,o),
(120,387,qs),
(120,350,o),
(136,308,q),
(63,308,ls),
(58,308,o),
(57,302,qs),
(51,268,ls),
(51,266,o),
(51,265,qs),
(51,262,o),
(55,262,qs),
(153,262,l),
(165,234,o),
(165,213,qs),
(165,144,o),
(100,47,q),
(17,47,ls),
(12,47,o),
(11,41,qs),
(5,6,ls),
(5,5,o),
(5,4,qs),
(5,0,o),
(9,0,qs),
(375,0,ls),
(382,0,o),
(383,7,qs),
(385,18,ls),
(386,22,o),
(386,26,qs),
(386,47,o),
(360,47,qs),
(146,47,l),
(186,112,o)
);
}
);
userData = {
assembly = "NPUSHB[ ]	/* 16 values pushed */
40 1 6 7 59 24 2 3 4 11 3 2 1 0 3 76 
MPPEM[ ]	/* MeasurePixelPerEm */
PUSHB[ ]	/* 1 value pushed */
36 
LT[ ]	/* LessThan */
IF[ ]	/* If */
NPUSHB[ ]	/* 40 values pushed */
0 6 7 4 7 6 4 128 8 1 4 9 1 3 0 4 3 103 0 7 7 5 97 0 5 5 39 77 2 1 0 0 1 95 0 1 1 40 1 78 
ELSE[ ]	/* Else */
NPUSHB[ ]	/* 38 values pushed */
0 6 7 4 7 6 4 128 0 5 0 7 6 5 7 105 8 1 4 9 1 3 0 4 3 103 2 1 0 0 1 95 0 1 1 40 1 78 
EIF[ ]	/* EndIf */
NPUSHB[ ]	/* 14 values pushed */
65 63 37 35 39 37 38 20 38 37 32 10 9 31 
CALL[ ]	/* CallFunction */";
};
width = 473;
}
);
note = sterling;
unicode = 163;
},
{
glyphname = yen;
layers = (
{
layerId = m01;
shapes = (
{
closed = 1;
nodes = (
(153,4,l),
(153,0,o),
(158,0,qs),
(199,0,ls),
(204,0,o),
(205,6,qs),
(227,133,l),
(375,133,ls),
(380,133,o),
(381,139,qs),
(387,172,l),
(387,174,ls),
(387,178,o),
(383,178,qs),
(235,178,l),
(242,219,l),
(266,251,l),
(396,251,ls),
(401,251,o),
(402,257,qs),
(407,289,l),
(408,290,o),
(408,291,qs),
(408,295,o),
(403,295,qs),
(296,295,l),
(479,547,l),
(482,550,o),
(482,552,qs),
(482,556,o),
(475,556,qs),
(438,556,ls),
(428,556,o),
(419,543,qs),
(225,275,l),
(135,513,ls),
(125,539,o),
(108,556,o),
(90,556,qs),
(74,556,ls),
(69,556,o),
(69,550,qs),
(69,549,o),
(69,548,q),
(162,295,l),
(52,295,ls),
(47,295,o),
(46,289,qs),
(40,257,ls),
(40,255,o),
(40,254,qs),
(40,251,o),
(44,251,qs),
(180,251,l),
(191,219,l),
(184,178,l),
(31,178,ls),
(26,178,o),
(25,172,qs),
(19,139,ls),
(19,138,o),
(19,137,qs),
(19,133,o),
(23,133,qs),
(176,133,l),
(154,6,l)
);
}
);
userData = {
assembly = "NPUSHB[ ]	/* 73 values pushed */
21 1 3 4 42 30 14 3 2 3 10 1 1 2 53 3 2 0 1 64 1 10 0 5 76 6 1 3 7 1 2 1 3 2 104 8 1 1 9 1 0 10 1 0 103 5 1 4 4 39 77 0 10 10 40 10 78 62 60 58 56 18 38 20 53 52 38 18 38 16 11 9 31 
CALL[ ]	/* CallFunction */";
};
width = 449;
}
);
note = yen;
unicode = 165;
},
{
glyphname = brokenbar;
layers = (
{
layerId = m01;
shapes = (
{
closed = 1;
nodes = (
(101,272,o),
(101,277,qs),
(101,514,ls),
(101,537,o),
(78,567,o),
(60,567,qs),
(55,567,o),
(55,561,qs),
(55,277,ls),
(55,272,o),
(60,272,qs),
(96,272,ls)
);
},
{
closed = 1;
nodes = (
(101,-149,o),
(101,-143,qs),
(101,140,ls),
(101,146,o),
(96,146,qs),
(60,146,ls),
(55,146,o),
(55,140,qs),
(55,-143,ls),
(55,-149,o),
(60,-149,qs),
(96,-149,ls)
);
}
);
userData = {
assembly = "NPUSHB[ ]	/* 15 values pushed */
9 3 2 3 1 0 21 20 15 14 4 3 2 2 76 
MPPEM[ ]	/* MeasurePixelPerEm */
PUSHB[ ]	/* 1 value pushed */
36 
LT[ ]	/* LessThan */
IF[ ]	/* If */
NPUSHB[ ]	/* 20 values pushed */
0 2 5 1 3 2 3 99 4 1 1 1 0 97 0 0 0 39 1 78 
ELSE[ ]	/* Else */
NPUSHB[ ]	/* 26 values pushed */
0 0 4 1 1 2 0 1 103 0 2 3 3 2 87 0 2 2 3 95 5 1 3 2 3 79 
EIF[ ]	/* EndIf */
NPUSHB[ ]	/* 18 values pushed */
12 12 0 0 12 23 12 23 18 17 0 11 0 11 21 6 9 23 
CALL[ ]	/* CallFunction */";
};
width = 184;
}
);
note = brokenbar;
unicode = 166;
},
{
glyphname = section;
layers = (
{
layerId = m01;
shapes = (
{
closed = 1;
nodes = (
(345,268,qs),
(345,332,o),
(247,387,qs),
(175,428,o),
(174,462,qs),
(175,489,o),
(220,521,o),
(259,521,qs),
(302,521,o),
(345,493,q),
(346,493,l),
(347,493,l),
(349,492,o),
(350,492,qs),
(354,492,o),
(357,498,qs),
(364,513,ls),
(367,520,o),
(367,526,qs),
(367,543,o),
(302,568,o),
(260,568,qs),
(199,568,o),
(123,507,o),
(123,457,qs),
(123,417,o),
(175,377,q),
(56,318,o),
(56,243,qs),
(56,204,o),
(94,155,o),
(155,118,qs),
(236,67,o),
(236,27,qs),
(236,-6,o),
(178,-51,o),
(135,-51,qs),
(78,-51,o),
(42,-14,qs),
(31,-2,o),
(28,-2,qs),
(24,-2,o),
(21,-8,qs),
(15,-19,ls),
(11,-27,o),
(11,-32,qs),
(11,-56,o),
(90,-97,o),
(135,-97,qs),
(200,-97,o),
(242,-63,qs),
(289,-26,o),
(289,34,qs),
(289,77,o),
(233,124,q),
(345,190,o)
);
},
{
closed = 1;
nodes = (
(103,217,o),
(103,243,qs),
(103,303,o),
(204,357,q),
(261,323,o),
(297,287,o),
(297,264,qs),
(297,217,o),
(203,144,q),
(140,180,o)
);
}
);
userData = {
assembly = "NPUSHB[ ]	/* 15 values pushed */
36 1 4 3 61 28 2 1 4 9 1 2 1 3 76 
MPPEM[ ]	/* MeasurePixelPerEm */
PUSHB[ ]	/* 1 value pushed */
34 
LT[ ]	/* LessThan */
IF[ ]	/* If */
NPUSHB[ ]	/* 26 values pushed */
0 1 4 2 4 1 2 128 0 2 0 0 2 0 101 0 4 4 3 97 0 3 3 39 4 78 
ELSE[ ]	/* Else */
NPUSHB[ ]	/* 32 values pushed */
0 1 4 2 4 1 2 128 0 3 0 4 1 3 4 105 0 2 0 0 2 89 0 2 2 0 97 0 0 2 0 81 
EIF[ ]	/* EndIf */
PUSHB[ ]	/* 8 values pushed */
44 45 34 38 37 5 9 27 
CALL[ ]	/* CallFunction */";
};
width = 404;
}
);
note = section;
unicode = 167;
},
{
glyphname = dieresis;
layers = (
{
layerId = m01;
shapes = (
{
closed = 1;
nodes = (
(38,492,o),
(52,492,qs),
(66,492,o),
(82,472,o),
(80,458,qs),
(77,445,o),
(54,426,o),
(40,426,qs),
(27,426,o),
(11,445,o),
(13,458,qs),
(16,472,o)
);
},
{
closed = 1;
nodes = (
(150,492,o),
(164,492,qs),
(178,492,o),
(195,472,o),
(192,458,qs),
(190,445,o),
(167,426,o),
(152,426,qs),
(139,426,o),
(123,445,o),
(125,458,qs),
(128,472,o)
);
}
);
userData = {
assembly = "PUSHB[ ]	/* 2 values pushed */
6 100 
WCVTP[ ]	/* WriteCVTInPixels */
NPUSHB[ ]	/* 26 values pushed */
3 1 1 0 0 1 89 3 1 1 1 0 97 2 1 0 1 0 81 36 36 36 34 4 9 26 
CALL[ ]	/* CallFunction */
PUSHB[ ]	/* 2 values pushed */
6 0 
WCVTP[ ]	/* WriteCVTInPixels */";
};
width = 179;
}
);
note = dieresis;
unicode = 168;
},
{
glyphname = copyright;
layers = (
{
layerId = m01;
shapes = (
{
closed = 1;
nodes = (
(349,443,o),
(333,451,qs),
(310,463,o),
(277,463,qs),
(227,463,o),
(164,395,o),
(164,340,qs),
(164,284,o),
(224,217,o),
(273,217,qs),
(305,217,o),
(355,256,o),
(355,281,qs),
(355,288,o),
(350,288,qs),
(348,288,o),
(344,283,qs),
(318,248,o),
(276,248,qs),
(200,248,o),
(200,339,qs),
(200,382,o),
(242,433,o),
(277,433,qs),
(310,433,o),
(338,412,q),
(341,409,o),
(343,409,qs),
(346,409,o),
(346,413,qs),
(348,431,ls)
);
},
{
closed = 1;
nodes = (
(99,186,qs),
(161,117,o),
(269,117,qs),
(362,117,o),
(423,171,qs),
(492,233,o),
(492,340,qs),
(492,433,o),
(438,494,qs),
(376,563,o),
(269,563,qs),
(175,563,o),
(115,509,qs),
(46,448,o),
(46,340,qs),
(46,246,o)
);
},
{
closed = 1;
nodes = (
(141,198,qs),
(84,249,o),
(84,340,qs),
(84,419,o),
(128,469,qs),
(179,527,o),
(269,527,qs),
(348,527,o),
(398,482,qs),
(455,431,o),
(455,340,qs),
(455,261,o),
(411,211,qs),
(360,153,o),
(269,153,qs),
(190,153,o)
);
}
);
userData = {
assembly = "PUSHB[ ]	/* 2 values pushed */
6 100 
WCVTP[ ]	/* WriteCVTInPixels */
NPUSHB[ ]	/* 74 values pushed */
2 1 2 0 1 76 0 2 0 1 0 2 1 128 0 5 0 8 4 5 8 105 0 4 0 0 2 4 0 105 0 1 0 3 7 1 3 105 9 1 7 6 6 7 89 9 1 7 7 6 98 0 6 7 6 82 48 47 56 54 47 62 48 62 38 39 36 35 34 35 37 10 9 29 
CALL[ ]	/* CallFunction */
PUSHB[ ]	/* 2 values pushed */
6 0 
WCVTP[ ]	/* WriteCVTInPixels */";
};
width = 512;
}
);
note = copyright;
unicode = 169;
},
{
glyphname = ordfeminine;
layers = (
{
layerId = m01;
shapes = (
{
closed = 1;
nodes = (
(261,267,o),
(261,266,q),
(260,264,o),
(263,264,qs),
(297,264,ls),
(301,264,o),
(301,269,q),
(350,543,ls),
(350,544,o),
(350,545,qs),
(350,548,o),
(347,548,qs),
(341,548,ls),
(311,548,o),
(302,501,q),
(264,553,o),
(204,553,qs),
(141,553,o),
(95,508,qs),
(42,455,o),
(42,376,qs),
(42,323,o),
(106,257,o),
(157,257,qs),
(228,257,o),
(267,304,q),
(261,269,ls)
);
},
{
closed = 1;
nodes = (
(87,339,o),
(87,377,qs),
(87,434,o),
(155,513,o),
(204,513,qs),
(284,513,o),
(284,434,qs),
(284,373,o),
(216,296,o),
(163,296,qs),
(128,296,o)
);
}
);
userData = {
assembly = "NPUSHB[ ]	/* 10 values pushed */
11 1 4 5 26 1 3 4 2 76 
MPPEM[ ]	/* MeasurePixelPerEm */
PUSHB[ ]	/* 1 value pushed */
22 
LT[ ]	/* LessThan */
IF[ ]	/* If */
NPUSHB[ ]	/* 35 values pushed */
0 3 4 0 4 3 0 128 0 2 2 55 77 0 5 5 1 97 0 1 1 55 77 6 1 4 4 0 97 0 0 0 56 0 78 
ELSE[ ]	/* Else */
MPPEM[ ]	/* MeasurePixelPerEm */
PUSHB[ ]	/* 1 value pushed */
29 
LT[ ]	/* LessThan */
IF[ ]	/* If */
NPUSHB[ ]	/* 32 values pushed */
0 3 4 0 4 3 0 128 6 1 4 0 0 4 0 101 0 2 2 55 77 0 5 5 1 97 0 1 1 55 5 78 
ELSE[ ]	/* Else */
MPPEM[ ]	/* MeasurePixelPerEm */
PUSHB[ ]	/* 1 value pushed */
44 
LT[ ]	/* LessThan */
IF[ ]	/* If */
NPUSHB[ ]	/* 35 values pushed */
0 2 1 5 1 2 5 128 0 3 4 0 4 3 0 128 6 1 4 0 0 4 0 101 0 5 5 1 97 0 1 1 55 5 78 
ELSE[ ]	/* Else */
NPUSHB[ ]	/* 42 values pushed */
0 2 1 5 1 2 5 128 0 3 4 0 4 3 0 128 0 1 0 5 4 1 5 105 6 1 4 3 0 4 89 6 1 4 4 0 97 0 0 4 0 81 
EIF[ ]	/* EndIf */
EIF[ ]	/* EndIf */
EIF[ ]	/* EndIf */
NPUSHB[ ]	/* 15 values pushed */
28 27 33 31 27 37 28 37 22 50 37 33 7 10 26 
CALL[ ]	/* CallFunction */";
};
width = 328;
}
);
note = ordfeminine;
unicode = 170;
},
{
glyphname = guillemotleft;
layers = (
{
layerId = m01;
shapes = (
{
closed = 1;
nodes = (
(344,323,o),
(344,325,qs),
(344,328,o),
(340,328,qs),
(296,328,ls),
(287,328,o),
(279,320,qs),
(163,198,ls),
(153,188,o),
(153,182,qs),
(153,178,o),
(158,170,qs),
(237,48,ls),
(242,40,o),
(251,40,qs),
(289,40,ls),
(295,40,o),
(295,44,qs),
(295,46,o),
(294,47,q),
(211,179,l),
(342,321,ls)
);
},
{
closed = 1;
nodes = (
(206,323,o),
(206,325,qs),
(206,328,o),
(202,328,qs),
(158,328,ls),
(149,328,o),
(141,320,qs),
(25,198,ls),
(15,188,o),
(15,182,qs),
(15,178,o),
(20,170,qs),
(99,48,ls),
(105,40,o),
(114,40,qs),
(151,40,ls),
(157,40,o),
(157,44,qs),
(157,46,o),
(156,47,q),
(73,179,l),
(204,321,ls)
);
}
);
userData = {
assembly = "NPUSHB[ ]	/* 26 values pushed */
3 1 1 0 0 1 89 3 1 1 1 0 97 2 1 0 1 0 81 40 57 40 52 4 9 26 
CALL[ ]	/* CallFunction */";
};
width = 361;
}
);
note = guillemotleft;
unicode = 171;
},
{
glyphname = uni00AD;
layers = (
{
layerId = m01;
shapes = (
{
closed = 1;
nodes = (
(250,180,o),
(251,186,qs),
(257,221,ls),
(257,222,o),
(257,223,qs),
(257,227,o),
(253,227,qs),
(39,227,ls),
(34,227,o),
(33,221,qs),
(27,186,ls),
(27,185,o),
(27,184,qs),
(27,180,o),
(31,180,qs),
(245,180,ls)
);
}
);
userData = {
assembly = "NPUSHB[ ]	/* 34 values pushed */
10 2 2 1 0 1 76 0 0 1 1 0 87 0 0 0 1 95 2 1 1 0 1 79 0 0 0 15 0 14 38 3 9 23 
CALL[ ]	/* CallFunction */";
};
width = 305;
}
);
note = uni00AD;
unicode = 173;
},
{
glyphname = registered;
layers = (
{
layerId = m01;
shapes = (
{
closed = 1;
nodes = (
(326,226,ls),
(329,222,o),
(335,222,qs),
(364,222,ls),
(369,222,o),
(366,225,q),
(310,311,l),
(361,329,o),
(361,386,qs),
(361,459,o),
(275,459,qs),
(186,459,ls),
(184,459,o),
(184,457,qs),
(184,225,ls),
(184,222,o),
(186,222,qs),
(218,222,ls),
(220,222,o),
(220,225,qs),
(220,308,l),
(274,308,l)
);
},
{
closed = 1;
nodes = (
(267,428,ls),
(325,428,o),
(325,388,qs),
(325,340,o),
(263,340,qs),
(220,340,l),
(220,428,l)
);
},
{
closed = 1;
nodes = (
(99,186,qs),
(161,117,o),
(269,117,qs),
(362,117,o),
(423,171,qs),
(492,233,o),
(492,340,qs),
(492,433,o),
(438,494,qs),
(376,563,o),
(269,563,qs),
(175,563,o),
(115,509,qs),
(46,448,o),
(46,340,qs),
(46,246,o)
);
},
{
closed = 1;
nodes = (
(141,198,qs),
(84,249,o),
(84,340,qs),
(84,419,o),
(128,469,qs),
(179,527,o),
(269,527,qs),
(348,527,o),
(398,482,qs),
(455,431,o),
(455,340,qs),
(455,261,o),
(411,211,qs),
(360,153,o),
(269,153,qs),
(190,153,o)
);
}
);
userData = {
assembly = "PUSHB[ ]	/* 2 values pushed */
6 100 
WCVTP[ ]	/* WriteCVTInPixels */
NPUSHB[ ]	/* 81 values pushed */
14 1 1 2 15 4 1 3 6 1 2 76 0 4 0 7 0 4 7 105 0 0 0 3 2 0 3 105 0 2 8 1 1 6 2 1 103 9 1 6 5 5 6 89 9 1 6 6 5 97 0 5 6 5 81 46 45 0 0 54 52 45 60 46 60 42 40 34 32 28 26 24 22 0 21 0 21 71 10 9 23 
CALL[ ]	/* CallFunction */
PUSHB[ ]	/* 2 values pushed */
6 0 
WCVTP[ ]	/* WriteCVTInPixels */";
};
width = 512;
}
);
note = registered;
unicode = 174;
},
{
glyphname = macron;
layers = (
{
layerId = m01;
shapes = (
{
closed = 1;
nodes = (
(11,437,qs),
(15,464,l),
(17,469,o),
(21,469,qs),
(213,469,ls),
(218,469,o),
(217,464,qs),
(212,437,ls),
(211,431,o),
(206,431,qs),
(15,431,ls),
(10,431,o)
);
}
);
userData = {
assembly = "PUSHB[ ]	/* 2 values pushed */
6 100 
WCVTP[ ]	/* WriteCVTInPixels */
NPUSHB[ ]	/* 34 values pushed */
4 1 0 1 1 76 0 1 0 0 1 87 0 1 1 0 95 2 1 0 1 0 79 1 0 7 6 0 11 1 11 3 9 22 
CALL[ ]	/* CallFunction */
PUSHB[ ]	/* 2 values pushed */
6 0 
WCVTP[ ]	/* WriteCVTInPixels */";
};
width = 202;
}
);
note = macron;
unicode = 175;
},
{
glyphname = degree;
layers = (
{
layerId = m01;
shapes = (
{
closed = 1;
nodes = (
(274,441,o),
(274,493,qs),
(274,531,o),
(221,579,o),
(181,579,qs),
(129,579,o),
(61,509,o),
(61,457,qs),
(61,419,o),
(113,369,o),
(152,369,qs),
(204,369,o)
);
},
{
closed = 1;
nodes = (
(103,460,qs),
(103,493,o),
(148,543,o),
(179,543,qs),
(231,543,o),
(231,489,qs),
(231,456,o),
(185,407,o),
(155,407,qs),
(103,407,o)
);
}
);
userData = {
assembly = "PUSHB[ ]	/* 2 values pushed */
6 100 
WCVTP[ ]	/* WriteCVTInPixels */
NPUSHB[ ]	/* 46 values pushed */
0 1 0 3 2 1 3 105 5 1 2 0 0 2 89 5 1 2 2 0 97 4 1 0 2 0 81 13 12 1 0 18 16 12 21 13 21 7 5 0 11 1 11 6 9 22 
CALL[ ]	/* CallFunction */
PUSHB[ ]	/* 2 values pushed */
6 0 
WCVTP[ ]	/* WriteCVTInPixels */";
};
width = 261;
}
);
note = degree;
unicode = 176;
},
{
glyphname = plusminus;
layers = (
{
layerId = m01;
shapes = (
{
closed = 1;
nodes = (
(149,101,o),
(154,101,qs),
(190,101,ls),
(196,101,o),
(195,107,q),
(195,249,l),
(319,249,ls),
(324,249,o),
(324,255,qs),
(324,289,ls),
(324,295,o),
(319,295,qs),
(195,295,l),
(195,397,ls),
(195,443,o),
(154,443,qs),
(149,443,o),
(149,437,qs),
(149,295,l),
(26,295,ls),
(21,295,o),
(21,289,qs),
(21,255,ls),
(21,249,o),
(26,249,qs),
(149,249,l),
(149,107,ls)
);
},
{
closed = 1;
nodes = (
(324,0,o),
(324,6,qs),
(324,11,ls),
(324,47,o),
(285,47,qs),
(26,47,ls),
(21,47,o),
(21,41,qs),
(21,6,ls),
(21,0,o),
(26,0,qs),
(319,0,ls)
);
}
);
userData = {
assembly = "NPUSHB[ ]	/* 69 values pushed */
8 1 1 2 17 16 4 3 4 0 1 26 21 2 5 0 30 29 2 7 6 4 76 3 1 1 4 1 0 5 1 0 103 0 2 0 5 6 2 5 105 0 6 6 7 95 8 1 7 7 40 7 78 27 27 27 38 27 37 40 34 21 18 19 21 16 9 9 29 
CALL[ ]	/* CallFunction */";
};
width = 384;
}
);
note = plusminus;
unicode = 177;
},
{
glyphname = twosuperior;
layers = (
{
layerId = m01;
shapes = (
{
closed = 1;
nodes = (
(129,327,o),
(177,355,qs),
(241,392,o),
(288,445,o),
(288,481,qs),
(288,516,o),
(229,562,o),
(184,562,qs),
(146,562,o),
(84,535,o),
(84,518,qs),
(83,496,l),
(83,494,ls),
(83,491,o),
(86,491,qs),
(88,491,o),
(92,493,qs),
(141,522,o),
(181,522,qs),
(244,522,o),
(244,481,qs),
(244,431,o),
(155,384,qs),
(84,346,o),
(58,310,qs),
(30,270,o),
(30,240,qs),
(30,239,o),
(33,239,qs),
(241,239,ls),
(246,239,o),
(246,243,q),
(250,263,l),
(251,265,o),
(250,267,q),
(251,279,o),
(235,279,qs),
(86,279,l),
(99,301,o)
);
}
);
userData = {
assembly = "NPUSHB[ ]	/* 35 values pushed */
26 23 2 0 2 1 76 0 2 2 3 97 0 3 3 55 77 0 0 0 1 95 0 1 1 56 1 78 41 41 22 32 4 10 26 
CALL[ ]	/* CallFunction */";
};
width = 284;
}
);
note = twosuperior;
unicode = 178;
},
{
glyphname = threesuperior;
layers = (
{
layerId = m01;
shapes = (
{
closed = 1;
nodes = (
(295,488,qs),
(295,520,o),
(238,562,o),
(192,562,qs),
(153,562,o),
(89,535,o),
(89,518,qs),
(89,498,l),
(88,496,l),
(88,493,o),
(92,493,qs),
(95,493,o),
(99,496,qs),
(138,523,o),
(186,523,qs),
(250,523,o),
(250,485,qs),
(250,424,o),
(170,424,qs),
(118,424,ls),
(114,424,o),
(114,421,qs),
(111,403,l),
(110,401,o),
(110,398,qs),
(110,386,o),
(124,386,qs),
(155,386,ls),
(232,386,o),
(233,337,qs),
(232,272,o),
(144,272,qs),
(88,272,o),
(67,305,qs),
(57,322,o),
(55,322,qs),
(44,322,o),
(44,305,qs),
(44,273,o),
(103,233,o),
(149,233,qs),
(210,233,o),
(278,289,o),
(278,339,qs),
(278,388,o),
(227,404,q),
(295,428,o)
);
}
);
userData = {
assembly = "NPUSHB[ ]	/* 62 values pushed */
21 1 3 4 1 76 0 6 5 4 5 6 4 128 0 1 3 2 3 1 2 128 0 4 0 3 1 4 3 105 0 5 5 7 97 0 7 7 55 77 0 2 2 0 97 0 0 0 56 0 78 37 34 34 38 50 35 19 36 8 10 30 
CALL[ ]	/* CallFunction */";
};
width = 301;
}
);
note = threesuperior;
unicode = 179;
},
{
glyphname = acute;
layers = (
{
layerId = m01;
shapes = (
{
closed = 1;
nodes = (
(75,502,o),
(86,502,qs),
(135,502,ls),
(144,502,o),
(138,496,q),
(67,440,ls),
(54,431,o),
(42,431,qs),
(5,431,ls),
(2,431,o),
(1,432,q),
(0,435,o),
(2,436,q),
(65,493,ls)
);
}
);
userData = {
assembly = "PUSHB[ ]	/* 2 values pushed */
6 100 
WCVTP[ ]	/* WriteCVTInPixels */
NPUSHB[ ]	/* 14 values pushed */
0 1 0 1 133 0 0 0 118 51 36 2 9 24 
CALL[ ]	/* CallFunction */
PUSHB[ ]	/* 2 values pushed */
6 0 
WCVTP[ ]	/* WriteCVTInPixels */";
};
width = 139;
}
);
note = acute;
unicode = 180;
},
{
glyphname = paragraph;
layers = (
{
layerId = m01;
shapes = (
{
closed = 1;
nodes = (
(165,5,o),
(165,4,qs),
(165,0,o),
(169,0,qs),
(199,0,ls),
(204,0,o),
(205,6,qs),
(295,514,l),
(367,514,l),
(277,6,ls),
(277,5,o),
(277,4,qs),
(277,0,o),
(281,0,qs),
(311,0,ls),
(316,0,o),
(317,6,qs),
(403,491,ls),
(404,500,o),
(405,511,q),
(404,556,o),
(353,556,qs),
(282,556,ls),
(184,556,o),
(126,511,qs),
(59,459,o),
(59,359,qs),
(59,302,o),
(92,265,qs),
(131,221,o),
(199,221,qs),
(203,221,l),
(165,6,ls)
);
}
);
userData = {
assembly = "NPUSHB[ ]	/* 39 values pushed */
12 1 0 3 1 76 0 0 3 2 3 0 2 128 0 3 3 1 95 0 1 1 39 77 4 1 2 2 40 2 78 34 21 37 54 32 5 9 27 
CALL[ ]	/* CallFunction */";
};
width = 433;
}
);
note = paragraph;
unicode = 182;
},
{
glyphname = periodcentered;
layers = (
{
layerId = m01;
shapes = (
{
closed = 1;
nodes = (
(127,297,o),
(124,279,qs),
(121,262,o),
(93,237,o),
(76,237,qs),
(59,237,o),
(39,262,o),
(42,279,qs),
(45,297,o),
(74,322,o),
(91,322,qs),
(108,322,o)
);
}
);
userData = {
assembly = "NPUSHB[ ]	/* 29 values pushed */
2 1 0 1 1 0 89 2 1 0 0 1 97 0 1 0 1 81 1 0 7 5 0 11 1 11 3 9 22 
CALL[ ]	/* CallFunction */";
};
width = 137;
}
);
note = periodcentered;
unicode = 183;
},
{
glyphname = cedilla;
layers = (
{
layerId = m01;
shapes = (
{
closed = 1;
nodes = (
(56,-86,o),
(40,-86,qs),
(7,-86,ls),
(-1,-86,o),
(4,-80,q),
(51,-5,ls),
(58,5,o),
(74,5,qs),
(96,5,ls),
(102,5,o),
(100,-1,q),
(61,-77,ls)
);
}
);
userData = {
assembly = "PUSHB[ ]	/* 2 values pushed */
6 100 
WCVTP[ ]	/* WriteCVTInPixels */
NPUSHB[ ]	/* 14 values pushed */
0 0 1 0 133 0 1 1 118 51 49 2 9 24 
CALL[ ]	/* CallFunction */
PUSHB[ ]	/* 2 values pushed */
6 0 
WCVTP[ ]	/* WriteCVTInPixels */";
};
width = 98;
}
);
note = cedilla;
unicode = 184;
},
{
glyphname = onesuperior;
layers = (
{
layerId = m01;
shapes = (
{
closed = 1;
nodes = (
(89,244,o),
(89,243,qs),
(89,239,o),
(93,239,qs),
(128,239,ls),
(133,239,o),
(134,245,qs),
(184,528,ls),
(185,532,o),
(185,537,qs),
(185,556,o),
(167,556,qs),
(149,556,ls),
(137,556,o),
(121,551,qs),
(81,538,ls),
(75,536,o),
(75,532,q),
(68,494,ls),
(68,492,o),
(69,492,qs),
(70,492,o),
(71,493,q),
(137,514,l),
(89,245,ls)
);
}
);
userData = {
assembly = "NPUSHB[ ]	/* 23 values pushed */
14 1 2 1 0 1 76 0 0 0 55 77 0 1 1 56 1 78 37 58 2 10 24 
CALL[ ]	/* CallFunction */";
};
width = 194;
}
);
note = onesuperior;
unicode = 185;
},
{
glyphname = ordmasculine;
layers = (
{
layerId = m01;
shapes = (
{
closed = 1;
nodes = (
(79,292,qs),
(42,332,o),
(55,404,qs),
(66,466,o),
(107,507,qs),
(154,553,o),
(220,553,qs),
(280,553,o),
(312,517,qs),
(348,476,o),
(335,404,qs),
(323,337,o),
(232,257,o),
(168,257,qs),
(110,257,o)
);
},
{
closed = 1;
nodes = (
(282,354,o),
(290,404,qs),
(299,452,o),
(256,513,o),
(213,513,qs),
(170,513,o),
(109,454,o),
(100,404,qs),
(91,355,o),
(132,296,o),
(175,296,qs),
(219,296,o)
);
}
);
userData = {
assembly = "MPPEM[ ]	/* MeasurePixelPerEm */
PUSHB[ ]	/* 1 value pushed */
22 
LT[ ]	/* LessThan */
IF[ ]	/* If */
NPUSHB[ ]	/* 23 values pushed */
0 3 3 1 97 0 1 1 55 77 5 1 2 2 0 97 4 1 0 0 56 0 78 
ELSE[ ]	/* Else */
MPPEM[ ]	/* MeasurePixelPerEm */
PUSHB[ ]	/* 1 value pushed */
44 
LT[ ]	/* LessThan */
IF[ ]	/* If */
NPUSHB[ ]	/* 20 values pushed */
5 1 2 4 1 0 2 0 101 0 3 3 1 97 0 1 1 55 3 78 
ELSE[ ]	/* Else */
NPUSHB[ ]	/* 27 values pushed */
0 1 0 3 2 1 3 105 5 1 2 0 0 2 89 5 1 2 2 0 97 4 1 0 2 0 81 
EIF[ ]	/* EndIf */
EIF[ ]	/* EndIf */
NPUSHB[ ]	/* 19 values pushed */
16 15 1 0 22 20 15 26 16 26 8 6 0 14 1 14 6 10 22 
CALL[ ]	/* CallFunction */";
};
width = 320;
}
);
note = ordmasculine;
unicode = 186;
},
{
glyphname = guillemotright;
layers = (
{
layerId = m01;
shapes = (
{
closed = 1;
nodes = (
(-11,45,o),
(-11,43,qs),
(-11,40,o),
(-7,40,qs),
(37,40,ls),
(47,40,o),
(54,48,qs),
(171,170,ls),
(180,180,o),
(180,186,qs),
(180,190,o),
(176,198,q),
(96,320,ls),
(91,328,o),
(82,328,qs),
(44,328,ls),
(39,328,o),
(39,324,qs),
(39,322,o),
(39,321,q),
(123,189,l),
(-9,47,ls)
);
},
{
closed = 1;
nodes = (
(127,45,o),
(127,43,qs),
(127,40,o),
(131,40,qs),
(175,40,ls),
(184,40,o),
(192,48,qs),
(308,170,ls),
(318,180,o),
(318,186,qs),
(318,190,o),
(313,198,qs),
(234,320,ls),
(229,328,o),
(220,328,qs),
(182,328,ls),
(176,328,o),
(176,324,q),
(177,322,o),
(177,321,q),
(260,189,l),
(129,47,ls)
);
}
);
userData = {
assembly = "NPUSHB[ ]	/* 32 values pushed */
1 1 1 0 1 76 2 1 0 1 1 0 89 2 1 0 0 1 97 3 1 1 0 1 81 40 57 40 52 4 9 26 
CALL[ ]	/* CallFunction */";
};
width = 361;
}
);
note = guillemotright;
unicode = 187;
},
{
glyphname = onequarter;
layers = (
{
layerId = m01;
shapes = (
{
closed = 1;
nodes = (
(113,0,o),
(117,6,qs),
(478,503,ls),
(494,526,o),
(494,540,qs),
(494,556,o),
(475,556,qs),
(469,556,ls),
(465,556,o),
(461,549,q),
(65,6,ls),
(63,3,o),
(63,2,qs),
(63,0,o),
(66,0,qs),
(108,0,ls)
);
},
{
closed = 1;
nodes = (
(89,244,o),
(89,243,qs),
(89,239,o),
(93,239,qs),
(128,239,ls),
(133,239,o),
(134,245,qs),
(184,528,ls),
(185,532,o),
(185,538,qs),
(185,556,o),
(167,556,qs),
(149,556,ls),
(137,556,o),
(121,551,qs),
(81,538,ls),
(76,536,o),
(75,532,qs),
(68,494,l),
(68,493,l),
(69,492,l),
(70,492,o),
(71,493,q),
(137,514,l),
(89,245,ls)
);
},
{
closed = 1;
nodes = (
(433,2,ls),
(433,0,o),
(435,0,qs),
(472,0,ls),
(475,0,o),
(475,3,q),
(489,79,l),
(528,79,ls),
(533,79,o),
(533,83,q),
(536,100,l),
(537,102,o),
(537,105,qs),
(537,117,o),
(522,117,qs),
(496,117,l),
(527,296,l),
(528,299,o),
(528,302,qs),
(528,317,o),
(511,317,qs),
(486,317,ls),
(475,317,o),
(467,308,qs),
(296,115,ls),
(289,107,o),
(287,97,qs),
(284,82,ls),
(284,81,o),
(284,80,qs),
(284,79,o),
(287,79,qs),
(446,79,l),
(433,3,l)
);
},
{
closed = 1;
nodes = (
(453,117,l),
(345,117,l),
(480,269,l)
);
}
);
userData = {
assembly = "PUSHB[ ]	/* 2 values pushed */
6 100 
WCVTP[ ]	/* WriteCVTInPixels */
NPUSHB[ ]	/* 86 values pushed */
30 17 2 5 0 77 55 2 3 5 61 47 2 4 6 3 76 71 1 1 73 2 1 0 5 0 133 0 5 3 5 133 0 3 6 3 133 9 1 1 4 1 134 8 1 6 4 4 6 89 8 1 6 6 4 96 7 1 4 6 4 80 0 0 76 75 67 66 60 58 54 51 42 41 36 34 29 26 0 15 0 14 54 10 9 23 
CALL[ ]	/* CallFunction */
PUSHB[ ]	/* 2 values pushed */
6 0 
WCVTP[ ]	/* WriteCVTInPixels */";
};
width = 601;
}
);
note = onequarter;
unicode = 188;
},
{
glyphname = onehalf;
layers = (
{
layerId = m01;
shapes = (
{
closed = 1;
nodes = (
(113,0,o),
(117,6,qs),
(478,503,ls),
(494,526,o),
(494,540,qs),
(494,556,o),
(475,556,qs),
(469,556,ls),
(465,556,o),
(461,549,q),
(65,6,ls),
(63,3,o),
(63,2,qs),
(63,0,o),
(66,0,qs),
(108,0,ls)
);
},
{
closed = 1;
nodes = (
(89,244,o),
(89,243,qs),
(89,239,o),
(93,239,qs),
(128,239,ls),
(133,239,o),
(134,245,qs),
(184,528,ls),
(185,532,o),
(185,538,qs),
(185,556,o),
(167,556,qs),
(149,556,ls),
(137,556,o),
(121,551,qs),
(81,538,ls),
(76,536,o),
(75,532,qs),
(68,494,l),
(68,493,l),
(69,492,l),
(70,492,o),
(71,493,q),
(137,514,l),
(89,245,ls)
);
},
{
closed = 1;
nodes = (
(447,88,o),
(495,116,qs),
(559,153,o),
(606,206,o),
(606,242,qs),
(606,277,o),
(547,323,o),
(502,323,qs),
(464,323,o),
(402,296,o),
(402,279,qs),
(401,257,l),
(401,255,ls),
(401,252,o),
(404,252,qs),
(406,252,o),
(410,254,qs),
(459,283,o),
(499,283,qs),
(562,283,o),
(562,242,qs),
(562,193,o),
(473,145,qs),
(402,107,o),
(376,71,qs),
(348,31,o),
(348,1,qs),
(348,0,o),
(351,0,qs),
(559,0,ls),
(564,0,o),
(564,4,q),
(568,24,l),
(568,26,o),
(568,28,qs),
(568,40,o),
(553,40,qs),
(404,40,l),
(417,63,o)
);
}
);
userData = {
assembly = "PUSHB[ ]	/* 2 values pushed */
6 100 
WCVTP[ ]	/* WriteCVTInPixels */
NPUSHB[ ]	/* 78 values pushed */
30 17 2 7 0 67 64 2 3 6 44 1 1 4 3 76 2 1 0 7 0 133 0 3 6 4 6 3 4 128 0 7 0 6 3 7 6 106 0 4 1 1 4 87 0 4 4 1 97 5 8 2 1 4 1 81 0 0 72 70 61 59 50 49 43 41 36 34 29 26 0 15 0 14 54 9 9 23 
CALL[ ]	/* CallFunction */
PUSHB[ ]	/* 2 values pushed */
6 0 
WCVTP[ ]	/* WriteCVTInPixels */";
};
width = 672;
}
);
note = onehalf;
unicode = 189;
},
{
glyphname = threequarters;
layers = (
{
layerId = m01;
shapes = (
{
closed = 1;
nodes = (
(295,488,qs),
(295,520,o),
(238,562,o),
(192,562,qs),
(153,562,o),
(89,535,o),
(89,518,qs),
(89,498,l),
(88,496,l),
(88,493,o),
(92,493,qs),
(95,493,o),
(99,496,qs),
(138,523,o),
(186,523,qs),
(250,523,o),
(250,485,qs),
(250,424,o),
(170,424,qs),
(118,424,ls),
(114,424,o),
(114,421,qs),
(111,403,l),
(110,401,o),
(110,398,qs),
(110,386,o),
(124,386,qs),
(155,386,ls),
(232,386,o),
(233,337,qs),
(232,272,o),
(144,272,qs),
(88,272,o),
(67,305,qs),
(57,322,o),
(55,322,qs),
(44,322,o),
(44,305,qs),
(44,275,o),
(105,233,o),
(149,233,qs),
(210,233,o),
(278,289,o),
(278,339,qs),
(278,385,o),
(227,401,q),
(295,426,o)
);
},
{
closed = 1;
nodes = (
(197,0,o),
(201,6,qs),
(561,503,ls),
(577,527,o),
(577,540,qs),
(577,556,o),
(558,556,qs),
(552,556,ls),
(548,556,o),
(544,549,q),
(150,6,ls),
(148,3,o),
(147,2,q),
(147,0,o),
(150,0,qs),
(192,0,ls)
);
},
{
closed = 1;
nodes = (
(517,2,ls),
(517,0,o),
(519,0,qs),
(556,0,ls),
(559,0,o),
(560,3,q),
(573,79,l),
(612,79,ls),
(616,79,o),
(616,83,q),
(619,100,ls),
(620,104,o),
(620,105,qs),
(620,117,o),
(606,117,qs),
(580,117,l),
(611,296,l),
(612,298,o),
(612,302,qs),
(612,317,o),
(595,317,qs),
(570,317,ls),
(559,317,o),
(551,308,qs),
(380,115,ls),
(373,107,o),
(371,97,qs),
(368,82,ls),
(368,81,o),
(368,80,qs),
(368,79,o),
(371,79,qs),
(530,79,l),
(517,3,l)
);
},
{
closed = 1;
nodes = (
(537,117,l),
(429,117,l),
(564,269,l)
);
}
);
userData = {
assembly = "PUSHB[ ]	/* 2 values pushed */
6 100 
WCVTP[ ]	/* WriteCVTInPixels */
MPPEM[ ]	/* MeasurePixelPerEm */
PUSHB[ ]	/* 1 value pushed */
36 
LT[ ]	/* LessThan */
IF[ ]	/* If */
NPUSHB[ ]	/* 19 values pushed */
21 1 3 4 77 1 2 1 99 1 0 2 83 69 2 10 12 4 76 
ELSE[ ]	/* Else */
NPUSHB[ ]	/* 19 values pushed */
21 1 3 4 77 1 2 11 99 1 0 2 83 69 2 10 12 4 76 
EIF[ ]	/* EndIf */
MPPEM[ ]	/* MeasurePixelPerEm */
PUSHB[ ]	/* 1 value pushed */
12 
LT[ ]	/* LessThan */
IF[ ]	/* If */
NPUSHB[ ]	/* 69 values pushed */
0 6 5 4 5 6 4 128 11 1 1 3 2 3 1 2 128 14 16 2 9 10 10 9 113 8 1 7 0 5 6 7 5 105 0 4 0 3 1 4 3 105 0 2 0 0 12 2 0 105 15 1 12 10 10 12 89 15 1 12 12 10 96 13 1 10 12 10 80 
ELSE[ ]	/* Else */
MPPEM[ ]	/* MeasurePixelPerEm */
PUSHB[ ]	/* 1 value pushed */
32 
LT[ ]	/* LessThan */
IF[ ]	/* If */
NPUSHB[ ]	/* 68 values pushed */
0 6 5 4 5 6 4 128 11 1 1 3 2 3 1 2 128 14 16 2 9 10 9 134 8 1 7 0 5 6 7 5 105 0 4 0 3 1 4 3 105 0 2 0 0 12 2 0 105 15 1 12 10 10 12 89 15 1 12 12 10 96 13 1 10 12 10 80 
ELSE[ ]	/* Else */
MPPEM[ ]	/* MeasurePixelPerEm */
PUSHB[ ]	/* 1 value pushed */
36 
LT[ ]	/* LessThan */
IF[ ]	/* If */
NPUSHB[ ]	/* 75 values pushed */
0 8 7 5 7 8 5 128 0 6 5 4 5 6 4 128 11 1 1 3 2 3 1 2 128 14 16 2 9 10 9 134 0 7 0 5 6 7 5 105 0 4 0 3 1 4 3 105 0 2 0 0 12 2 0 105 15 1 12 10 10 12 89 15 1 12 12 10 96 13 1 10 12 10 80 
ELSE[ ]	/* Else */
NPUSHB[ ]	/* 81 values pushed */
0 8 7 5 7 8 5 128 0 6 5 4 5 6 4 128 0 1 3 11 3 1 11 128 0 11 2 3 11 2 126 14 16 2 9 10 9 134 0 7 0 5 6 7 5 105 0 4 0 3 1 4 3 105 0 2 0 0 12 2 0 105 15 1 12 10 10 12 89 15 1 12 12 10 96 13 1 10 12 10 80 
EIF[ ]	/* EndIf */
EIF[ ]	/* EndIf */
EIF[ ]	/* EndIf */
NPUSHB[ ]	/* 30 values pushed */
47 47 98 97 93 92 89 88 82 80 76 73 64 63 47 62 47 61 58 37 34 34 38 50 35 19 36 17 9 31 
CALL[ ]	/* CallFunction */
PUSHB[ ]	/* 2 values pushed */
6 0 
WCVTP[ ]	/* WriteCVTInPixels */";
};
width = 683;
}
);
note = threequarters;
unicode = 190;
},
{
glyphname = questiondown;
layers = (
{
layerId = m01;
shapes = (
{
closed = 1;
nodes = (
(243,317,o),
(243,337,qs),
(243,351,o),
(221,372,o),
(206,372,qs),
(187,372,o),
(159,342,o),
(159,322,qs),
(159,308,o),
(180,287,o),
(195,287,qs),
(214,287,o)
);
},
{
closed = 1;
nodes = (
(266,-114,o),
(261,-114,qs),
(256,-114,o),
(248,-119,qs),
(181,-162,o),
(110,-162,qs),
(5,-162,o),
(5,-76,qs),
(5,-35,o),
(51,30,o),
(110,70,qs),
(197,130,o),
(197,190,qs),
(197,222,o),
(169,222,qs),
(163,222,ls),
(158,222,o),
(157,216,qs),
(151,178,ls),
(146,153,o),
(131,135,o),
(94,110,qs),
(13,57,o),
(-47,-25,o),
(-47,-80,qs),
(-47,-136,o),
(-12,-170,qs),
(29,-210,o),
(105,-210,qs),
(184,-210,o),
(267,-159,qs),
(272,-156,o),
(272,-153,qs),
(272,-152,o),
(272,-151,qs),
(267,-121,ls)
);
}
);
userData = {
assembly = "NPUSHB[ ]	/* 53 values pushed */
0 3 0 5 0 3 5 128 0 5 4 0 5 4 126 0 4 0 2 4 2 102 6 1 0 0 1 97 0 1 1 48 0 78 1 0 46 44 42 40 33 30 19 17 7 5 0 11 1 11 7 9 22 
CALL[ ]	/* CallFunction */";
};
width = 325;
}
);
note = questiondown;
unicode = 191;
},
{
glyphname = Agrave;
kernLeft = A;
kernRight = A;
layers = (
{
layerId = m01;
shapes = (
{
closed = 1;
nodes = (
(388,12,ls),
(390,0,o),
(401,0,qs),
(436,0,ls),
(441,0,o),
(441,5,qs),
(441,6,o),
(441,7,qs),
(332,521,ls),
(325,556,o),
(288,556,qs),
(283,556,ls),
(277,556,o),
(274,549,q),
(-34,7,ls),
(-35,5,o),
(-35,3,qs),
(-35,0,o),
(-30,0,qs),
(10,0,ls),
(21,0,o),
(27,12,qs),
(112,169,l),
(356,169,l)
);
},
{
closed = 1;
nodes = (
(346,216,l),
(139,216,l),
(291,493,l)
);
},
{
closed = 1;
nodes = (
(307,691,o),
(296,691,qs),
(251,691,ls),
(246,691,o),
(246,687,qs),
(246,686,o),
(247,685,qs),
(309,629,ls),
(319,619,o),
(332,619,qs),
(364,619,ls),
(369,619,o),
(369,623,qs),
(369,624,o),
(368,625,qs),
(315,682,ls)
);
}
);
userData = {
assembly = "NPUSHB[ ]	/* 59 values pushed */
26 1 4 1 15 1 0 3 2 76 0 6 5 6 133 0 5 1 5 133 0 4 7 1 3 0 4 3 104 0 1 1 39 77 2 1 0 0 40 0 78 0 0 41 38 33 30 25 24 0 23 0 23 53 54 34 8 9 25 
CALL[ ]	/* CallFunction */";
};
width = 498;
}
);
note = Agrave;
unicode = 192;
},
{
glyphname = Aacute;
kernLeft = A;
kernRight = A;
layers = (
{
layerId = m01;
shapes = (
{
closed = 1;
nodes = (
(388,12,ls),
(390,0,o),
(401,0,qs),
(436,0,ls),
(441,0,o),
(441,5,qs),
(441,6,o),
(441,7,qs),
(332,521,ls),
(325,556,o),
(288,556,qs),
(283,556,ls),
(277,556,o),
(274,549,q),
(-34,7,ls),
(-35,5,o),
(-35,3,qs),
(-35,0,o),
(-30,0,qs),
(10,0,ls),
(21,0,o),
(27,12,qs),
(112,169,l),
(356,169,l)
);
},
{
closed = 1;
nodes = (
(346,216,l),
(139,216,l),
(291,493,l)
);
},
{
closed = 1;
nodes = (
(244,622,qs),
(244,619,o),
(248,619,qs),
(284,619,ls),
(297,619,o),
(311,629,qs),
(393,685,ls),
(394,686,o),
(394,688,qs),
(394,691,o),
(390,691,qs),
(337,691,ls),
(325,691,o),
(314,682,qs),
(246,625,l),
(244,624,o)
);
}
);
userData = {
assembly = "NPUSHB[ ]	/* 59 values pushed */
26 1 4 1 15 1 0 3 2 76 0 5 6 5 133 0 6 1 6 133 0 4 7 1 3 0 4 3 104 0 1 1 39 77 2 1 0 0 40 0 78 0 0 39 37 31 29 25 24 0 23 0 23 53 54 34 8 9 25 
CALL[ ]	/* CallFunction */";
};
width = 498;
}
);
note = Aacute;
unicode = 193;
},
{
glyphname = Acircumflex;
kernLeft = A;
kernRight = A;
layers = (
{
layerId = m01;
shapes = (
{
closed = 1;
nodes = (
(388,12,ls),
(390,0,o),
(401,0,qs),
(436,0,ls),
(441,0,o),
(441,5,qs),
(441,6,o),
(441,7,qs),
(332,521,ls),
(325,556,o),
(288,556,qs),
(283,556,ls),
(277,556,o),
(274,549,q),
(-34,7,ls),
(-35,5,o),
(-35,3,qs),
(-35,0,o),
(-30,0,qs),
(10,0,ls),
(21,0,o),
(27,12,qs),
(112,169,l),
(356,169,l)
);
},
{
closed = 1;
nodes = (
(346,216,l),
(139,216,l),
(291,493,l)
);
},
{
closed = 1;
nodes = (
(358,619,o),
(373,619,qs),
(403,619,ls),
(408,619,o),
(408,623,qs),
(408,624,o),
(407,625,qs),
(354,682,ls),
(346,691,o),
(335,691,qs),
(306,691,ls),
(295,691,o),
(283,682,qs),
(211,625,l),
(209,624,o),
(209,622,qs),
(209,619,o),
(213,619,qs),
(249,619,ls),
(264,619,o),
(275,629,qs),
(319,664,l),
(350,629,ls)
);
}
);
userData = {
assembly = "NPUSHB[ ]	/* 62 values pushed */
26 1 4 1 15 1 0 3 2 76 0 6 5 6 133 7 1 5 1 5 133 0 4 8 1 3 0 4 3 104 0 1 1 39 77 2 1 0 0 40 0 78 0 0 48 45 40 37 31 29 25 24 0 23 0 23 53 54 34 9 9 25 
CALL[ ]	/* CallFunction */";
};
width = 498;
}
);
note = Acircumflex;
unicode = 194;
},
{
glyphname = Atilde;
kernLeft = A;
kernRight = A;
layers = (
{
layerId = m01;
shapes = (
{
closed = 1;
nodes = (
(388,12,ls),
(390,0,o),
(401,0,qs),
(436,0,ls),
(441,0,o),
(441,5,qs),
(441,6,o),
(441,7,qs),
(332,521,ls),
(325,556,o),
(288,556,qs),
(283,556,ls),
(277,556,o),
(274,549,q),
(-34,7,ls),
(-35,5,o),
(-35,3,qs),
(-35,0,o),
(-30,0,qs),
(10,0,ls),
(21,0,o),
(27,12,qs),
(112,169,l),
(356,169,l)
);
},
{
closed = 1;
nodes = (
(346,216,l),
(139,216,l),
(291,493,l)
);
},
{
closed = 1;
nodes = (
(251,619,o),
(253,627,q),
(260,644,o),
(272,644,qs),
(282,644,o),
(305,632,qs),
(335,617,o),
(356,617,qs),
(380,617,o),
(421,655,o),
(420,676,q),
(419,680,o),
(414,680,qs),
(388,680,ls),
(382,680,o),
(378,674,q),
(370,657,o),
(355,657,qs),
(346,657,o),
(323,668,qs),
(291,684,o),
(270,684,qs),
(249,684,o),
(213,646,o),
(213,623,qs),
(213,620,o),
(218,619,q),
(245,619,ls)
);
}
);
userData = {
assembly = "MPPEM[ ]	/* MeasurePixelPerEm */
PUSHB[ ]	/* 1 value pushed */
45 
LT[ ]	/* LessThan */
IF[ ]	/* If */
NPUSHB[ ]	/* 18 values pushed */
43 1 6 5 29 1 8 9 26 1 4 1 15 1 0 3 4 76 
ELSE[ ]	/* Else */
NPUSHB[ ]	/* 18 values pushed */
43 1 6 7 29 1 8 9 26 1 4 1 15 1 0 3 4 76 
EIF[ ]	/* EndIf */
MPPEM[ ]	/* MeasurePixelPerEm */
PUSHB[ ]	/* 1 value pushed */
45 
LT[ ]	/* LessThan */
IF[ ]	/* If */
NPUSHB[ ]	/* 40 values pushed */
7 1 5 0 9 8 5 9 105 0 6 12 10 2 8 1 6 8 105 0 4 11 1 3 0 4 3 104 0 1 1 39 77 2 1 0 0 40 0 78 
ELSE[ ]	/* Else */
NPUSHB[ ]	/* 47 values pushed */
0 7 5 6 5 7 6 128 0 5 0 9 8 5 9 105 0 6 12 10 2 8 1 6 8 105 0 4 11 1 3 0 4 3 104 0 1 1 39 77 2 1 0 0 40 0 78 
EIF[ ]	/* EndIf */
NPUSHB[ ]	/* 30 values pushed */
27 27 0 0 27 54 27 53 51 49 47 45 41 39 37 35 33 31 25 24 0 23 0 23 53 54 34 13 9 25 
CALL[ ]	/* CallFunction */";
};
width = 498;
}
);
note = Atilde;
unicode = 195;
},
{
glyphname = Adieresis;
kernLeft = A;
kernRight = A;
layers = (
{
layerId = m01;
shapes = (
{
closed = 1;
nodes = (
(388,12,ls),
(390,0,o),
(401,0,qs),
(436,0,ls),
(441,0,o),
(441,5,qs),
(441,6,o),
(441,7,qs),
(332,521,ls),
(325,556,o),
(288,556,qs),
(283,556,ls),
(277,556,o),
(274,549,q),
(-34,7,ls),
(-35,5,o),
(-35,3,qs),
(-35,0,o),
(-30,0,qs),
(10,0,ls),
(21,0,o),
(27,12,qs),
(112,169,l),
(356,169,l)
);
},
{
closed = 1;
nodes = (
(346,216,l),
(139,216,l),
(291,493,l)
);
},
{
closed = 1;
nodes = (
(243,614,o),
(256,614,qs),
(271,614,o),
(294,637,o),
(294,653,qs),
(294,664,o),
(276,681,o),
(263,681,qs),
(248,681,o),
(226,657,o),
(226,642,qs),
(226,630,o)
);
},
{
closed = 1;
nodes = (
(356,614,o),
(368,614,qs),
(383,614,o),
(406,637,o),
(406,653,qs),
(406,664,o),
(388,681,o),
(375,681,qs),
(360,681,o),
(338,657,o),
(338,642,qs),
(338,630,o)
);
}
);
userData = {
assembly = "NPUSHB[ ]	/* 63 values pushed */
26 1 4 1 15 1 0 3 2 76 7 1 5 8 1 6 1 5 6 105 0 4 9 1 3 0 4 3 104 0 1 1 39 77 2 1 0 0 40 0 78 0 0 49 47 43 41 37 35 31 29 25 24 0 23 0 23 53 54 34 10 9 25 
CALL[ ]	/* CallFunction */";
};
width = 498;
}
);
note = Adieresis;
unicode = 196;
},
{
glyphname = Aring;
kernLeft = A;
kernRight = A;
layers = (
{
layerId = m01;
shapes = (
{
closed = 1;
nodes = (
(388,12,ls),
(390,0,o),
(401,0,qs),
(436,0,ls),
(441,0,o),
(441,5,qs),
(441,6,o),
(441,7,qs),
(332,521,ls),
(325,556,o),
(288,556,qs),
(283,556,ls),
(277,556,o),
(274,549,q),
(-34,7,ls),
(-35,5,o),
(-35,3,qs),
(-35,0,o),
(-30,0,qs),
(10,0,ls),
(21,0,o),
(27,12,qs),
(112,169,l),
(356,169,l)
);
},
{
closed = 1;
nodes = (
(346,216,l),
(139,216,l),
(291,493,l)
);
},
{
closed = 1;
nodes = (
(288,609,o),
(311,609,qs),
(342,609,o),
(386,651,o),
(386,680,qs),
(386,703,o),
(352,737,o),
(329,737,qs),
(298,737,o),
(254,696,o),
(254,667,qs),
(254,644,o)
);
},
{
closed = 1;
nodes = (
(287,666,qs),
(287,682,o),
(310,708,o),
(326,708,qs),
(353,708,o),
(353,681,qs),
(353,663,o),
(330,639,o),
(314,639,qs),
(287,639,o)
);
}
);
userData = {
assembly = "NPUSHB[ ]	/* 74 values pushed */
26 1 4 1 15 1 0 3 2 76 0 5 0 8 7 5 8 105 10 1 7 0 6 1 7 6 105 0 4 9 1 3 0 4 3 104 0 1 1 39 77 2 1 0 0 40 0 78 40 39 0 0 45 43 39 48 40 48 37 35 31 29 25 24 0 23 0 23 53 54 34 11 9 25 
CALL[ ]	/* CallFunction */";
};
width = 498;
}
);
note = Aring;
unicode = 197;
},
{
glyphname = AE;
kernRight = E;
layers = (
{
layerId = m01;
shapes = (
{
closed = 1;
nodes = (
(285,5,o),
(285,4,qs),
(285,0,o),
(290,0,qs),
(577,0,ls),
(585,0,o),
(586,7,qs),
(588,18,l),
(588,22,o),
(588,26,qs),
(588,47,o),
(563,47,qs),
(344,47,l),
(380,252,l),
(593,252,ls),
(601,252,o),
(602,259,qs),
(604,270,ls),
(605,273,o),
(605,277,qs),
(605,298,o),
(579,298,qs),
(388,298,l),
(425,508,l),
(656,508,ls),
(664,508,o),
(666,516,q),
(667,527,l),
(668,530,o),
(668,534,qs),
(668,556,o),
(643,556,qs),
(363,556,ls),
(355,556,o),
(350,548,qs),
(-41,7,ls),
(-43,4,o),
(-43,2,qs),
(-43,0,o),
(-39,0,qs),
(8,0,ls),
(19,0,o),
(27,12,qs),
(137,169,l),
(314,169,l),
(286,6,l)
);
},
{
closed = 1;
nodes = (
(323,216,l),
(169,216,l),
(374,509,l)
);
}
);
userData = {
assembly = "NPUSHB[ ]	/* 65 values pushed */
48 15 2 3 2 25 1 5 4 37 1 1 6 3 76 0 4 0 5 8 4 5 103 0 8 0 0 6 8 0 103 0 3 3 2 95 0 2 2 39 77 0 6 6 1 97 7 1 1 1 40 1 78 21 37 33 37 33 37 54 34 16 9 9 31 
CALL[ ]	/* CallFunction */";
};
width = 662;
}
);
note = AE;
unicode = 198;
},
{
glyphname = Ccedilla;
kernLeft = C;
kernRight = C;
layers = (
{
layerId = m01;
shapes = (
{
closed = 1;
nodes = (
(419,44,qs),
(462,81,o),
(462,113,qs),
(463,125,o),
(452,125,qs),
(446,125,o),
(440,118,qs),
(367,36,o),
(266,36,qs),
(192,36,o),
(150,74,qs),
(103,118,o),
(103,206,qs),
(103,337,o),
(164,422,qs),
(234,519,o),
(354,519,qs),
(427,519,o),
(477,481,qs),
(499,464,o),
(502,464,qs),
(507,464,o),
(511,473,qs),
(517,489,ls),
(520,496,o),
(520,502,qs),
(520,523,o),
(472,543,qs),
(417,567,o),
(357,567,qs),
(231,567,o),
(148,479,qs),
(53,378,o),
(53,208,qs),
(56,78,o),
(123,27,qs),
(164,-5,o),
(226,-10,q),
(164,-87,l),
(163,-89,o),
(163,-91,qs),
(163,-93,o),
(166,-93,qs),
(199,-93,ls),
(215,-93,o),
(221,-84,qs),
(272,-11,l),
(272,-11,l),
(359,-6,o)
);
}
);
userData = {
assembly = "NPUSHB[ ]	/* 14 values pushed */
22 1 2 3 45 1 4 5 10 1 0 6 3 76 
MPPEM[ ]	/* MeasurePixelPerEm */
PUSHB[ ]	/* 1 value pushed */
12 
LT[ ]	/* LessThan */
IF[ ]	/* If */
NPUSHB[ ]	/* 43 values pushed */
0 2 3 5 3 2 5 128 0 5 4 3 5 4 126 0 0 6 6 0 113 0 3 3 1 97 0 1 1 39 77 0 4 4 6 97 7 1 6 6 49 6 78 
ELSE[ ]	/* Else */
MPPEM[ ]	/* MeasurePixelPerEm */
PUSHB[ ]	/* 1 value pushed */
36 
LT[ ]	/* LessThan */
IF[ ]	/* If */
NPUSHB[ ]	/* 42 values pushed */
0 2 3 5 3 2 5 128 0 5 4 3 5 4 126 0 0 6 0 134 0 3 3 1 97 0 1 1 39 77 0 4 4 6 97 7 1 6 6 49 6 78 
ELSE[ ]	/* Else */
NPUSHB[ ]	/* 40 values pushed */
0 2 3 5 3 2 5 128 0 5 4 3 5 4 126 0 0 6 0 134 0 1 0 3 2 1 3 105 0 4 4 6 97 7 1 6 6 49 6 78 
EIF[ ]	/* EndIf */
EIF[ ]	/* EndIf */
NPUSHB[ ]	/* 15 values pushed */
0 0 0 48 0 48 34 38 34 39 44 35 8 9 28 
CALL[ ]	/* CallFunction */";
};
width = 513;
}
);
note = Ccedilla;
unicode = 199;
},
{
glyphname = Egrave;
kernRight = E;
layers = (
{
layerId = m01;
shapes = (
{
closed = 1;
nodes = (
(334,251,ls),
(341,251,o),
(343,257,q),
(345,269,ls),
(346,274,o),
(346,277,qs),
(346,298,o),
(320,298,qs),
(129,298,l),
(166,509,l),
(397,509,ls),
(405,509,o),
(406,516,qs),
(408,527,ls),
(409,531,o),
(409,535,qs),
(409,556,o),
(383,556,qs),
(129,556,ls),
(124,556,o),
(123,549,qs),
(27,6,ls),
(27,5,o),
(27,4,qs),
(27,3,ls),
(27,0,o),
(31,0,qs),
(317,0,ls),
(325,0,o),
(326,7,qs),
(328,18,ls),
(329,22,o),
(329,26,qs),
(329,47,o),
(303,47,qs),
(85,47,l),
(121,251,l)
);
},
{
closed = 1;
nodes = (
(270,691,o),
(260,691,qs),
(215,691,ls),
(210,691,o),
(210,687,qs),
(210,686,o),
(211,685,qs),
(273,629,ls),
(283,619,o),
(295,619,qs),
(328,619,ls),
(332,619,o),
(332,623,qs),
(332,624,o),
(331,625,qs),
(279,682,ls)
);
}
);
userData = {
assembly = "NPUSHB[ ]	/* 64 values pushed */
20 1 3 2 30 1 5 4 3 1 1 0 3 76 0 7 6 7 133 0 6 2 6 133 0 4 0 5 0 4 5 103 0 3 3 2 95 0 2 2 39 77 0 0 0 1 95 0 1 1 40 1 78 53 52 37 33 37 55 37 32 8 9 30 
CALL[ ]	/* CallFunction */";
};
width = 404;
}
);
note = Egrave;
unicode = 200;
},
{
glyphname = Eacute;
kernRight = E;
layers = (
{
layerId = m01;
shapes = (
{
closed = 1;
nodes = (
(334,251,ls),
(341,251,o),
(343,257,q),
(345,269,ls),
(346,274,o),
(346,277,qs),
(346,298,o),
(320,298,qs),
(129,298,l),
(166,509,l),
(397,509,ls),
(405,509,o),
(406,516,qs),
(408,527,ls),
(409,531,o),
(409,535,qs),
(409,556,o),
(383,556,qs),
(129,556,ls),
(124,556,o),
(123,549,qs),
(27,6,ls),
(27,5,o),
(27,4,qs),
(27,3,ls),
(27,0,o),
(31,0,qs),
(317,0,ls),
(325,0,o),
(326,7,qs),
(328,18,ls),
(329,22,o),
(329,26,qs),
(329,47,o),
(303,47,qs),
(85,47,l),
(121,251,l)
);
},
{
closed = 1;
nodes = (
(222,622,qs),
(222,619,o),
(226,619,qs),
(262,619,ls),
(275,619,o),
(289,629,qs),
(370,685,ls),
(372,686,o),
(372,688,qs),
(372,691,o),
(368,691,qs),
(315,691,ls),
(303,691,o),
(292,682,qs),
(224,625,l),
(222,624,o)
);
}
);
userData = {
assembly = "NPUSHB[ ]	/* 64 values pushed */
20 1 3 2 30 1 5 4 3 1 1 0 3 76 0 6 7 6 133 0 7 2 7 133 0 4 0 5 0 4 5 103 0 3 3 2 95 0 2 2 39 77 0 0 0 1 95 0 1 1 40 1 78 38 35 37 33 37 55 37 32 8 9 30 
CALL[ ]	/* CallFunction */";
};
width = 404;
}
);
note = Eacute;
unicode = 201;
},
{
glyphname = Ecircumflex;
kernRight = E;
layers = (
{
layerId = m01;
shapes = (
{
closed = 1;
nodes = (
(334,251,ls),
(341,251,o),
(343,257,q),
(345,269,ls),
(346,274,o),
(346,277,qs),
(346,298,o),
(320,298,qs),
(129,298,l),
(166,509,l),
(397,509,ls),
(405,509,o),
(406,516,qs),
(408,527,ls),
(409,531,o),
(409,535,qs),
(409,556,o),
(383,556,qs),
(129,556,ls),
(124,556,o),
(123,549,qs),
(27,6,ls),
(27,5,o),
(27,4,qs),
(27,3,ls),
(27,0,o),
(31,0,qs),
(317,0,ls),
(325,0,o),
(326,7,qs),
(328,18,ls),
(329,22,o),
(329,26,qs),
(329,47,o),
(303,47,qs),
(85,47,l),
(121,251,l)
);
},
{
closed = 1;
nodes = (
(329,619,o),
(344,619,qs),
(374,619,ls),
(378,619,o),
(378,623,qs),
(378,624,o),
(377,625,qs),
(325,682,ls),
(316,691,o),
(306,691,qs),
(277,691,ls),
(265,691,o),
(254,682,qs),
(182,625,l),
(180,624,o),
(180,622,qs),
(180,619,o),
(184,619,qs),
(220,619,ls),
(234,619,o),
(246,629,qs),
(290,664,l),
(321,629,ls)
);
}
);
userData = {
assembly = "NPUSHB[ ]	/* 66 values pushed */
20 1 3 2 30 1 5 4 3 1 1 0 3 76 0 7 6 7 133 8 1 6 2 6 133 0 4 0 5 0 4 5 103 0 3 3 2 95 0 2 2 39 77 0 0 0 1 95 0 1 1 40 1 78 53 54 35 37 33 37 55 37 32 9 9 31 
CALL[ ]	/* CallFunction */";
};
width = 404;
}
);
note = Ecircumflex;
unicode = 202;
},
{
glyphname = Edieresis;
kernRight = E;
layers = (
{
layerId = m01;
shapes = (
{
closed = 1;
nodes = (
(334,251,ls),
(341,251,o),
(343,257,q),
(345,269,ls),
(346,274,o),
(346,277,qs),
(346,298,o),
(320,298,qs),
(129,298,l),
(166,509,l),
(397,509,ls),
(405,509,o),
(406,516,qs),
(408,527,ls),
(409,531,o),
(409,535,qs),
(409,556,o),
(383,556,qs),
(129,556,ls),
(124,556,o),
(123,549,qs),
(27,6,ls),
(27,5,o),
(27,4,qs),
(27,3,ls),
(27,0,o),
(31,0,qs),
(317,0,ls),
(325,0,o),
(326,7,qs),
(328,18,ls),
(329,22,o),
(329,26,qs),
(329,47,o),
(303,47,qs),
(85,47,l),
(121,251,l)
);
},
{
closed = 1;
nodes = (
(210,614,o),
(222,614,qs),
(238,614,o),
(260,637,o),
(260,653,qs),
(260,664,o),
(242,681,o),
(230,681,qs),
(215,681,o),
(192,657,o),
(192,642,qs),
(192,630,o)
);
},
{
closed = 1;
nodes = (
(322,614,o),
(334,614,qs),
(350,614,o),
(372,637,o),
(372,653,qs),
(372,664,o),
(354,681,o),
(342,681,qs),
(327,681,o),
(305,657,o),
(305,642,qs),
(305,630,o)
);
}
);
userData = {
assembly = "NPUSHB[ ]	/* 67 values pushed */
20 1 3 2 30 1 5 4 3 1 1 0 3 76 8 1 6 9 1 7 2 6 7 105 0 4 0 5 0 4 5 103 0 3 3 2 95 0 2 2 39 77 0 0 0 1 95 0 1 1 40 1 78 59 57 36 36 35 37 33 37 55 37 32 10 9 31 
CALL[ ]	/* CallFunction */";
};
width = 404;
}
);
note = Edieresis;
unicode = 203;
},
{
glyphname = Igrave;
kernRight = I;
layers = (
{
layerId = m01;
shapes = (
{
closed = 1;
nodes = (
(77,0,o),
(78,6,qs),
(166,504,ls),
(167,511,o),
(167,517,qs),
(167,556,o),
(134,556,qs),
(129,556,ls),
(124,556,o),
(123,549,qs),
(27,6,ls),
(27,5,o),
(27,4,qs),
(27,3,ls),
(27,0,o),
(31,0,qs),
(72,0,ls)
);
},
{
closed = 1;
nodes = (
(168,691,o),
(157,691,qs),
(112,691,ls),
(107,691,o),
(107,687,qs),
(107,686,o),
(108,685,qs),
(170,629,ls),
(180,619,o),
(193,619,qs),
(225,619,ls),
(230,619,o),
(230,623,qs),
(230,624,o),
(229,625,qs),
(176,682,ls)
);
}
);
userData = {
assembly = "NPUSHB[ ]	/* 42 values pushed */
11 1 1 0 1 76 0 3 2 3 133 0 2 0 2 133 0 0 0 39 77 4 1 1 1 40 1 78 0 0 31 28 23 20 0 16 0 15 55 5 9 23 
CALL[ ]	/* CallFunction */";
};
width = 196;
}
);
note = Igrave;
unicode = 204;
},
{
glyphname = Iacute;
kernRight = I;
layers = (
{
layerId = m01;
shapes = (
{
closed = 1;
nodes = (
(77,0,o),
(78,6,qs),
(166,504,ls),
(167,511,o),
(167,517,qs),
(167,556,o),
(134,556,qs),
(129,556,ls),
(124,556,o),
(123,549,qs),
(27,6,ls),
(27,5,o),
(27,4,qs),
(27,3,ls),
(27,0,o),
(31,0,qs),
(72,0,ls)
);
},
{
closed = 1;
nodes = (
(94,622,qs),
(94,619,o),
(98,619,qs),
(134,619,ls),
(147,619,o),
(161,629,qs),
(242,685,ls),
(244,686,o),
(244,688,qs),
(244,691,o),
(240,691,qs),
(187,691,ls),
(175,691,o),
(164,682,qs),
(96,625,l),
(94,624,o)
);
}
);
userData = {
assembly = "NPUSHB[ ]	/* 42 values pushed */
11 1 1 0 1 76 0 2 3 2 133 0 3 0 3 133 0 0 0 39 77 4 1 1 1 40 1 78 0 0 29 27 21 19 0 16 0 15 55 5 9 23 
CALL[ ]	/* CallFunction */";
};
width = 196;
}
);
note = Iacute;
unicode = 205;
},
{
glyphname = Icircumflex;
kernRight = I;
layers = (
{
layerId = m01;
shapes = (
{
closed = 1;
nodes = (
(77,0,o),
(78,6,qs),
(166,504,ls),
(167,511,o),
(167,517,qs),
(167,556,o),
(134,556,qs),
(129,556,ls),
(124,556,o),
(123,549,qs),
(27,6,ls),
(27,5,o),
(27,4,qs),
(27,3,ls),
(27,0,o),
(31,0,qs),
(72,0,ls)
);
},
{
closed = 1;
nodes = (
(212,619,o),
(227,619,qs),
(257,619,ls),
(262,619,o),
(262,623,qs),
(262,624,o),
(261,625,qs),
(208,682,ls),
(199,691,o),
(189,691,qs),
(160,691,ls),
(149,691,o),
(137,682,qs),
(65,625,l),
(63,624,o),
(63,622,qs),
(63,619,o),
(67,619,qs),
(103,619,ls),
(117,619,o),
(129,629,qs),
(173,664,l),
(204,629,ls)
);
}
);
userData = {
assembly = "NPUSHB[ ]	/* 45 values pushed */
11 1 1 0 1 76 0 3 2 3 133 4 1 2 0 2 133 0 0 0 39 77 5 1 1 1 40 1 78 0 0 38 35 30 27 21 19 0 16 0 15 55 6 9 23 
CALL[ ]	/* CallFunction */";
};
width = 196;
}
);
note = Icircumflex;
unicode = 206;
},
{
glyphname = Idieresis;
kernRight = I;
layers = (
{
layerId = m01;
shapes = (
{
closed = 1;
nodes = (
(77,0,o),
(78,6,qs),
(166,504,ls),
(167,511,o),
(167,517,qs),
(167,556,o),
(134,556,qs),
(129,556,ls),
(124,556,o),
(123,549,qs),
(27,6,ls),
(27,5,o),
(27,4,qs),
(27,3,ls),
(27,0,o),
(31,0,qs),
(72,0,ls)
);
},
{
closed = 1;
nodes = (
(93,614,o),
(105,614,qs),
(121,614,o),
(143,637,o),
(143,653,qs),
(143,664,o),
(125,681,o),
(113,681,qs),
(98,681,o),
(76,657,o),
(76,642,qs),
(76,630,o)
);
},
{
closed = 1;
nodes = (
(205,614,o),
(218,614,qs),
(233,614,o),
(256,637,o),
(256,653,qs),
(256,664,o),
(238,681,o),
(225,681,qs),
(210,681,o),
(188,657,o),
(188,642,qs),
(188,630,o)
);
}
);
userData = {
assembly = "NPUSHB[ ]	/* 46 values pushed */
11 1 1 0 1 76 4 1 2 5 1 3 0 2 3 105 0 0 0 39 77 6 1 1 1 40 1 78 0 0 39 37 33 31 27 25 21 19 0 16 0 15 55 7 9 23 
CALL[ ]	/* CallFunction */";
};
width = 196;
}
);
note = Idieresis;
unicode = 207;
},
{
glyphname = Eth;
layers = (
{
layerId = m01;
shapes = (
{
closed = 1;
nodes = (
(30,5,o),
(30,4,qs),
(30,0,o),
(34,0,qs),
(190,0,ls),
(374,0,o),
(451,119,qs),
(509,209,o),
(509,336,qs),
(509,441,o),
(460,494,qs),
(404,556,o),
(277,556,qs),
(132,556,ls),
(127,556,o),
(126,549,qs),
(83,304,l),
(26,304,ls),
(21,304,o),
(20,298,qs),
(14,264,ls),
(14,263,o),
(14,262,qs),
(14,258,o),
(18,258,qs),
(75,258,l),
(30,6,ls)
);
},
{
closed = 1;
nodes = (
(321,258,o),
(322,265,qs),
(324,276,ls),
(325,279,o),
(325,283,qs),
(325,304,o),
(299,304,qs),
(133,304,l),
(169,508,l),
(267,508,ls),
(458,508,o),
(458,343,qs),
(458,215,o),
(407,142,qs),
(341,47,o),
(197,47,qs),
(88,47,l),
(125,258,l),
(313,258,ls)
);
}
);
userData = {
assembly = "NPUSHB[ ]	/* 55 values pushed */
40 3 2 0 1 1 76 6 1 1 8 7 2 0 4 1 0 103 0 5 5 2 95 0 2 2 39 77 0 4 4 3 95 0 3 3 40 3 78 27 27 27 45 27 44 33 36 38 38 50 38 16 9 9 29 
CALL[ ]	/* CallFunction */";
};
width = 556;
}
);
note = Eth;
unicode = 208;
},
{
glyphname = Ntilde;
kernRight = N;
layers = (
{
layerId = m01;
shapes = (
{
closed = 1;
nodes = (
(172,541,o),
(155,556,o),
(134,556,qs),
(129,556,ls),
(124,556,o),
(123,549,qs),
(27,6,ls),
(27,5,o),
(27,3,qs),
(27,0,o),
(31,0,qs),
(72,0,ls),
(77,0,o),
(78,6,qs),
(157,454,l),
(344,13,ls),
(349,0,o),
(364,0,qs),
(398,0,ls),
(403,0,o),
(404,6,qs),
(492,504,ls),
(493,510,o),
(493,518,qs),
(493,556,o),
(461,556,qs),
(456,556,ls),
(451,556,o),
(450,549,qs),
(367,80,l),
(183,515,ls)
);
},
{
closed = 1;
nodes = (
(263,619,o),
(266,627,qs),
(272,644,o),
(285,644,qs),
(295,644,o),
(318,632,qs),
(348,617,o),
(369,617,qs),
(393,617,o),
(433,655,o),
(432,676,qs),
(432,680,o),
(427,680,qs),
(400,680,ls),
(394,680,o),
(391,674,qs),
(383,657,o),
(368,657,qs),
(358,657,o),
(335,668,qs),
(304,684,o),
(283,684,qs),
(262,684,o),
(225,646,o),
(225,623,qs),
(225,620,o),
(231,619,q),
(257,619,ls)
);
}
);
userData = {
assembly = "MPPEM[ ]	/* MeasurePixelPerEm */
PUSHB[ ]	/* 1 value pushed */
45 
LT[ ]	/* LessThan */
IF[ ]	/* If */
NPUSHB[ ]	/* 10 values pushed */
47 1 5 4 15 1 1 0 2 76 
ELSE[ ]	/* Else */
NPUSHB[ ]	/* 10 values pushed */
47 1 5 6 15 1 1 0 2 76 
EIF[ ]	/* EndIf */
MPPEM[ ]	/* MeasurePixelPerEm */
PUSHB[ ]	/* 1 value pushed */
45 
LT[ ]	/* LessThan */
IF[ ]	/* If */
NPUSHB[ ]	/* 32 values pushed */
6 1 4 0 8 7 4 8 105 0 5 10 9 2 7 0 5 7 105 3 1 0 0 39 77 2 1 1 1 40 1 78 
ELSE[ ]	/* Else */
NPUSHB[ ]	/* 39 values pushed */
0 6 4 5 4 6 5 128 0 4 0 8 7 4 8 105 0 5 10 9 2 7 0 5 7 105 3 1 0 0 39 77 2 1 1 1 40 1 78 
EIF[ ]	/* EndIf */
NPUSHB[ ]	/* 18 values pushed */
31 31 31 58 31 57 34 36 34 34 39 54 36 53 50 11 9 31 
CALL[ ]	/* CallFunction */";
};
width = 522;
}
);
note = Ntilde;
unicode = 209;
},
{
glyphname = Ograve;
kernLeft = O;
kernRight = O;
layers = (
{
layerId = m01;
shapes = (
{
closed = 1;
nodes = (
(471,90,qs),
(550,192,o),
(550,351,qs),
(549,442,o),
(500,500,qs),
(444,567,o),
(342,567,qs),
(213,567,o),
(133,465,qs),
(52,361,o),
(52,204,qs),
(53,113,o),
(102,56,qs),
(160,-10,o),
(263,-10,qs),
(394,-10,o)
);
},
{
closed = 1;
nodes = (
(107,116,o),
(103,190,qs),
(98,306,o),
(147,398,qs),
(211,520,o),
(338,520,qs),
(400,520,o),
(441,490,qs),
(499,447,o),
(499,354,qs),
(500,237,o),
(454,153,qs),
(392,38,o),
(267,37,qs),
(192,37,o)
);
},
{
closed = 1;
nodes = (
(366,691,o),
(356,691,qs),
(311,691,ls),
(306,691,o),
(306,687,qs),
(306,686,o),
(307,685,qs),
(369,629,ls),
(379,619,o),
(392,619,qs),
(424,619,ls),
(428,619,o),
(428,623,qs),
(428,624,o),
(427,625,qs),
(375,682,ls)
);
}
);
userData = {
assembly = "MPPEM[ ]	/* MeasurePixelPerEm */
PUSHB[ ]	/* 1 value pushed */
36 
LT[ ]	/* LessThan */
IF[ ]	/* If */
NPUSHB[ ]	/* 33 values pushed */
0 5 4 5 133 0 4 1 4 133 0 3 3 1 97 0 1 1 39 77 7 1 2 2 0 97 6 1 0 0 46 0 78 
ELSE[ ]	/* Else */
NPUSHB[ ]	/* 31 values pushed */
0 5 4 5 133 0 4 1 4 133 0 1 0 3 2 1 3 106 7 1 2 2 0 97 6 1 0 0 46 0 78 
EIF[ ]	/* EndIf */
NPUSHB[ ]	/* 23 values pushed */
17 16 1 0 45 42 37 34 25 23 16 30 17 30 9 7 0 15 1 15 8 9 22 
CALL[ ]	/* CallFunction */";
};
width = 597;
}
);
note = Ograve;
unicode = 210;
},
{
glyphname = Oacute;
kernLeft = O;
kernRight = O;
layers = (
{
layerId = m01;
shapes = (
{
closed = 1;
nodes = (
(471,90,qs),
(550,192,o),
(550,351,qs),
(549,442,o),
(500,500,qs),
(444,567,o),
(342,567,qs),
(213,567,o),
(133,465,qs),
(52,361,o),
(52,204,qs),
(53,113,o),
(102,56,qs),
(160,-10,o),
(263,-10,qs),
(394,-10,o)
);
},
{
closed = 1;
nodes = (
(107,116,o),
(103,190,qs),
(98,306,o),
(147,398,qs),
(211,520,o),
(338,520,qs),
(400,520,o),
(441,490,qs),
(499,447,o),
(499,354,qs),
(500,237,o),
(454,153,qs),
(392,38,o),
(267,37,qs),
(192,37,o)
);
},
{
closed = 1;
nodes = (
(294,622,qs),
(294,619,o),
(298,619,qs),
(334,619,ls),
(347,619,o),
(361,629,qs),
(443,685,ls),
(444,686,o),
(444,688,qs),
(444,691,o),
(440,691,qs),
(387,691,ls),
(375,691,o),
(364,682,qs),
(296,625,l),
(294,624,o)
);
}
);
userData = {
assembly = "MPPEM[ ]	/* MeasurePixelPerEm */
PUSHB[ ]	/* 1 value pushed */
36 
LT[ ]	/* LessThan */
IF[ ]	/* If */
NPUSHB[ ]	/* 33 values pushed */
0 4 5 4 133 0 5 1 5 133 0 3 3 1 97 0 1 1 39 77 7 1 2 2 0 97 6 1 0 0 46 0 78 
ELSE[ ]	/* Else */
NPUSHB[ ]	/* 31 values pushed */
0 4 5 4 133 0 5 1 5 133 0 1 0 3 2 1 3 106 7 1 2 2 0 97 6 1 0 0 46 0 78 
EIF[ ]	/* EndIf */
NPUSHB[ ]	/* 23 values pushed */
17 16 1 0 43 41 35 33 25 23 16 30 17 30 9 7 0 15 1 15 8 9 22 
CALL[ ]	/* CallFunction */";
};
width = 597;
}
);
note = Oacute;
unicode = 211;
},
{
glyphname = Ocircumflex;
kernLeft = O;
kernRight = O;
layers = (
{
layerId = m01;
shapes = (
{
closed = 1;
nodes = (
(471,90,qs),
(550,192,o),
(550,351,qs),
(549,442,o),
(500,500,qs),
(444,567,o),
(342,567,qs),
(213,567,o),
(133,465,qs),
(52,361,o),
(52,204,qs),
(53,113,o),
(102,56,qs),
(160,-10,o),
(263,-10,qs),
(394,-10,o)
);
},
{
closed = 1;
nodes = (
(107,116,o),
(103,190,qs),
(98,306,o),
(147,398,qs),
(211,520,o),
(338,520,qs),
(400,520,o),
(441,490,qs),
(499,447,o),
(499,354,qs),
(500,237,o),
(454,153,qs),
(392,38,o),
(267,37,qs),
(192,37,o)
);
},
{
closed = 1;
nodes = (
(409,619,o),
(425,619,qs),
(454,619,ls),
(459,619,o),
(459,623,qs),
(459,624,o),
(458,625,qs),
(405,682,ls),
(397,691,o),
(386,691,qs),
(357,691,ls),
(346,691,o),
(335,682,qs),
(262,625,l),
(260,624,o),
(260,622,qs),
(260,619,o),
(264,619,qs),
(300,619,ls),
(315,619,o),
(327,629,qs),
(371,664,l),
(401,629,ls)
);
}
);
userData = {
assembly = "MPPEM[ ]	/* MeasurePixelPerEm */
PUSHB[ ]	/* 1 value pushed */
36 
LT[ ]	/* LessThan */
IF[ ]	/* If */
NPUSHB[ ]	/* 34 values pushed */
0 5 4 5 133 6 1 4 1 4 133 0 3 3 1 97 0 1 1 39 77 8 1 2 2 0 97 7 1 0 0 46 0 78 
ELSE[ ]	/* Else */
NPUSHB[ ]	/* 32 values pushed */
0 5 4 5 133 6 1 4 1 4 133 0 1 0 3 2 1 3 106 8 1 2 2 0 97 7 1 0 0 46 0 78 
EIF[ ]	/* EndIf */
NPUSHB[ ]	/* 25 values pushed */
17 16 1 0 52 49 44 41 35 33 25 23 16 30 17 30 9 7 0 15 1 15 9 9 22 
CALL[ ]	/* CallFunction */";
};
width = 597;
}
);
note = Ocircumflex;
unicode = 212;
},
{
glyphname = Otilde;
kernLeft = O;
kernRight = O;
layers = (
{
layerId = m01;
shapes = (
{
closed = 1;
nodes = (
(471,90,qs),
(550,192,o),
(550,351,qs),
(549,442,o),
(500,500,qs),
(444,567,o),
(342,567,qs),
(213,567,o),
(133,465,qs),
(52,361,o),
(52,204,qs),
(53,113,o),
(102,56,qs),
(160,-10,o),
(263,-10,qs),
(394,-10,o)
);
},
{
closed = 1;
nodes = (
(107,116,o),
(103,190,qs),
(98,306,o),
(147,398,qs),
(211,520,o),
(338,520,qs),
(400,520,o),
(441,490,qs),
(499,447,o),
(499,354,qs),
(500,237,o),
(454,153,qs),
(392,38,o),
(267,37,qs),
(192,37,o)
);
},
{
closed = 1;
nodes = (
(301,619,o),
(303,627,q),
(310,644,o),
(322,644,qs),
(332,644,o),
(355,632,qs),
(385,617,o),
(406,617,qs),
(430,617,o),
(471,655,o),
(469,676,qs),
(469,680,o),
(464,680,qs),
(438,680,ls),
(431,680,o),
(428,674,qs),
(420,657,o),
(405,657,qs),
(396,657,o),
(373,668,qs),
(341,684,o),
(320,684,qs),
(299,684,o),
(263,646,o),
(263,623,qs),
(263,620,o),
(268,619,q),
(295,619,ls)
);
}
);
userData = {
assembly = "PUSHB[ ]	/* 6 values pushed */
33 1 7 8 1 76 
MPPEM[ ]	/* MeasurePixelPerEm */
PUSHB[ ]	/* 1 value pushed */
36 
LT[ ]	/* LessThan */
IF[ ]	/* If */
NPUSHB[ ]	/* 42 values pushed */
6 1 4 0 8 7 4 8 105 0 5 12 9 2 7 1 5 7 105 0 3 3 1 97 0 1 1 39 77 11 1 2 2 0 97 10 1 0 0 46 0 78 
ELSE[ ]	/* Else */
MPPEM[ ]	/* MeasurePixelPerEm */
PUSHB[ ]	/* 1 value pushed */
45 
LT[ ]	/* LessThan */
IF[ ]	/* If */
NPUSHB[ ]	/* 40 values pushed */
6 1 4 0 8 7 4 8 105 0 5 12 9 2 7 1 5 7 105 0 1 0 3 2 1 3 105 11 1 2 2 0 97 10 1 0 0 46 0 78 
ELSE[ ]	/* Else */
NPUSHB[ ]	/* 47 values pushed */
0 6 4 5 4 6 5 128 0 4 0 8 7 4 8 105 0 5 12 9 2 7 1 5 7 105 0 1 0 3 2 1 3 105 11 1 2 2 0 97 10 1 0 0 46 0 78 
EIF[ ]	/* EndIf */
EIF[ ]	/* EndIf */
NPUSHB[ ]	/* 35 values pushed */
31 31 17 16 1 0 31 58 31 57 55 53 51 49 45 43 41 39 37 35 25 23 16 30 17 30 9 7 0 15 1 15 13 9 22 
CALL[ ]	/* CallFunction */";
};
width = 597;
}
);
note = Otilde;
unicode = 213;
},
{
glyphname = Odieresis;
kernLeft = O;
kernRight = O;
layers = (
{
layerId = m01;
shapes = (
{
closed = 1;
nodes = (
(471,90,qs),
(550,192,o),
(550,351,qs),
(549,442,o),
(500,500,qs),
(444,567,o),
(342,567,qs),
(213,567,o),
(133,465,qs),
(52,361,o),
(52,204,qs),
(53,113,o),
(102,56,qs),
(160,-10,o),
(263,-10,qs),
(394,-10,o)
);
},
{
closed = 1;
nodes = (
(107,116,o),
(103,190,qs),
(98,306,o),
(147,398,qs),
(211,520,o),
(338,520,qs),
(400,520,o),
(441,490,qs),
(499,447,o),
(499,354,qs),
(500,237,o),
(454,153,qs),
(392,38,o),
(267,37,qs),
(192,37,o)
);
},
{
closed = 1;
nodes = (
(293,614,o),
(306,614,qs),
(321,614,o),
(344,637,o),
(344,653,qs),
(344,664,o),
(326,681,o),
(313,681,qs),
(298,681,o),
(276,657,o),
(276,642,qs),
(276,630,o)
);
},
{
closed = 1;
nodes = (
(406,614,o),
(418,614,qs),
(433,614,o),
(456,637,o),
(456,653,qs),
(456,664,o),
(438,681,o),
(425,681,qs),
(410,681,o),
(388,657,o),
(388,642,qs),
(388,630,o)
);
}
);
userData = {
assembly = "MPPEM[ ]	/* MeasurePixelPerEm */
PUSHB[ ]	/* 1 value pushed */
36 
LT[ ]	/* LessThan */
IF[ ]	/* If */
NPUSHB[ ]	/* 33 values pushed */
6 1 4 7 1 5 1 4 5 105 0 3 3 1 97 0 1 1 39 77 9 1 2 2 0 97 8 1 0 0 46 0 78 
ELSE[ ]	/* Else */
NPUSHB[ ]	/* 31 values pushed */
6 1 4 7 1 5 1 4 5 105 0 1 0 3 2 1 3 105 9 1 2 2 0 97 8 1 0 0 46 0 78 
EIF[ ]	/* EndIf */
NPUSHB[ ]	/* 27 values pushed */
17 16 1 0 53 51 47 45 41 39 35 33 25 23 16 30 17 30 9 7 0 15 1 15 10 9 22 
CALL[ ]	/* CallFunction */";
};
width = 597;
}
);
note = Odieresis;
unicode = 214;
},
{
glyphname = multiply;
layers = (
{
layerId = m01;
shapes = (
{
closed = 1;
nodes = (
(51,160,o),
(55,156,qs),
(77,134,ls),
(81,130,o),
(85,134,qs),
(195,245,l),
(280,158,ls),
(312,125,o),
(339,152,qs),
(342,155,o),
(338,160,qs),
(225,275,l),
(334,384,ls),
(338,388,o),
(334,392,qs),
(312,414,l),
(308,417,o),
(304,414,q),
(195,304,l),
(108,389,ls),
(77,422,o),
(50,396,qs),
(46,392,o),
(51,388,q),
(165,275,l),
(55,164,ls)
);
}
);
userData = {
assembly = "PUSHB[ ]	/* 4 values pushed */
17 4 1 50 
CALL[ ]	/* CallFunction */";
};
width = 384;
}
);
note = multiply;
unicode = 215;
},
{
glyphname = Oslash;
kernLeft = O;
kernRight = O;
layers = (
{
layerId = m01;
shapes = (
{
closed = 1;
nodes = (
(471,90,qs),
(550,192,o),
(550,351,qs),
(549,442,o),
(500,500,qs),
(444,567,o),
(342,567,qs),
(213,567,o),
(133,465,qs),
(52,361,o),
(52,204,qs),
(53,113,o),
(102,56,qs),
(160,-10,o),
(263,-10,qs),
(394,-10,o)
);
},
{
closed = 1;
nodes = (
(108,133,o),
(103,190,qs),
(98,306,o),
(147,398,qs),
(211,520,o),
(338,520,qs),
(405,518,o),
(445,487,q),
(130,100,l)
);
},
{
closed = 1;
nodes = (
(497,417,o),
(499,354,qs),
(500,237,o),
(454,153,qs),
(392,38,o),
(267,37,qs),
(199,39,o),
(158,69,q),
(472,457,l)
);
}
);
userData = {
assembly = "PUSHB[ ]	/* 8 values pushed */
33 24 22 3 3 2 1 76 
MPPEM[ ]	/* MeasurePixelPerEm */
PUSHB[ ]	/* 1 value pushed */
36 
LT[ ]	/* LessThan */
IF[ ]	/* If */
NPUSHB[ ]	/* 22 values pushed */
0 2 2 1 97 0 1 1 39 77 0 3 3 0 97 4 1 0 0 46 0 78 
ELSE[ ]	/* Else */
NPUSHB[ ]	/* 20 values pushed */
0 1 0 2 3 1 2 105 0 3 3 0 97 4 1 0 0 46 0 78 
EIF[ ]	/* EndIf */
NPUSHB[ ]	/* 15 values pushed */
1 0 28 26 19 17 9 7 0 15 1 15 5 9 22 
CALL[ ]	/* CallFunction */";
};
width = 597;
}
);
note = Oslash;
unicode = 216;
},
{
glyphname = Ugrave;
kernLeft = U;
kernRight = U;
layers = (
{
layerId = m01;
shapes = (
{
closed = 1;
nodes = (
(491,510,o),
(491,517,qs),
(491,556,o),
(458,556,qs),
(454,556,ls),
(450,556,o),
(448,549,q),
(387,202,ls),
(358,37,o),
(222,37,qs),
(104,37,o),
(104,145,qs),
(104,173,o),
(109,201,qs),
(162,504,ls),
(163,511,o),
(163,517,qs),
(163,556,o),
(130,556,qs),
(125,556,ls),
(120,556,o),
(119,549,qs),
(59,208,ls),
(54,177,o),
(53,149,qs),
(52,78,o),
(90,36,qs),
(132,-10,o),
(214,-10,qs),
(399,-10,o),
(433,184,qs),
(490,504,ls)
);
},
{
closed = 1;
nodes = (
(308,691,o),
(297,691,qs),
(252,691,ls),
(248,691,o),
(248,687,qs),
(248,686,o),
(248,685,q),
(310,629,ls),
(321,619,o),
(333,619,qs),
(365,619,ls),
(370,619,o),
(370,623,qs),
(370,624,o),
(369,625,qs),
(316,682,ls)
);
}
);
userData = {
assembly = "NPUSHB[ ]	/* 46 values pushed */
40 1 4 5 14 1 2 1 2 76 0 5 4 5 133 0 4 1 4 133 3 1 1 1 39 77 0 2 2 0 97 0 0 0 46 0 78 38 55 51 39 55 33 6 9 28 
CALL[ ]	/* CallFunction */";
};
width = 516;
}
);
note = Ugrave;
unicode = 217;
},
{
glyphname = Uacute;
kernLeft = U;
kernRight = U;
layers = (
{
layerId = m01;
shapes = (
{
closed = 1;
nodes = (
(491,510,o),
(491,517,qs),
(491,556,o),
(458,556,qs),
(454,556,ls),
(450,556,o),
(448,549,q),
(387,202,ls),
(358,37,o),
(222,37,qs),
(104,37,o),
(104,145,qs),
(104,173,o),
(109,201,qs),
(162,504,ls),
(163,511,o),
(163,517,qs),
(163,556,o),
(130,556,qs),
(125,556,ls),
(120,556,o),
(119,549,qs),
(59,208,ls),
(54,177,o),
(53,149,qs),
(52,78,o),
(90,36,qs),
(132,-10,o),
(214,-10,qs),
(399,-10,o),
(433,184,qs),
(490,504,ls)
);
},
{
closed = 1;
nodes = (
(254,622,qs),
(254,619,o),
(258,619,qs),
(294,619,ls),
(307,619,o),
(321,629,qs),
(402,685,ls),
(404,686,o),
(404,688,qs),
(404,691,o),
(400,691,qs),
(347,691,ls),
(335,691,o),
(324,682,qs),
(256,625,l),
(254,624,o)
);
}
);
userData = {
assembly = "NPUSHB[ ]	/* 42 values pushed */
14 1 2 1 1 76 0 4 5 4 133 0 5 1 5 133 3 1 1 1 39 77 0 2 2 0 97 0 0 0 46 0 78 38 38 51 39 55 33 6 9 28 
CALL[ ]	/* CallFunction */";
};
width = 516;
}
);
note = Uacute;
unicode = 218;
},
{
glyphname = Ucircumflex;
kernLeft = U;
kernRight = U;
layers = (
{
layerId = m01;
shapes = (
{
closed = 1;
nodes = (
(491,510,o),
(491,517,qs),
(491,556,o),
(458,556,qs),
(454,556,ls),
(450,556,o),
(448,549,q),
(387,202,ls),
(358,37,o),
(222,37,qs),
(104,37,o),
(104,145,qs),
(104,173,o),
(109,201,qs),
(162,504,ls),
(163,511,o),
(163,517,qs),
(163,556,o),
(130,556,qs),
(125,556,ls),
(120,556,o),
(119,549,qs),
(59,208,ls),
(54,177,o),
(53,149,qs),
(52,78,o),
(90,36,qs),
(132,-10,o),
(214,-10,qs),
(399,-10,o),
(433,184,qs),
(490,504,ls)
);
},
{
closed = 1;
nodes = (
(372,619,o),
(387,619,qs),
(417,619,ls),
(422,619,o),
(422,623,qs),
(422,624,o),
(421,625,qs),
(368,682,ls),
(360,691,o),
(349,691,qs),
(320,691,ls),
(309,691,o),
(297,682,qs),
(225,625,l),
(223,624,o),
(223,622,qs),
(223,619,o),
(227,619,qs),
(263,619,ls),
(278,619,o),
(289,629,qs),
(333,664,l),
(364,629,ls)
);
}
);
userData = {
assembly = "NPUSHB[ ]	/* 44 values pushed */
14 1 2 1 1 76 0 5 4 5 133 6 1 4 1 4 133 3 1 1 1 39 77 0 2 2 0 97 0 0 0 46 0 78 53 54 38 51 39 55 33 7 9 29 
CALL[ ]	/* CallFunction */";
};
width = 516;
}
);
note = Ucircumflex;
unicode = 219;
},
{
glyphname = Udieresis;
kernLeft = U;
kernRight = U;
layers = (
{
layerId = m01;
shapes = (
{
closed = 1;
nodes = (
(491,510,o),
(491,517,qs),
(491,556,o),
(458,556,qs),
(454,556,ls),
(450,556,o),
(448,549,q),
(387,202,ls),
(358,37,o),
(222,37,qs),
(104,37,o),
(104,145,qs),
(104,173,o),
(109,201,qs),
(162,504,ls),
(163,511,o),
(163,517,qs),
(163,556,o),
(130,556,qs),
(125,556,ls),
(120,556,o),
(119,549,qs),
(59,208,ls),
(54,177,o),
(53,149,qs),
(52,78,o),
(90,36,qs),
(132,-10,o),
(214,-10,qs),
(399,-10,o),
(433,184,qs),
(490,504,ls)
);
},
{
closed = 1;
nodes = (
(253,614,o),
(265,614,qs),
(281,614,o),
(303,637,o),
(303,653,qs),
(303,664,o),
(286,681,o),
(273,681,qs),
(258,681,o),
(236,657,o),
(236,642,qs),
(236,630,o)
);
},
{
closed = 1;
nodes = (
(365,614,o),
(378,614,qs),
(393,614,o),
(416,637,o),
(416,653,qs),
(416,664,o),
(398,681,o),
(385,681,qs),
(370,681,o),
(348,657,o),
(348,642,qs),
(348,630,o)
);
}
);
userData = {
assembly = "NPUSHB[ ]	/* 44 values pushed */
14 1 2 1 1 76 6 1 4 7 1 5 1 4 5 105 3 1 1 1 39 77 0 2 2 0 97 0 0 0 46 0 78 36 36 36 38 51 39 55 33 8 9 30 
CALL[ ]	/* CallFunction */";
};
width = 516;
}
);
note = Udieresis;
unicode = 220;
},
{
glyphname = Yacute;
kernLeft = Y;
kernRight = Y;
layers = (
{
layerId = m01;
shapes = (
{
closed = 1;
nodes = (
(142,5,o),
(142,3,qs),
(142,0,o),
(146,0,qs),
(186,0,ls),
(191,0,o),
(192,6,qs),
(229,219,l),
(467,547,l),
(469,549,o),
(469,552,qs),
(469,556,o),
(462,556,qs),
(426,556,ls),
(415,556,o),
(407,543,q),
(212,274,l),
(123,513,ls),
(107,556,o),
(74,556,qs),
(62,556,ls),
(57,556,o),
(56,551,qs),
(56,550,o),
(57,548,qs),
(180,219,l),
(142,6,ls)
);
},
{
closed = 1;
nodes = (
(214,622,qs),
(214,619,o),
(218,619,qs),
(254,619,ls),
(267,619,o),
(281,629,qs),
(362,685,ls),
(364,686,o),
(364,688,qs),
(364,691,o),
(360,691,qs),
(307,691,ls),
(295,691,o),
(284,682,qs),
(216,625,l),
(214,624,o)
);
}
);
userData = {
assembly = "NPUSHB[ ]	/* 37 values pushed */
9 1 2 2 0 1 76 0 3 4 3 133 0 4 0 4 133 1 1 0 0 39 77 0 2 2 40 2 78 38 39 38 52 52 5 9 27 
CALL[ ]	/* CallFunction */";
};
width = 422;
}
);
note = Yacute;
unicode = 221;
},
{
glyphname = Thorn;
layers = (
{
layerId = m01;
shapes = (
{
closed = 1;
nodes = (
(166,509,o),
(166,517,qs),
(166,556,o),
(134,556,qs),
(129,556,ls),
(124,556,o),
(123,549,qs),
(27,6,ls),
(27,5,o),
(27,4,qs),
(27,0,o),
(31,0,qs),
(71,0,ls),
(76,0,o),
(77,6,qs),
(85,52,l),
(96,110,l),
(242,110,ls),
(327,110,o),
(385,155,qs),
(455,208,o),
(455,303,qs),
(455,364,o),
(418,403,qs),
(374,451,o),
(295,451,qs),
(156,451,l),
(165,503,ls)
);
},
{
closed = 1;
nodes = (
(295,403,ls),
(344,403,o),
(402,349,o),
(402,302,qs),
(402,240,o),
(364,201,qs),
(322,157,o),
(248,157,qs),
(104,157,l),
(147,403,l)
);
}
);
userData = {
assembly = "NPUSHB[ ]	/* 36 values pushed */
0 0 0 5 4 0 5 104 0 4 0 1 2 4 1 103 0 3 3 39 77 0 2 2 40 2 78 37 36 54 35 38 32 6 9 28 
CALL[ ]	/* CallFunction */";
};
width = 484;
}
);
note = Thorn;
unicode = 222;
},
{
glyphname = germandbls;
layers = (
{
layerId = m01;
shapes = (
{
closed = 1;
nodes = (
(14,5,o),
(14,4,qs),
(14,0,o),
(18,0,qs),
(58,0,ls),
(63,0,o),
(64,6,qs),
(135,409,ls),
(144,460,o),
(207,519,o),
(252,519,qs),
(288,519,o),
(329,488,o),
(329,461,qs),
(329,427,o),
(274,375,qs),
(212,317,o),
(212,278,qs),
(212,236,o),
(274,188,qs),
(326,147,o),
(326,110,qs),
(326,77,o),
(277,37,o),
(237,37,qs),
(181,37,o),
(157,75,qs),
(147,90,o),
(143,90,qs),
(130,90,o),
(130,67,qs),
(130,33,o),
(192,-10,o),
(243,-10,qs),
(301,-10,o),
(378,62,o),
(378,116,qs),
(378,166,o),
(309,217,qs),
(261,253,o),
(261,285,qs),
(260,309,o),
(306,352,qs),
(351,394,o),
(381,441,o),
(381,467,qs),
(381,512,o),
(315,567,o),
(263,567,qs),
(113,567,o),
(87,418,qs),
(14,6,ls)
);
}
);
userData = {
assembly = "MPPEM[ ]	/* MeasurePixelPerEm */
PUSHB[ ]	/* 1 value pushed */
36 
LT[ ]	/* LessThan */
IF[ ]	/* If */
NPUSHB[ ]	/* 34 values pushed */
0 2 4 3 4 2 3 128 0 4 4 0 97 0 0 0 39 77 0 5 5 40 77 0 3 3 1 97 0 1 1 46 1 78 
ELSE[ ]	/* Else */
NPUSHB[ ]	/* 32 values pushed */
0 2 4 3 4 2 3 128 0 0 0 4 2 0 4 105 0 5 5 40 77 0 3 3 1 97 0 1 1 46 1 78 
EIF[ ]	/* EndIf */
NPUSHB[ ]	/* 9 values pushed */
36 44 35 19 45 33 6 9 28 
CALL[ ]	/* CallFunction */";
};
width = 439;
}
);
note = germandbls;
unicode = 223;
},
{
glyphname = agrave;
kernLeft = a;
kernRight = a;
layers = (
{
layerId = m01;
shapes = (
{
closed = 1;
nodes = (
(298,5,o),
(298,4,qs),
(298,0,o),
(302,0,qs),
(343,0,ls),
(348,0,o),
(349,6,qs),
(410,354,l),
(411,356,o),
(410,357,q),
(410,360,o),
(406,360,qs),
(401,360,ls),
(362,360,o),
(351,304,q),
(307,367,o),
(221,367,qs),
(138,367,o),
(85,315,qs),
(25,255,o),
(25,154,qs),
(25,76,o),
(100,-9,o),
(168,-9,qs),
(254,-9,o),
(307,57,q),
(298,6,ls)
);
},
{
closed = 1;
nodes = (
(76,99,o),
(76,150,qs),
(76,220,o),
(110,265,qs),
(150,320,o),
(222,320,qs),
(273,320,o),
(332,265,o),
(332,217,qs),
(332,144,o),
(294,94,qs),
(250,38,o),
(175,38,qs),
(130,38,o)
);
},
{
closed = 1;
nodes = (
(244,502,o),
(233,502,qs),
(188,502,ls),
(183,502,o),
(184,498,qs),
(184,497,o),
(184,496,q),
(246,440,ls),
(257,431,o),
(269,431,qs),
(301,431,ls),
(306,431,o),
(306,435,q),
(305,436,l),
(252,493,ls)
);
}
);
userData = {
assembly = "NPUSHB[ ]	/* 10 values pushed */
11 1 4 5 24 1 3 4 2 76 
MPPEM[ ]	/* MeasurePixelPerEm */
PUSHB[ ]	/* 1 value pushed */
27 
LT[ ]	/* LessThan */
IF[ ]	/* If */
NPUSHB[ ]	/* 38 values pushed */
0 7 6 7 133 0 6 1 6 133 0 5 5 1 97 2 1 1 1 48 77 0 3 3 40 77 8 1 4 4 0 97 0 0 0 49 0 78 
ELSE[ ]	/* Else */
NPUSHB[ ]	/* 42 values pushed */
0 7 6 7 133 0 6 1 6 133 0 2 2 42 77 0 5 5 1 97 0 1 1 48 77 0 3 3 40 77 8 1 4 4 0 97 0 0 0 49 0 78 
EIF[ ]	/* EndIf */
NPUSHB[ ]	/* 19 values pushed */
28 27 54 51 46 44 35 33 27 40 28 40 37 50 37 33 9 9 26 
CALL[ ]	/* CallFunction */";
};
width = 454;
}
);
note = agrave;
unicode = 224;
},
{
glyphname = aacute;
kernLeft = a;
kernRight = a;
layers = (
{
layerId = m01;
shapes = (
{
closed = 1;
nodes = (
(298,5,o),
(298,4,qs),
(298,0,o),
(302,0,qs),
(343,0,ls),
(348,0,o),
(349,6,qs),
(410,354,l),
(411,356,o),
(410,357,q),
(410,360,o),
(406,360,qs),
(401,360,ls),
(362,360,o),
(351,304,q),
(307,367,o),
(221,367,qs),
(138,367,o),
(85,315,qs),
(25,255,o),
(25,154,qs),
(25,76,o),
(100,-9,o),
(168,-9,qs),
(254,-9,o),
(307,57,q),
(298,6,ls)
);
},
{
closed = 1;
nodes = (
(76,99,o),
(76,150,qs),
(76,220,o),
(110,265,qs),
(150,320,o),
(222,320,qs),
(273,320,o),
(332,265,o),
(332,217,qs),
(332,144,o),
(294,94,qs),
(250,38,o),
(175,38,qs),
(130,38,o)
);
},
{
closed = 1;
nodes = (
(180,433,qs),
(180,431,o),
(184,431,qs),
(220,431,ls),
(233,431,o),
(247,440,qs),
(328,496,ls),
(330,497,o),
(330,499,qs),
(330,502,o),
(326,502,qs),
(273,502,ls),
(261,502,o),
(250,493,qs),
(182,436,l),
(180,435,o)
);
}
);
userData = {
assembly = "NPUSHB[ ]	/* 10 values pushed */
11 1 4 5 24 1 3 4 2 76 
MPPEM[ ]	/* MeasurePixelPerEm */
PUSHB[ ]	/* 1 value pushed */
27 
LT[ ]	/* LessThan */
IF[ ]	/* If */
NPUSHB[ ]	/* 38 values pushed */
0 6 7 6 133 0 7 1 7 133 0 5 5 1 97 2 1 1 1 48 77 0 3 3 40 77 8 1 4 4 0 97 0 0 0 49 0 78 
ELSE[ ]	/* Else */
NPUSHB[ ]	/* 42 values pushed */
0 6 7 6 133 0 7 1 7 133 0 2 2 42 77 0 5 5 1 97 0 1 1 48 77 0 3 3 40 77 8 1 4 4 0 97 0 0 0 49 0 78 
EIF[ ]	/* EndIf */
NPUSHB[ ]	/* 19 values pushed */
28 27 53 51 45 43 35 33 27 40 28 40 37 50 37 33 9 9 26 
CALL[ ]	/* CallFunction */";
};
width = 454;
}
);
note = aacute;
unicode = 225;
},
{
glyphname = acircumflex;
kernLeft = a;
kernRight = a;
layers = (
{
layerId = m01;
shapes = (
{
closed = 1;
nodes = (
(298,5,o),
(298,4,qs),
(298,0,o),
(302,0,qs),
(343,0,ls),
(348,0,o),
(349,6,qs),
(410,354,l),
(411,356,o),
(410,357,q),
(410,360,o),
(406,360,qs),
(401,360,ls),
(362,360,o),
(351,304,q),
(307,367,o),
(221,367,qs),
(138,367,o),
(85,315,qs),
(25,255,o),
(25,154,qs),
(25,76,o),
(100,-9,o),
(168,-9,qs),
(254,-9,o),
(307,57,q),
(298,6,ls)
);
},
{
closed = 1;
nodes = (
(76,99,o),
(76,150,qs),
(76,220,o),
(110,265,qs),
(150,320,o),
(222,320,qs),
(273,320,o),
(332,265,o),
(332,217,qs),
(332,144,o),
(294,94,qs),
(250,38,o),
(175,38,qs),
(130,38,o)
);
},
{
closed = 1;
nodes = (
(301,431,o),
(316,431,qs),
(346,431,ls),
(350,431,o),
(350,435,q),
(349,436,l),
(297,493,ls),
(288,502,o),
(278,502,qs),
(249,502,ls),
(237,502,o),
(226,493,qs),
(154,436,l),
(152,435,o),
(152,433,qs),
(152,431,o),
(156,431,qs),
(192,431,ls),
(206,431,o),
(218,440,qs),
(262,475,l),
(293,440,ls)
);
}
);
userData = {
assembly = "NPUSHB[ ]	/* 10 values pushed */
11 1 4 5 24 1 3 4 2 76 
MPPEM[ ]	/* MeasurePixelPerEm */
PUSHB[ ]	/* 1 value pushed */
27 
LT[ ]	/* LessThan */
IF[ ]	/* If */
NPUSHB[ ]	/* 39 values pushed */
0 7 6 7 133 8 1 6 1 6 133 0 5 5 1 97 2 1 1 1 48 77 0 3 3 40 77 9 1 4 4 0 97 0 0 0 49 0 78 
ELSE[ ]	/* Else */
NPUSHB[ ]	/* 43 values pushed */
0 7 6 7 133 8 1 6 1 6 133 0 2 2 42 77 0 5 5 1 97 0 1 1 48 77 0 3 3 40 77 9 1 4 4 0 97 0 0 0 49 0 78 
EIF[ ]	/* EndIf */
NPUSHB[ ]	/* 21 values pushed */
28 27 61 59 54 51 45 43 35 33 27 40 28 40 37 50 37 33 10 9 26 
CALL[ ]	/* CallFunction */";
};
width = 454;
}
);
note = acircumflex;
unicode = 226;
},
{
glyphname = atilde;
kernLeft = a;
kernRight = a;
layers = (
{
layerId = m01;
shapes = (
{
closed = 1;
nodes = (
(298,5,o),
(298,4,qs),
(298,0,o),
(302,0,qs),
(343,0,ls),
(348,0,o),
(349,6,qs),
(410,354,l),
(411,356,o),
(410,357,q),
(410,360,o),
(406,360,qs),
(401,360,ls),
(362,360,o),
(351,304,q),
(307,367,o),
(221,367,qs),
(138,367,o),
(85,315,qs),
(25,255,o),
(25,154,qs),
(25,76,o),
(100,-9,o),
(168,-9,qs),
(254,-9,o),
(307,57,q),
(298,6,ls)
);
},
{
closed = 1;
nodes = (
(76,99,o),
(76,150,qs),
(76,220,o),
(110,265,qs),
(150,320,o),
(222,320,qs),
(273,320,o),
(332,265,o),
(332,217,qs),
(332,144,o),
(294,94,qs),
(250,38,o),
(175,38,qs),
(130,38,o)
);
},
{
closed = 1;
nodes = (
(192,431,o),
(195,438,qs),
(201,455,o),
(214,455,qs),
(224,455,o),
(247,443,qs),
(276,428,o),
(298,428,qs),
(322,428,o),
(362,466,o),
(361,487,qs),
(361,491,o),
(356,491,qs),
(329,491,ls),
(323,491,o),
(320,485,qs),
(312,468,o),
(297,468,qs),
(287,468,o),
(264,480,qs),
(233,495,o),
(211,495,qs),
(190,495,o),
(154,457,o),
(154,434,qs),
(154,431,o),
(160,431,qs),
(186,431,ls)
);
}
);
userData = {
assembly = "MPPEM[ ]	/* MeasurePixelPerEm */
PUSHB[ ]	/* 1 value pushed */
45 
LT[ ]	/* LessThan */
IF[ ]	/* If */
NPUSHB[ ]	/* 18 values pushed */
57 1 7 6 43 1 9 10 11 1 4 5 24 1 3 4 4 76 
ELSE[ ]	/* Else */
NPUSHB[ ]	/* 18 values pushed */
57 1 7 8 43 1 9 10 11 1 4 5 24 1 3 4 4 76 
EIF[ ]	/* EndIf */
MPPEM[ ]	/* MeasurePixelPerEm */
PUSHB[ ]	/* 1 value pushed */
27 
LT[ ]	/* LessThan */
IF[ ]	/* If */
NPUSHB[ ]	/* 47 values pushed */
8 1 6 0 10 9 6 10 105 0 7 13 11 2 9 1 7 9 105 0 5 5 1 97 2 1 1 1 48 77 0 3 3 40 77 12 1 4 4 0 97 0 0 0 49 0 78 
ELSE[ ]	/* Else */
MPPEM[ ]	/* MeasurePixelPerEm */
PUSHB[ ]	/* 1 value pushed */
45 
LT[ ]	/* LessThan */
IF[ ]	/* If */
NPUSHB[ ]	/* 51 values pushed */
8 1 6 0 10 9 6 10 105 0 7 13 11 2 9 1 7 9 105 0 2 2 42 77 0 5 5 1 97 0 1 1 48 77 0 3 3 40 77 12 1 4 4 0 97 0 0 0 49 0 78 
ELSE[ ]	/* Else */
NPUSHB[ ]	/* 58 values pushed */
0 8 6 7 6 8 7 128 0 6 0 10 9 6 10 105 0 7 13 11 2 9 1 7 9 105 0 2 2 42 77 0 5 5 1 97 0 1 1 48 77 0 3 3 40 77 12 1 4 4 0 97 0 0 0 49 0 78 
EIF[ ]	/* EndIf */
EIF[ ]	/* EndIf */
NPUSHB[ ]	/* 31 values pushed */
41 41 28 27 41 68 41 67 65 63 61 59 55 53 51 49 47 45 35 33 27 40 28 40 37 50 37 33 14 9 26 
CALL[ ]	/* CallFunction */";
};
width = 454;
}
);
note = atilde;
unicode = 227;
},
{
glyphname = adieresis;
kernLeft = a;
kernRight = a;
layers = (
{
layerId = m01;
shapes = (
{
closed = 1;
nodes = (
(298,5,o),
(298,4,qs),
(298,0,o),
(302,0,qs),
(343,0,ls),
(348,0,o),
(349,6,qs),
(410,354,l),
(411,356,o),
(410,357,q),
(410,360,o),
(406,360,qs),
(401,360,ls),
(362,360,o),
(351,304,q),
(307,367,o),
(221,367,qs),
(138,367,o),
(85,315,qs),
(25,255,o),
(25,154,qs),
(25,76,o),
(100,-9,o),
(168,-9,qs),
(254,-9,o),
(307,57,q),
(298,6,ls)
);
},
{
closed = 1;
nodes = (
(76,99,o),
(76,150,qs),
(76,220,o),
(110,265,qs),
(150,320,o),
(222,320,qs),
(273,320,o),
(332,265,o),
(332,217,qs),
(332,144,o),
(294,94,qs),
(250,38,o),
(175,38,qs),
(130,38,o)
);
},
{
closed = 1;
nodes = (
(176,426,o),
(188,426,qs),
(204,426,o),
(226,448,o),
(227,464,qs),
(227,475,o),
(209,492,o),
(196,492,qs),
(181,492,o),
(159,469,o),
(159,453,qs),
(159,442,o)
);
},
{
closed = 1;
nodes = (
(289,426,o),
(301,426,qs),
(316,426,o),
(339,448,o),
(339,464,qs),
(339,475,o),
(321,492,o),
(308,492,qs),
(293,492,o),
(271,469,o),
(271,453,qs),
(271,442,o)
);
}
);
userData = {
assembly = "NPUSHB[ ]	/* 10 values pushed */
11 1 4 5 24 1 3 4 2 76 
MPPEM[ ]	/* MeasurePixelPerEm */
PUSHB[ ]	/* 1 value pushed */
27 
LT[ ]	/* LessThan */
IF[ ]	/* If */
NPUSHB[ ]	/* 38 values pushed */
8 1 6 9 1 7 1 6 7 105 0 5 5 1 97 2 1 1 1 48 77 0 3 3 40 77 10 1 4 4 0 97 0 0 0 49 0 78 
ELSE[ ]	/* Else */
NPUSHB[ ]	/* 42 values pushed */
8 1 6 9 1 7 1 6 7 105 0 2 2 42 77 0 5 5 1 97 0 1 1 48 77 0 3 3 40 77 10 1 4 4 0 97 0 0 0 49 0 78 
EIF[ ]	/* EndIf */
NPUSHB[ ]	/* 23 values pushed */
28 27 63 61 57 55 51 49 45 43 35 33 27 40 28 40 37 50 37 33 11 9 26 
CALL[ ]	/* CallFunction */";
};
width = 454;
}
);
note = adieresis;
unicode = 228;
},
{
glyphname = aring;
kernLeft = a;
kernRight = a;
layers = (
{
layerId = m01;
shapes = (
{
closed = 1;
nodes = (
(298,5,o),
(298,4,qs),
(298,0,o),
(302,0,qs),
(343,0,ls),
(348,0,o),
(349,6,qs),
(410,354,l),
(411,356,o),
(410,357,q),
(410,360,o),
(406,360,qs),
(401,360,ls),
(362,360,o),
(351,304,q),
(307,367,o),
(221,367,qs),
(138,367,o),
(85,315,qs),
(25,255,o),
(25,154,qs),
(25,76,o),
(100,-9,o),
(168,-9,qs),
(254,-9,o),
(307,57,q),
(298,6,ls)
);
},
{
closed = 1;
nodes = (
(76,99,o),
(76,150,qs),
(76,220,o),
(110,265,qs),
(150,320,o),
(222,320,qs),
(273,320,o),
(332,265,o),
(332,217,qs),
(332,144,o),
(294,94,qs),
(250,38,o),
(175,38,qs),
(130,38,o)
);
},
{
closed = 1;
nodes = (
(224,421,o),
(247,421,qs),
(277,421,o),
(322,462,o),
(322,491,qs),
(322,514,o),
(288,548,o),
(265,548,qs),
(234,548,o),
(190,507,o),
(190,478,qs),
(190,455,o)
);
},
{
closed = 1;
nodes = (
(223,477,qs),
(223,494,o),
(246,519,o),
(262,519,qs),
(289,519,o),
(289,492,qs),
(289,474,o),
(266,450,o),
(250,450,qs),
(223,450,o)
);
}
);
userData = {
assembly = "NPUSHB[ ]	/* 10 values pushed */
11 1 4 5 24 1 3 4 2 76 
MPPEM[ ]	/* MeasurePixelPerEm */
PUSHB[ ]	/* 1 value pushed */
27 
LT[ ]	/* LessThan */
IF[ ]	/* If */
NPUSHB[ ]	/* 47 values pushed */
11 1 8 0 7 1 8 7 105 0 9 9 6 97 0 6 6 39 77 0 5 5 1 97 2 1 1 1 48 77 0 3 3 40 77 10 1 4 4 0 97 0 0 0 49 0 78 
ELSE[ ]	/* Else */
MPPEM[ ]	/* MeasurePixelPerEm */
PUSHB[ ]	/* 1 value pushed */
49 
LT[ ]	/* LessThan */
IF[ ]	/* If */
NPUSHB[ ]	/* 51 values pushed */
11 1 8 0 7 1 8 7 105 0 9 9 6 97 0 6 6 39 77 0 2 2 42 77 0 5 5 1 97 0 1 1 48 77 0 3 3 40 77 10 1 4 4 0 97 0 0 0 49 0 78 
ELSE[ ]	/* Else */
NPUSHB[ ]	/* 49 values pushed */
0 6 0 9 8 6 9 105 11 1 8 0 7 1 8 7 105 0 2 2 42 77 0 5 5 1 97 0 1 1 48 77 0 3 3 40 77 10 1 4 4 0 97 0 0 0 49 0 78 
EIF[ ]	/* EndIf */
EIF[ ]	/* EndIf */
NPUSHB[ ]	/* 27 values pushed */
54 53 28 27 59 57 53 62 54 62 51 49 45 43 35 33 27 40 28 40 37 50 37 33 12 9 26 
CALL[ ]	/* CallFunction */";
};
width = 454;
}
);
note = aring;
unicode = 229;
},
{
glyphname = ae;
kernLeft = a;
kernRight = e;
layers = (
{
layerId = m01;
shapes = (
{
closed = 1;
nodes = (
(411,356,o),
(410,357,q),
(410,360,o),
(406,360,qs),
(401,360,ls),
(363,360,o),
(352,305,q),
(309,367,o),
(221,367,qs),
(138,367,o),
(85,315,qs),
(25,255,o),
(25,154,qs),
(25,76,o),
(100,-9,o),
(168,-9,qs),
(254,-9,o),
(307,57,q),
(298,6,ls),
(298,5,o),
(298,4,qs),
(298,0,o),
(302,0,qs),
(343,0,ls),
(348,0,o),
(349,6,qs),
(358,58,l),
(392,-6,o),
(477,-9,qs),
(545,-9,o),
(630,42,o),
(630,83,qs),
(630,92,o),
(624,92,qs),
(620,92,o),
(612,85,qs),
(565,37,o),
(489,37,qs),
(441,37,o),
(382,88,o),
(378,134,qs),
(377,146,o),
(379,160,q),
(635,160,ls),
(647,160,o),
(652,176,qs),
(660,207,o),
(660,241,qs),
(660,292,o),
(627,326,qs),
(589,367,o),
(524,367,qs),
(442,364,o),
(403,313,q),
(410,354,l)
);
},
{
closed = 1;
nodes = (
(76,99,o),
(76,150,qs),
(76,220,o),
(110,265,qs),
(150,320,o),
(222,320,qs),
(273,320,o),
(332,265,o),
(332,217,qs),
(332,144,o),
(294,94,qs),
(250,38,o),
(175,38,qs),
(130,38,o)
);
},
{
closed = 1;
nodes = (
(520,321,qs),
(562,321,o),
(610,277,o),
(610,238,qs),
(610,226,o),
(606,203,q),
(386,203,l),
(425,321,o)
);
}
);
userData = {
assembly = "MPPEM[ ]	/* MeasurePixelPerEm */
PUSHB[ ]	/* 1 value pushed */
23 
LT[ ]	/* LessThan */
IF[ ]	/* If */
NPUSHB[ ]	/* 15 values pushed */
47 1 11 10 36 27 2 2 3 33 1 4 2 3 76 
ELSE[ ]	/* Else */
NPUSHB[ ]	/* 15 values pushed */
47 1 11 10 36 27 2 2 3 33 1 5 2 3 76 
EIF[ ]	/* EndIf */
MPPEM[ ]	/* MeasurePixelPerEm */
PUSHB[ ]	/* 1 value pushed */
10 
LT[ ]	/* LessThan */
IF[ ]	/* If */
NPUSHB[ ]	/* 44 values pushed */
0 3 1 2 1 3 2 128 0 11 0 1 3 11 1 104 12 1 10 10 0 97 8 7 2 0 0 48 77 13 9 2 2 2 4 97 6 5 2 4 4 46 4 78 
ELSE[ ]	/* Else */
MPPEM[ ]	/* MeasurePixelPerEm */
PUSHB[ ]	/* 1 value pushed */
23 
LT[ ]	/* LessThan */
IF[ ]	/* If */
NPUSHB[ ]	/* 44 values pushed */
0 3 1 2 1 3 2 128 0 11 0 1 3 11 1 104 12 1 10 10 0 97 8 7 2 0 0 48 77 13 9 2 2 2 4 97 6 5 2 4 4 49 4 78 
ELSE[ ]	/* Else */
MPPEM[ ]	/* MeasurePixelPerEm */
PUSHB[ ]	/* 1 value pushed */
36 
LT[ ]	/* LessThan */
IF[ ]	/* If */
NPUSHB[ ]	/* 48 values pushed */
0 3 1 2 1 3 2 128 0 11 0 1 3 11 1 104 12 1 10 10 0 97 8 7 2 0 0 48 77 0 5 5 40 77 13 9 2 2 2 4 97 6 1 4 4 49 4 78 
ELSE[ ]	/* Else */
NPUSHB[ ]	/* 52 values pushed */
0 3 1 2 1 3 2 128 0 11 0 1 3 11 1 104 0 8 8 42 77 12 1 10 10 0 97 7 1 0 0 48 77 0 5 5 40 77 13 9 2 2 2 4 97 6 1 4 4 49 4 78 
EIF[ ]	/* EndIf */
EIF[ ]	/* EndIf */
EIF[ ]	/* EndIf */
NPUSHB[ ]	/* 24 values pushed */
56 55 76 74 70 69 63 61 55 68 56 68 50 37 38 35 35 34 36 38 33 14 9 31 
CALL[ ]	/* CallFunction */";
};
width = 712;
}
);
note = ae;
unicode = 230;
},
{
glyphname = ccedilla;
kernLeft = c;
kernRight = c;
layers = (
{
layerId = m01;
shapes = (
{
closed = 1;
nodes = (
(79,-82,o),
(79,-84,qs),
(79,-86,o),
(83,-86,qs),
(116,-86,ls),
(131,-86,o),
(138,-77,qs),
(185,-9,l),
(234,-6,o),
(304,44,o),
(306,79,qs),
(306,89,o),
(299,89,qs),
(294,89,o),
(287,82,qs),
(243,37,o),
(182,37,qs),
(133,37,o),
(76,93,o),
(76,141,qs),
(76,213,o),
(108,260,qs),
(148,320,o),
(230,320,qs),
(276,320,o),
(318,294,qs),
(321,292,o),
(323,292,qs),
(327,292,o),
(329,298,qs),
(336,313,ls),
(339,320,o),
(339,326,qs),
(339,343,o),
(276,367,o),
(232,367,qs),
(134,367,o),
(79,307,qs),
(24,246,o),
(24,137,qs),
(26,80,o),
(54,43,qs),
(85,3,o),
(139,-7,q),
(81,-80,ls)
);
}
);
userData = {
assembly = "PUSHB[ ]	/* 6 values pushed */
11 1 1 0 1 76 
MPPEM[ ]	/* MeasurePixelPerEm */
PUSHB[ ]	/* 1 value pushed */
10 
LT[ ]	/* LessThan */
IF[ ]	/* If */
NPUSHB[ ]	/* 34 values pushed */
0 3 1 2 1 3 2 128 0 5 4 5 134 0 1 1 0 97 0 0 0 48 77 0 2 2 4 97 0 4 4 46 4 78 
ELSE[ ]	/* Else */
NPUSHB[ ]	/* 34 values pushed */
0 3 1 2 1 3 2 128 0 5 4 5 134 0 1 1 0 97 0 0 0 48 77 0 2 2 4 97 0 4 4 49 4 78 
EIF[ ]	/* EndIf */
NPUSHB[ ]	/* 9 values pushed */
34 19 34 37 42 39 6 9 28 
CALL[ ]	/* CallFunction */";
};
width = 362;
}
);
note = ccedilla;
unicode = 231;
},
{
glyphname = egrave;
kernLeft = e;
kernRight = e;
layers = (
{
layerId = m01;
shapes = (
{
closed = 1;
nodes = (
(345,160,o),
(349,176,qs),
(357,206,o),
(357,241,qs),
(357,292,o),
(325,326,qs),
(286,367,o),
(222,367,qs),
(135,367,o),
(83,310,qs),
(25,246,o),
(25,134,qs),
(25,77,o),
(61,38,qs),
(104,-9,o),
(174,-9,qs),
(242,-9,o),
(328,42,o),
(328,83,qs),
(328,92,o),
(322,92,qs),
(317,92,o),
(310,85,qs),
(263,37,o),
(186,37,qs),
(138,37,o),
(79,88,o),
(75,134,qs),
(74,145,o),
(76,160,q),
(332,160,ls)
);
},
{
closed = 1;
nodes = (
(217,321,qs),
(259,321,o),
(307,277,o),
(307,238,qs),
(307,227,o),
(303,203,q),
(84,203,l),
(117,321,o)
);
},
{
closed = 1;
nodes = (
(237,502,o),
(226,502,qs),
(181,502,ls),
(176,502,o),
(176,498,qs),
(176,497,o),
(177,496,qs),
(239,440,ls),
(249,431,o),
(262,431,qs),
(294,431,ls),
(299,431,o),
(299,435,q),
(298,436,l),
(245,493,ls)
);
}
);
userData = {
assembly = "NPUSHB[ ]	/* 69 values pushed */
0 8 7 8 133 0 7 3 7 133 0 1 4 0 4 1 0 128 0 5 9 1 4 1 5 4 103 0 6 6 3 97 0 3 3 48 77 0 0 0 2 97 0 2 2 49 2 78 0 0 52 49 44 42 38 36 32 31 0 30 0 29 38 35 34 36 10 9 26 
CALL[ ]	/* CallFunction */";
};
width = 406;
}
);
note = egrave;
unicode = 232;
},
{
glyphname = eacute;
kernLeft = e;
kernRight = e;
layers = (
{
layerId = m01;
shapes = (
{
closed = 1;
nodes = (
(345,160,o),
(349,176,qs),
(357,206,o),
(357,241,qs),
(357,292,o),
(325,326,qs),
(286,367,o),
(222,367,qs),
(135,367,o),
(83,310,qs),
(25,246,o),
(25,134,qs),
(25,77,o),
(61,38,qs),
(104,-9,o),
(174,-9,qs),
(242,-9,o),
(328,42,o),
(328,83,qs),
(328,92,o),
(322,92,qs),
(317,92,o),
(310,85,qs),
(263,37,o),
(186,37,qs),
(138,37,o),
(79,88,o),
(75,134,qs),
(74,145,o),
(76,160,q),
(332,160,ls)
);
},
{
closed = 1;
nodes = (
(217,321,qs),
(259,321,o),
(307,277,o),
(307,238,qs),
(307,227,o),
(303,203,q),
(84,203,l),
(117,321,o)
);
},
{
closed = 1;
nodes = (
(169,433,qs),
(169,431,o),
(173,431,qs),
(210,431,ls),
(223,431,o),
(237,440,qs),
(318,496,ls),
(320,497,o),
(320,499,qs),
(320,502,o),
(316,502,qs),
(262,502,ls),
(250,502,o),
(240,493,qs),
(171,436,l),
(169,435,o)
);
}
);
userData = {
assembly = "NPUSHB[ ]	/* 69 values pushed */
0 7 8 7 133 0 8 3 8 133 0 1 4 0 4 1 0 128 0 5 9 1 4 1 5 4 103 0 6 6 3 97 0 3 3 48 77 0 0 0 2 97 0 2 2 49 2 78 0 0 51 49 43 41 38 36 32 31 0 30 0 29 38 35 34 36 10 9 26 
CALL[ ]	/* CallFunction */";
};
width = 406;
}
);
note = eacute;
unicode = 233;
},
{
glyphname = ecircumflex;
kernLeft = e;
kernRight = e;
layers = (
{
layerId = m01;
shapes = (
{
closed = 1;
nodes = (
(345,160,o),
(349,176,qs),
(357,206,o),
(357,241,qs),
(357,292,o),
(325,326,qs),
(286,367,o),
(222,367,qs),
(135,367,o),
(83,310,qs),
(25,246,o),
(25,134,qs),
(25,77,o),
(61,38,qs),
(104,-9,o),
(174,-9,qs),
(242,-9,o),
(328,42,o),
(328,83,qs),
(328,92,o),
(322,92,qs),
(317,92,o),
(310,85,qs),
(263,37,o),
(186,37,qs),
(138,37,o),
(79,88,o),
(75,134,qs),
(74,145,o),
(76,160,q),
(332,160,ls)
);
},
{
closed = 1;
nodes = (
(217,321,qs),
(259,321,o),
(307,277,o),
(307,238,qs),
(307,227,o),
(303,203,q),
(84,203,l),
(117,321,o)
);
},
{
closed = 1;
nodes = (
(289,431,o),
(304,431,qs),
(334,431,ls),
(339,431,o),
(339,435,q),
(338,436,l),
(285,493,ls),
(277,502,o),
(266,502,qs),
(237,502,ls),
(226,502,o),
(215,493,qs),
(142,436,l),
(140,435,o),
(140,433,qs),
(140,431,o),
(144,431,qs),
(180,431,ls),
(195,431,o),
(207,440,qs),
(251,475,l),
(281,440,ls)
);
}
);
userData = {
assembly = "NPUSHB[ ]	/* 78 values pushed */
54 1 7 8 1 76 0 8 7 8 133 9 1 7 3 7 133 0 1 4 0 4 1 0 128 0 5 10 1 4 1 5 4 103 0 6 6 3 97 0 3 3 48 77 0 0 0 2 97 0 2 2 49 2 78 0 0 59 57 52 49 43 41 38 36 32 31 0 30 0 29 38 35 34 36 11 9 26 
CALL[ ]	/* CallFunction */";
};
width = 406;
}
);
note = ecircumflex;
unicode = 234;
},
{
glyphname = edieresis;
kernLeft = e;
kernRight = e;
layers = (
{
layerId = m01;
shapes = (
{
closed = 1;
nodes = (
(345,160,o),
(349,176,qs),
(357,206,o),
(357,241,qs),
(357,292,o),
(325,326,qs),
(286,367,o),
(222,367,qs),
(135,367,o),
(83,310,qs),
(25,246,o),
(25,134,qs),
(25,77,o),
(61,38,qs),
(104,-9,o),
(174,-9,qs),
(242,-9,o),
(328,42,o),
(328,83,qs),
(328,92,o),
(322,92,qs),
(317,92,o),
(310,85,qs),
(263,37,o),
(186,37,qs),
(138,37,o),
(79,88,o),
(75,134,qs),
(74,145,o),
(76,160,q),
(332,160,ls)
);
},
{
closed = 1;
nodes = (
(217,321,qs),
(259,321,o),
(307,277,o),
(307,238,qs),
(307,227,o),
(303,203,q),
(84,203,l),
(117,321,o)
);
},
{
closed = 1;
nodes = (
(169,426,o),
(181,426,qs),
(197,426,o),
(219,448,o),
(219,464,qs),
(219,475,o),
(201,492,o),
(189,492,qs),
(174,492,o),
(151,469,o),
(151,453,qs),
(152,442,o)
);
},
{
closed = 1;
nodes = (
(281,426,o),
(293,426,qs),
(309,426,o),
(331,448,o),
(331,464,qs),
(331,475,o),
(314,492,o),
(301,492,qs),
(286,492,o),
(264,469,o),
(264,453,qs),
(264,442,o)
);
}
);
userData = {
assembly = "NPUSHB[ ]	/* 79 values pushed */
39 1 8 7 1 76 0 1 4 0 4 1 0 128 9 1 7 10 1 8 3 7 8 105 0 5 11 1 4 1 5 4 103 0 6 6 3 97 0 3 3 48 77 0 0 0 2 97 0 2 2 49 2 78 0 0 61 59 55 53 49 47 43 41 38 36 32 31 0 30 0 29 38 35 34 36 12 9 26 
CALL[ ]	/* CallFunction */";
};
width = 406;
}
);
note = edieresis;
unicode = 235;
},
{
glyphname = igrave;
kernLeft = i;
kernRight = i;
layers = (
{
layerId = m01;
shapes = (
{
closed = 1;
nodes = (
(63,0,o),
(64,6,qs),
(117,308,ls),
(118,315,o),
(118,322,qs),
(118,360,o),
(85,360,qs),
(82,360,ls),
(77,360,o),
(76,354,qs),
(14,6,ls),
(14,5,o),
(14,4,qs),
(14,0,o),
(18,0,qs),
(58,0,ls)
);
},
{
closed = 1;
nodes = (
(121,502,o),
(110,502,qs),
(65,502,ls),
(61,502,o),
(61,498,qs),
(61,497,o),
(61,496,q),
(123,440,ls),
(134,431,o),
(146,431,qs),
(178,431,ls),
(183,431,o),
(183,435,q),
(182,436,l),
(129,493,ls)
);
}
);
userData = {
assembly = "NPUSHB[ ]	/* 42 values pushed */
23 1 2 3 1 76 0 3 2 3 133 0 2 0 2 133 0 0 0 42 77 4 1 1 1 40 1 78 0 0 29 27 21 19 0 15 0 14 54 5 9 23 
CALL[ ]	/* CallFunction */";
};
width = 170;
}
);
note = igrave;
unicode = 236;
},
{
glyphname = iacute;
kernLeft = i;
kernRight = i;
layers = (
{
layerId = m01;
shapes = (
{
closed = 1;
nodes = (
(63,0,o),
(64,6,qs),
(117,308,ls),
(118,315,o),
(118,322,qs),
(118,360,o),
(85,360,qs),
(82,360,ls),
(77,360,o),
(76,354,qs),
(14,6,ls),
(14,5,o),
(14,4,qs),
(14,0,o),
(18,0,qs),
(58,0,ls)
);
},
{
closed = 1;
nodes = (
(47,433,qs),
(47,431,o),
(51,431,qs),
(88,431,ls),
(100,431,o),
(114,440,qs),
(196,496,ls),
(197,497,o),
(197,499,qs),
(197,502,o),
(193,502,qs),
(140,502,ls),
(128,502,o),
(117,493,qs),
(49,436,l),
(47,435,o)
);
}
);
userData = {
assembly = "NPUSHB[ ]	/* 36 values pushed */
0 2 3 2 133 0 3 0 3 133 0 0 0 42 77 4 1 1 1 40 1 78 0 0 28 26 20 18 0 15 0 14 54 5 9 23 
CALL[ ]	/* CallFunction */";
};
width = 170;
}
);
note = iacute;
unicode = 237;
},
{
glyphname = icircumflex;
kernLeft = i;
kernRight = i;
layers = (
{
layerId = m01;
shapes = (
{
closed = 1;
nodes = (
(63,0,o),
(64,6,qs),
(117,308,ls),
(118,315,o),
(118,322,qs),
(118,360,o),
(85,360,qs),
(82,360,ls),
(77,360,o),
(76,354,qs),
(14,6,ls),
(14,5,o),
(14,4,qs),
(14,0,o),
(18,0,qs),
(58,0,ls)
);
},
{
closed = 1;
nodes = (
(164,431,o),
(179,431,qs),
(209,431,ls),
(214,431,o),
(214,435,q),
(212,436,l),
(160,493,ls),
(151,502,o),
(141,502,qs),
(112,502,ls),
(100,502,o),
(89,493,qs),
(17,436,l),
(15,435,o),
(15,433,qs),
(15,431,o),
(19,431,qs),
(55,431,ls),
(69,431,o),
(81,440,qs),
(125,475,l),
(156,440,ls)
);
}
);
userData = {
assembly = "NPUSHB[ ]	/* 39 values pushed */
0 3 2 3 133 4 1 2 0 2 133 0 0 0 42 77 5 1 1 1 40 1 78 0 0 36 33 29 26 20 18 0 15 0 14 54 6 9 23 
CALL[ ]	/* CallFunction */";
};
width = 170;
}
);
note = icircumflex;
unicode = 238;
},
{
glyphname = idieresis;
kernLeft = i;
kernRight = i;
layers = (
{
layerId = m01;
shapes = (
{
closed = 1;
nodes = (
(63,0,o),
(64,6,qs),
(117,308,ls),
(118,315,o),
(118,322,qs),
(118,360,o),
(85,360,qs),
(82,360,ls),
(77,360,o),
(76,354,qs),
(14,6,ls),
(14,5,o),
(14,4,qs),
(14,0,o),
(18,0,qs),
(58,0,ls)
);
},
{
closed = 1;
nodes = (
(47,426,o),
(59,426,qs),
(74,426,o),
(97,448,o),
(97,464,qs),
(97,475,o),
(79,492,o),
(66,492,qs),
(51,492,o),
(29,469,o),
(29,453,qs),
(29,442,o)
);
},
{
closed = 1;
nodes = (
(159,426,o),
(171,426,qs),
(187,426,o),
(209,448,o),
(209,464,qs),
(209,475,o),
(191,492,o),
(178,492,qs),
(163,492,o),
(141,469,o),
(141,453,qs),
(141,442,o)
);
}
);
userData = {
assembly = "NPUSHB[ ]	/* 40 values pushed */
4 1 2 5 1 3 0 2 3 105 0 0 0 42 77 6 1 1 1 40 1 78 0 0 38 36 32 30 26 24 20 18 0 15 0 14 54 7 9 23 
CALL[ ]	/* CallFunction */";
};
width = 170;
}
);
note = idieresis;
unicode = 239;
},
{
glyphname = eth;
layers = (
{
layerId = m01;
shapes = (
{
closed = 1;
nodes = (
(134,447,o),
(133,445,q),
(133,444,o),
(134,442,qs),
(148,416,ls),
(150,412,o),
(152,412,qs),
(153,412,o),
(154,413,q),
(230,448,l),
(280,362,l),
(262,366,o),
(236,367,qs),
(150,367,o),
(92,307,qs),
(28,240,o),
(30,140,qs),
(31,79,o),
(68,38,qs),
(111,-9,o),
(183,-9,qs),
(268,-9,o),
(325,46,qs),
(388,107,o),
(392,205,qs),
(392,259,o),
(364,307,qs),
(276,469,l),
(334,498,ls),
(338,500,o),
(338,503,qs),
(338,504,o),
(337,507,q),
(323,532,l),
(323,535,o),
(321,535,qs),
(320,535,o),
(318,534,qs),
(257,506,l),
(247,523,ls),
(230,556,o),
(197,556,qs),
(178,556,ls),
(172,556,o),
(172,551,qs),
(172,550,o),
(172,549,q),
(210,483,l),
(138,449,ls)
);
},
{
closed = 1;
nodes = (
(83,91,o),
(81,138,qs),
(79,203,o),
(115,255,qs),
(160,320,o),
(234,320,qs),
(282,320,o),
(340,261,o),
(340,212,qs),
(341,147,o),
(304,98,qs),
(258,38,o),
(184,38,qs),
(138,38,o)
);
}
);
userData = {
assembly = "NPUSHB[ ]	/* 59 values pushed */
44 39 38 20 10 9 1 7 2 0 37 1 4 2 2 76 0 0 0 39 77 0 4 4 2 97 0 2 2 48 77 5 1 3 3 1 97 0 1 1 49 1 78 50 49 57 55 49 62 50 62 36 34 28 26 52 6 9 23 
CALL[ ]	/* CallFunction */";
};
width = 443;
}
);
note = eth;
unicode = 240;
},
{
glyphname = ntilde;
kernLeft = n;
kernRight = n;
layers = (
{
layerId = m01;
shapes = (
{
closed = 1;
nodes = (
(120,321,qs),
(120,360,o),
(87,360,qs),
(82,360,ls),
(77,360,o),
(76,354,qs),
(14,6,ls),
(14,5,o),
(14,4,qs),
(14,0,o),
(18,0,qs),
(58,0,ls),
(63,0,o),
(64,6,qs),
(97,193,ls),
(120,320,o),
(232,320,qs),
(322,320,o),
(322,234,qs),
(322,217,o),
(319,200,qs),
(285,6,ls),
(285,5,o),
(285,4,qs),
(285,0,o),
(289,0,qs),
(329,0,ls),
(334,0,o),
(335,6,qs),
(372,214,ls),
(375,231,o),
(375,247,qs),
(375,302,o),
(307,367,o),
(250,367,qs),
(166,367,o),
(119,307,q),
(120,316,o)
);
},
{
closed = 1;
nodes = (
(189,431,o),
(191,438,qs),
(198,455,o),
(210,455,qs),
(220,455,o),
(243,443,qs),
(273,428,o),
(294,428,qs),
(318,428,o),
(359,466,o),
(358,487,q),
(357,491,o),
(352,491,qs),
(326,491,ls),
(320,491,o),
(316,485,q),
(308,468,o),
(293,468,qs),
(284,468,o),
(261,480,qs),
(229,495,o),
(208,495,qs),
(187,495,o),
(151,457,o),
(151,434,qs),
(151,431,o),
(156,431,qs),
(183,431,ls)
);
}
);
userData = {
assembly = "MPPEM[ ]	/* MeasurePixelPerEm */
PUSHB[ ]	/* 1 value pushed */
27 
LT[ ]	/* LessThan */
IF[ ]	/* If */
NPUSHB[ ]	/* 18 values pushed */
54 1 6 5 40 1 8 9 36 1 2 0 0 1 1 2 4 76 
ELSE[ ]	/* Else */
MPPEM[ ]	/* MeasurePixelPerEm */
PUSHB[ ]	/* 1 value pushed */
45 
LT[ ]	/* LessThan */
IF[ ]	/* If */
NPUSHB[ ]	/* 18 values pushed */
54 1 6 5 40 1 8 9 36 1 2 4 0 1 1 2 4 76 
ELSE[ ]	/* Else */
NPUSHB[ ]	/* 18 values pushed */
54 1 6 7 40 1 8 9 36 1 2 4 0 1 1 2 4 76 
EIF[ ]	/* EndIf */
EIF[ ]	/* EndIf */
MPPEM[ ]	/* MeasurePixelPerEm */
PUSHB[ ]	/* 1 value pushed */
27 
LT[ ]	/* LessThan */
IF[ ]	/* If */
NPUSHB[ ]	/* 37 values pushed */
7 1 5 0 9 8 5 9 105 0 6 11 10 2 8 0 6 8 105 0 2 2 0 97 4 1 0 0 48 77 3 1 1 1 40 1 78 
ELSE[ ]	/* Else */
MPPEM[ ]	/* MeasurePixelPerEm */
PUSHB[ ]	/* 1 value pushed */
45 
LT[ ]	/* LessThan */
IF[ ]	/* If */
NPUSHB[ ]	/* 41 values pushed */
7 1 5 0 9 8 5 9 105 0 6 11 10 2 8 0 6 8 105 0 4 4 42 77 0 2 2 0 97 0 0 0 48 77 3 1 1 1 40 1 78 
ELSE[ ]	/* Else */
NPUSHB[ ]	/* 48 values pushed */
0 7 5 6 5 7 6 128 0 5 0 9 8 5 9 105 0 6 11 10 2 8 0 6 8 105 0 4 4 42 77 0 2 2 0 97 0 0 0 48 77 3 1 1 1 40 1 78 
EIF[ ]	/* EndIf */
EIF[ ]	/* EndIf */
NPUSHB[ ]	/* 20 values pushed */
38 38 38 65 38 64 62 60 36 34 34 39 54 35 40 38 33 12 9 31 
CALL[ ]	/* CallFunction */";
};
width = 439;
}
);
note = ntilde;
unicode = 241;
},
{
glyphname = ograve;
kernLeft = o;
kernRight = o;
layers = (
{
layerId = m01;
shapes = (
{
closed = 1;
nodes = (
(328,46,qs),
(388,106,o),
(392,205,qs),
(394,270,o),
(354,315,qs),
(308,367,o),
(230,367,qs),
(144,367,o),
(89,307,qs),
(28,241,o),
(30,140,qs),
(31,79,o),
(71,38,qs),
(116,-9,o),
(189,-9,qs),
(274,-9,o)
);
},
{
closed = 1;
nodes = (
(83,92,o),
(81,138,qs),
(79,203,o),
(113,255,qs),
(155,320,o),
(228,320,qs),
(278,320,o),
(340,260,o),
(340,212,qs),
(341,146,o),
(307,98,qs),
(264,38,o),
(190,38,qs),
(143,38,o)
);
},
{
closed = 1;
nodes = (
(254,502,o),
(243,502,qs),
(198,502,ls),
(193,502,o),
(194,498,q),
(193,497,o),
(194,496,qs),
(256,440,ls),
(267,431,o),
(279,431,qs),
(311,431,ls),
(316,431,o),
(316,435,q),
(315,436,l),
(262,493,ls)
);
}
);
userData = {
assembly = "NPUSHB[ ]	/* 56 values pushed */
0 5 4 5 133 0 4 1 4 133 0 3 3 1 97 0 1 1 48 77 7 1 2 2 0 97 6 1 0 0 49 0 78 17 16 1 0 43 40 35 33 24 22 16 29 17 29 9 7 0 15 1 15 8 9 22 
CALL[ ]	/* CallFunction */";
};
width = 443;
}
);
note = ograve;
unicode = 242;
},
{
glyphname = oacute;
kernLeft = o;
kernRight = o;
layers = (
{
layerId = m01;
shapes = (
{
closed = 1;
nodes = (
(328,46,qs),
(388,106,o),
(392,205,qs),
(394,270,o),
(354,315,qs),
(308,367,o),
(230,367,qs),
(144,367,o),
(89,307,qs),
(28,241,o),
(30,140,qs),
(31,79,o),
(71,38,qs),
(116,-9,o),
(189,-9,qs),
(274,-9,o)
);
},
{
closed = 1;
nodes = (
(83,92,o),
(81,138,qs),
(79,203,o),
(113,255,qs),
(155,320,o),
(228,320,qs),
(278,320,o),
(340,260,o),
(340,212,qs),
(341,146,o),
(307,98,qs),
(264,38,o),
(190,38,qs),
(143,38,o)
);
},
{
closed = 1;
nodes = (
(184,433,qs),
(184,431,o),
(188,431,qs),
(224,431,ls),
(237,431,o),
(251,440,qs),
(333,496,ls),
(334,497,o),
(334,499,qs),
(334,502,o),
(330,502,qs),
(277,502,ls),
(265,502,o),
(254,493,qs),
(186,436,l),
(184,435,o)
);
}
);
userData = {
assembly = "NPUSHB[ ]	/* 56 values pushed */
0 4 5 4 133 0 5 1 5 133 0 3 3 1 97 0 1 1 48 77 7 1 2 2 0 97 6 1 0 0 49 0 78 17 16 1 0 42 40 34 32 24 22 16 29 17 29 9 7 0 15 1 15 8 9 22 
CALL[ ]	/* CallFunction */";
};
width = 443;
}
);
note = oacute;
unicode = 243;
},
{
glyphname = ocircumflex;
kernLeft = o;
kernRight = o;
layers = (
{
layerId = m01;
shapes = (
{
closed = 1;
nodes = (
(328,46,qs),
(388,106,o),
(392,205,qs),
(394,270,o),
(354,315,qs),
(308,367,o),
(230,367,qs),
(144,367,o),
(89,307,qs),
(28,241,o),
(30,140,qs),
(31,79,o),
(71,38,qs),
(116,-9,o),
(189,-9,qs),
(274,-9,o)
);
},
{
closed = 1;
nodes = (
(83,92,o),
(81,138,qs),
(79,203,o),
(113,255,qs),
(155,320,o),
(228,320,qs),
(278,320,o),
(340,260,o),
(340,212,qs),
(341,146,o),
(307,98,qs),
(264,38,o),
(190,38,qs),
(143,38,o)
);
},
{
closed = 1;
nodes = (
(302,431,o),
(317,431,qs),
(347,431,ls),
(352,431,o),
(352,435,q),
(351,436,l),
(298,493,ls),
(290,502,o),
(279,502,qs),
(250,502,ls),
(239,502,o),
(227,493,qs),
(155,436,l),
(153,435,o),
(153,433,qs),
(153,431,o),
(157,431,qs),
(193,431,ls),
(208,431,o),
(220,440,qs),
(263,475,l),
(294,440,ls)
);
}
);
userData = {
assembly = "NPUSHB[ ]	/* 65 values pushed */
45 1 4 5 1 76 0 5 4 5 133 6 1 4 1 4 133 0 3 3 1 97 0 1 1 48 77 8 1 2 2 0 97 7 1 0 0 49 0 78 17 16 1 0 50 48 43 40 34 32 24 22 16 29 17 29 9 7 0 15 1 15 9 9 22 
CALL[ ]	/* CallFunction */";
};
width = 443;
}
);
note = ocircumflex;
unicode = 244;
},
{
glyphname = otilde;
kernLeft = o;
kernRight = o;
layers = (
{
layerId = m01;
shapes = (
{
closed = 1;
nodes = (
(328,46,qs),
(388,106,o),
(392,205,qs),
(394,270,o),
(354,315,qs),
(308,367,o),
(230,367,qs),
(144,367,o),
(89,307,qs),
(28,241,o),
(30,140,qs),
(31,79,o),
(71,38,qs),
(116,-9,o),
(189,-9,qs),
(274,-9,o)
);
},
{
closed = 1;
nodes = (
(83,92,o),
(81,138,qs),
(79,203,o),
(113,255,qs),
(155,320,o),
(228,320,qs),
(278,320,o),
(340,260,o),
(340,212,qs),
(341,146,o),
(307,98,qs),
(264,38,o),
(190,38,qs),
(143,38,o)
);
},
{
closed = 1;
nodes = (
(191,431,o),
(193,438,qs),
(200,455,o),
(212,455,qs),
(222,455,o),
(245,443,qs),
(275,428,o),
(296,428,qs),
(320,428,o),
(361,466,o),
(360,487,q),
(359,491,o),
(354,491,qs),
(328,491,ls),
(322,491,o),
(318,485,q),
(310,468,o),
(295,468,qs),
(286,468,o),
(263,480,qs),
(231,495,o),
(210,495,qs),
(189,495,o),
(153,457,o),
(153,434,qs),
(153,431,o),
(158,431,qs),
(185,431,ls)
);
}
);
userData = {
assembly = "MPPEM[ ]	/* MeasurePixelPerEm */
PUSHB[ ]	/* 1 value pushed */
45 
LT[ ]	/* LessThan */
IF[ ]	/* If */
NPUSHB[ ]	/* 10 values pushed */
46 1 5 4 32 1 7 8 2 76 
ELSE[ ]	/* Else */
NPUSHB[ ]	/* 10 values pushed */
46 1 5 6 32 1 7 8 2 76 
EIF[ ]	/* EndIf */
MPPEM[ ]	/* MeasurePixelPerEm */
PUSHB[ ]	/* 1 value pushed */
45 
LT[ ]	/* LessThan */
IF[ ]	/* If */
NPUSHB[ ]	/* 42 values pushed */
6 1 4 0 8 7 4 8 105 0 5 12 9 2 7 1 5 7 105 0 3 3 1 97 0 1 1 48 77 11 1 2 2 0 97 10 1 0 0 49 0 78 
ELSE[ ]	/* Else */
NPUSHB[ ]	/* 49 values pushed */
0 6 4 5 4 6 5 128 0 4 0 8 7 4 8 105 0 5 12 9 2 7 1 5 7 105 0 3 3 1 97 0 1 1 48 77 11 1 2 2 0 97 10 1 0 0 49 0 78 
EIF[ ]	/* EndIf */
NPUSHB[ ]	/* 35 values pushed */
30 30 17 16 1 0 30 57 30 56 54 52 50 48 44 42 40 38 36 34 24 22 16 29 17 29 9 7 0 15 1 15 13 9 22 
CALL[ ]	/* CallFunction */";
};
width = 443;
}
);
note = otilde;
unicode = 245;
},
{
glyphname = odieresis;
kernLeft = o;
kernRight = o;
layers = (
{
layerId = m01;
shapes = (
{
closed = 1;
nodes = (
(328,46,qs),
(388,106,o),
(392,205,qs),
(394,270,o),
(354,315,qs),
(308,367,o),
(230,367,qs),
(144,367,o),
(89,307,qs),
(28,241,o),
(30,140,qs),
(31,79,o),
(71,38,qs),
(116,-9,o),
(189,-9,qs),
(274,-9,o)
);
},
{
closed = 1;
nodes = (
(83,92,o),
(81,138,qs),
(79,203,o),
(113,255,qs),
(155,320,o),
(228,320,qs),
(278,320,o),
(340,260,o),
(340,212,qs),
(341,146,o),
(307,98,qs),
(264,38,o),
(190,38,qs),
(143,38,o)
);
},
{
closed = 1;
nodes = (
(183,426,o),
(196,426,qs),
(211,426,o),
(234,448,o),
(234,464,qs),
(234,475,o),
(216,492,o),
(203,492,qs),
(188,492,o),
(166,469,o),
(166,453,qs),
(166,442,o)
);
},
{
closed = 1;
nodes = (
(296,426,o),
(308,426,qs),
(323,426,o),
(346,448,o),
(346,464,qs),
(346,475,o),
(328,492,o),
(315,492,qs),
(300,492,o),
(278,469,o),
(278,453,qs),
(278,442,o)
);
}
);
userData = {
assembly = "NPUSHB[ ]	/* 60 values pushed */
6 1 4 7 1 5 1 4 5 105 0 3 3 1 97 0 1 1 48 77 9 1 2 2 0 97 8 1 0 0 49 0 78 17 16 1 0 52 50 46 44 40 38 34 32 24 22 16 29 17 29 9 7 0 15 1 15 10 9 22 
CALL[ ]	/* CallFunction */";
};
width = 443;
}
);
note = odieresis;
unicode = 246;
},
{
glyphname = divide;
layers = (
{
layerId = m01;
shapes = (
{
closed = 1;
nodes = (
(343,249,o),
(343,255,qs),
(343,260,ls),
(343,295,o),
(304,295,qs),
(45,295,ls),
(40,295,o),
(40,289,qs),
(40,255,ls),
(40,249,o),
(45,249,qs),
(338,249,ls)
);
},
{
closed = 1;
nodes = (
(179,364,o),
(191,364,qs),
(203,364,o),
(222,382,o),
(222,394,qs),
(222,407,o),
(203,426,o),
(191,426,qs),
(179,426,o),
(161,407,o),
(161,394,qs),
(161,383,o)
);
},
{
closed = 1;
nodes = (
(179,118,o),
(191,118,qs),
(203,118,o),
(222,135,o),
(222,148,qs),
(222,161,o),
(203,179,o),
(191,179,qs),
(178,179,o),
(161,160,o),
(161,148,qs),
(161,136,o)
);
}
);
userData = {
assembly = "NPUSHB[ ]	/* 58 values pushed */
3 2 2 1 0 1 76 0 2 0 3 0 2 3 105 0 0 6 1 1 4 0 1 103 0 4 5 5 4 89 0 4 4 5 97 0 5 4 5 81 0 0 34 32 28 26 22 20 16 14 0 11 0 10 37 7 9 23 
CALL[ ]	/* CallFunction */";
};
width = 384;
}
);
note = divide;
unicode = 247;
},
{
glyphname = oslash;
kernLeft = o;
kernRight = o;
layers = (
{
layerId = m01;
shapes = (
{
closed = 1;
nodes = (
(325,46,qs),
(388,107,o),
(392,205,qs),
(394,271,o),
(357,315,qs),
(313,367,o),
(236,367,qs),
(150,367,o),
(92,307,qs),
(28,240,o),
(30,140,qs),
(31,79,o),
(68,38,qs),
(111,-9,o),
(183,-9,qs),
(268,-9,o)
);
},
{
closed = 1;
nodes = (
(340,212,qs),
(341,147,o),
(304,98,qs),
(258,38,o),
(184,38,qs),
(157,39,o),
(139,46,q),
(324,274,l),
(339,250,o)
);
},
{
closed = 1;
nodes = (
(81,138,q),
(79,203,o),
(115,255,qs),
(160,320,o),
(234,320,qs),
(271,319,o),
(296,303,q),
(105,71,l),
(85,96,o)
);
}
);
userData = {
assembly = "NPUSHB[ ]	/* 45 values pushed */
32 26 17 3 2 3 1 76 0 3 3 1 97 0 1 1 48 77 0 2 2 0 97 4 1 0 0 49 0 78 1 0 29 27 20 18 9 7 0 15 1 15 5 9 22 
CALL[ ]	/* CallFunction */";
};
width = 443;
}
);
note = oslash;
unicode = 248;
},
{
glyphname = ugrave;
kernLeft = u;
kernRight = u;
layers = (
{
layerId = m01;
shapes = (
{
closed = 1;
nodes = (
(373,315,o),
(373,322,qs),
(373,360,o),
(340,360,qs),
(336,360,ls),
(331,360,o),
(330,354,qs),
(294,153,ls),
(274,36,o),
(171,36,qs),
(87,36,o),
(87,120,qs),
(87,137,o),
(91,156,qs),
(117,308,l),
(119,315,o),
(119,322,qs),
(119,360,o),
(85,360,qs),
(80,360,ls),
(76,360,o),
(75,354,qs),
(42,169,ls),
(38,144,o),
(38,121,qs),
(37,58,o),
(102,-10,o),
(163,-10,qs),
(242,-10,o),
(329,65,o),
(343,146,qs),
(372,308,ls)
);
},
{
closed = 1;
nodes = (
(231,502,o),
(220,502,qs),
(175,502,ls),
(171,502,o),
(171,498,qs),
(171,497,o),
(172,496,qs),
(233,440,ls),
(244,431,o),
(256,431,qs),
(288,431,ls),
(293,431,o),
(293,435,q),
(292,436,l),
(239,493,ls)
);
}
);
userData = {
assembly = "NPUSHB[ ]	/* 36 values pushed */
0 5 4 5 133 0 4 1 4 133 3 1 1 1 42 77 0 2 2 0 98 0 0 0 46 0 78 53 39 51 39 54 34 6 9 28 
CALL[ ]	/* CallFunction */";
};
width = 423;
}
);
note = ugrave;
unicode = 249;
},
{
glyphname = uacute;
kernLeft = u;
kernRight = u;
layers = (
{
layerId = m01;
shapes = (
{
closed = 1;
nodes = (
(373,315,o),
(373,322,qs),
(373,360,o),
(340,360,qs),
(336,360,ls),
(331,360,o),
(330,354,qs),
(294,153,ls),
(274,36,o),
(171,36,qs),
(87,36,o),
(87,120,qs),
(87,137,o),
(91,156,qs),
(117,308,l),
(119,315,o),
(119,322,qs),
(119,360,o),
(85,360,qs),
(80,360,ls),
(76,360,o),
(75,354,qs),
(42,169,ls),
(38,144,o),
(38,121,qs),
(37,58,o),
(102,-10,o),
(163,-10,qs),
(242,-10,o),
(329,65,o),
(343,146,qs),
(372,308,ls)
);
},
{
closed = 1;
nodes = (
(174,433,qs),
(174,431,o),
(178,431,qs),
(215,431,ls),
(227,431,o),
(241,440,qs),
(323,496,ls),
(324,497,o),
(324,499,qs),
(324,502,o),
(320,502,qs),
(267,502,ls),
(255,502,o),
(244,493,qs),
(176,436,l),
(174,435,o)
);
}
);
userData = {
assembly = "NPUSHB[ ]	/* 36 values pushed */
0 4 5 4 133 0 5 1 5 133 3 1 1 1 42 77 0 2 2 0 98 0 0 0 46 0 78 38 38 51 39 54 34 6 9 28 
CALL[ ]	/* CallFunction */";
};
width = 423;
}
);
note = uacute;
unicode = 250;
},
{
glyphname = ucircumflex;
kernLeft = u;
kernRight = u;
layers = (
{
layerId = m01;
shapes = (
{
closed = 1;
nodes = (
(373,315,o),
(373,322,qs),
(373,360,o),
(340,360,qs),
(336,360,ls),
(331,360,o),
(330,354,qs),
(294,153,ls),
(274,36,o),
(171,36,qs),
(87,36,o),
(87,120,qs),
(87,137,o),
(91,156,qs),
(117,308,l),
(119,315,o),
(119,322,qs),
(119,360,o),
(85,360,qs),
(80,360,ls),
(76,360,o),
(75,354,qs),
(42,169,ls),
(38,144,o),
(38,121,qs),
(37,58,o),
(102,-10,o),
(163,-10,qs),
(242,-10,o),
(329,65,o),
(343,146,qs),
(372,308,ls)
);
},
{
closed = 1;
nodes = (
(283,431,o),
(298,431,qs),
(327,431,ls),
(332,431,o),
(332,435,q),
(331,436,l),
(278,493,ls),
(270,502,o),
(259,502,qs),
(230,502,ls),
(219,502,o),
(208,493,qs),
(136,436,l),
(134,435,o),
(134,433,qs),
(134,431,o),
(137,431,qs),
(173,431,ls),
(188,431,o),
(200,440,qs),
(244,475,l),
(274,440,ls)
);
}
);
userData = {
assembly = "NPUSHB[ ]	/* 44 values pushed */
47 1 4 5 1 76 0 5 4 5 133 6 1 4 1 4 133 3 1 1 1 42 77 0 2 2 0 98 0 0 0 46 0 78 37 54 38 51 39 54 34 7 9 29 
CALL[ ]	/* CallFunction */";
};
width = 423;
}
);
note = ucircumflex;
unicode = 251;
},
{
glyphname = udieresis;
kernLeft = u;
kernRight = u;
layers = (
{
layerId = m01;
shapes = (
{
closed = 1;
nodes = (
(373,315,o),
(373,322,qs),
(373,360,o),
(340,360,qs),
(336,360,ls),
(331,360,o),
(330,354,qs),
(294,153,ls),
(274,36,o),
(171,36,qs),
(87,36,o),
(87,120,qs),
(87,137,o),
(91,156,qs),
(117,308,l),
(119,315,o),
(119,322,qs),
(119,360,o),
(85,360,qs),
(80,360,ls),
(76,360,o),
(75,354,qs),
(42,169,ls),
(38,144,o),
(38,121,qs),
(37,58,o),
(102,-10,o),
(163,-10,qs),
(242,-10,o),
(329,65,o),
(343,146,qs),
(372,308,ls)
);
},
{
closed = 1;
nodes = (
(169,426,o),
(181,426,qs),
(197,426,o),
(219,448,o),
(220,464,qs),
(220,475,o),
(202,492,o),
(189,492,qs),
(174,492,o),
(152,469,o),
(152,453,qs),
(152,442,o)
);
},
{
closed = 1;
nodes = (
(282,426,o),
(294,426,qs),
(309,426,o),
(332,448,o),
(332,464,qs),
(332,475,o),
(314,492,o),
(301,492,qs),
(286,492,o),
(264,469,o),
(264,453,qs),
(264,442,o)
);
}
);
userData = {
assembly = "NPUSHB[ ]	/* 38 values pushed */
6 1 4 7 1 5 1 4 5 105 3 1 1 1 42 77 0 2 2 0 98 0 0 0 46 0 78 36 36 36 38 51 39 54 34 8 9 30 
CALL[ ]	/* CallFunction */";
};
width = 423;
}
);
note = udieresis;
unicode = 252;
},
{
glyphname = yacute;
kernLeft = y;
kernRight = y;
layers = (
{
layerId = m01;
shapes = (
{
closed = 1;
nodes = (
(56,-62,qs),
(35,-95,o),
(23,-108,qs),
(8,-124,o),
(-16,-125,qs),
(-39,-125,o),
(-55,-104,qs),
(-64,-93,o),
(-68,-93,qs),
(-80,-93,o),
(-80,-115,qs),
(-80,-138,o),
(-44,-171,o),
(-17,-171,qs),
(23,-171,o),
(80,-112,o),
(129,-19,qs),
(326,354,l),
(327,355,o),
(327,357,qs),
(327,360,o),
(323,360,qs),
(286,360,ls),
(274,360,o),
(269,350,qs),
(124,63,l),
(88,320,ls),
(83,360,o),
(51,360,qs),
(38,360,ls),
(33,360,o),
(33,355,qs),
(33,354,l),
(91,-1,l),
(71,-37,o)
);
},
{
closed = 1;
nodes = (
(136,433,qs),
(136,431,o),
(140,431,qs),
(176,431,ls),
(189,431,o),
(203,440,qs),
(285,496,ls),
(286,497,o),
(286,499,qs),
(286,502,o),
(282,502,qs),
(229,502,ls),
(217,502,o),
(206,493,qs),
(138,436,l),
(136,435,o)
);
}
);
userData = {
assembly = "NPUSHB[ ]	/* 51 values pushed */
8 1 3 0 1 76 0 5 6 5 133 0 6 0 6 133 0 3 0 4 0 3 4 128 1 1 0 0 42 77 0 4 4 2 97 0 2 2 44 2 78 38 39 35 19 39 36 36 7 9 29 
CALL[ ]	/* CallFunction */";
};
width = 329;
}
);
note = yacute;
unicode = 253;
},
{
glyphname = thorn;
layers = (
{
layerId = m01;
shapes = (
{
closed = 1;
nodes = (
(153,510,o),
(153,517,qs),
(153,556,o),
(121,556,qs),
(116,556,ls),
(111,556,o),
(110,549,qs),
(-14,-154,ls),
(-14,-155,o),
(-14,-156,qs),
(-14,-160,o),
(-10,-160,qs),
(30,-160,ls),
(32,-160,o),
(33,-159,qs),
(35,-158,o),
(36,-154,qs),
(74,58,l),
(112,-9,o),
(198,-9,qs),
(279,-9,o),
(335,48,qs),
(399,113,o),
(399,217,qs),
(399,279,o),
(366,320,qs),
(327,367,o),
(258,367,qs),
(168,367,o),
(117,304,q),
(152,503,ls)
);
},
{
closed = 1;
nodes = (
(92,94,o),
(92,142,qs),
(92,213,o),
(130,263,qs),
(175,320,o),
(246,320,qs),
(294,320,o),
(347,264,o),
(347,213,qs),
(347,146,o),
(309,96,qs),
(264,38,o),
(198,38,qs),
(149,38,o)
);
}
);
userData = {
assembly = "PUSHB[ ]	/* 6 values pushed */
12 1 4 5 1 76 
MPPEM[ ]	/* MeasurePixelPerEm */
PUSHB[ ]	/* 1 value pushed */
36 
LT[ ]	/* LessThan */
IF[ ]	/* If */
NPUSHB[ ]	/* 32 values pushed */
0 3 3 39 77 0 5 5 0 97 0 0 0 48 77 6 1 4 4 1 97 0 1 1 49 77 0 2 2 44 2 78 
ELSE[ ]	/* Else */
NPUSHB[ ]	/* 32 values pushed */
0 2 1 2 134 0 3 3 39 77 0 5 5 0 97 0 0 0 48 77 6 1 4 4 1 97 0 1 1 49 1 78 
EIF[ ]	/* EndIf */
NPUSHB[ ]	/* 15 values pushed */
32 31 39 37 31 44 32 44 54 52 38 33 7 9 26 
CALL[ ]	/* CallFunction */";
};
width = 454;
}
);
note = thorn;
unicode = 254;
},
